<?xml version="1.0" encoding="utf-8" ?>
<svg baseProfile="full" height="300mm" version="1.1" viewBox="0,0,200,300" width="200mm" xmlns="http://www.w3.org/2000/svg" xmlns:ev="http://www.w3.org/2001/xml-events" xmlns:xlink="http://www.w3.org/1999/xlink"><defs /><rect fill="#222222" height="300" width="200" x="0" y="0" /><text fill="#FFFFFF" style="font-size:12px; font-family:Arial; font-weight:bold;" x="10" y="20">Runs 2017</text><text fill="#FFFFFF" style="font-size:4px; font-family:Arial" x="10" y="280">ATHLETE</text><text fill="#FFFFFF" style="font-size:9px; font-family:Arial" x="10" y="290">Florian Pigorsch</text><text fill="#FFFFFF" style="font-size:4px; font-family:Arial" x="120" y="280">STATISTICS</text><text fill="#FFFFFF" style="font-size:3px; font-family:Arial" x="120" y="285">Number: 175</text><text fill="#FFFFFF" style="font-size:3px; font-family:Arial" x="120" y="290">Weekly: 3.4</text><text fill="#FFFFFF" style="font-size:3px; font-family:Arial" x="139" y="285">Total: 2250.4 km</text><text fill="#FFFFFF" style="font-size:3px; font-family:Arial" x="139" y="290">Avg: 12.9 km</text><text fill="#FFFFFF" style="font-size:3px; font-family:Arial" x="167" y="285">Min: 1.1 km</text><text fill="#FFFFFF" style="font-size:3px; font-family:Arial" x="167" y="290">Max: 42.1 km</text><text alignment-baseline="middle" fill="#FFFFFF" style="dominant-baseline: central; font-size:9.0px; font-family:Arial;" text-anchor="middle" x="100.0" y="150.0">2017</text><line stroke="#FFFFFF" stroke-width="0.3" x1="100.0" x2="100.0" y1="65.0" y2="60.0" /><path d="M 100.0 64.0 a86.0,86.0 0 0,1 42.46469731375804,11.215312516191453" fill="none" id="id1" stroke="none" /><text fill="#FFFFFF" style="font-size:6.75px; font-family:Arial;" text-anchor="middle"><textPath startOffset="22.20632615414155" xlink:href="#id1">January</textPath></text><path d="M 100.36148047927253 129.00311137660856 l 0.3335543941481036 -19.374779179957777 a40.37765018793509,40.37765018793509 0 0,0 0.6948289195875562,0.01794538104795664 l -0.6670099489305277 19.36616700676746" fill="#0078dc" stroke="none" /><path d="M 100.72285384407766 129.0124445844662 l 0.5390109558431933 -15.649805832842038 a36.65908539526417,36.65908539526417 0 0,0 0.6304649888915248,0.02714914864000219 l -0.8083167771240496 15.638208957677842" fill="#0060e4" stroke="none" /><path d="M 101.08401301168833 129.02799685794201 l 0.8542914591620938 -16.527664310852327 a37.549728138837175,37.549728138837175 0 0,0 0.6452079508689323,0.03892070558289926 l -1.138661458870638 16.510510335889123" fill="#0066e2" stroke="none" /><path d="M 101.80526077348638 129.07773832637324 l 1.6044728888943032 -18.595209136936266 a39.66430111463043,39.66430111463043 0 0,0 0.6797231106039006,0.06454789965611928 l -1.924321126588448 18.56483569276497" fill="#0073de" stroke="none" /><path d="M 102.52436894288641 129.15227682838747 l 2.0712154501738382 -17.105315154376022 a38.23025652657455,38.23025652657455 0 0,0 0.6526182804830365,0.08472858307676126 l -2.365348459164721 17.067128248135127" fill="#006ae1" stroke="none" /><path d="M 103.2404852339499 129.25152402106235 l 2.507124265266222 -16.052845126123504 a37.24744622163107,37.24744622163107 0 0,0 0.6326226768175576,0.10438816219515933 l -2.7830761482226545 16.007310700988718" fill="#0064e3" stroke="none" /><path d="M 104.307194497241 129.44645832069477 l 4.341076961318359 -20.71522572632413 a42.165196102957566,42.165196102957566 0 0,0 0.7090926567263226,0.15498018996613933 l -4.69701234219821 20.637432038262123" fill="#0083d9" stroke="none" /><path d="M 105.01212808612495 129.60689891045803 l 4.435754514886086 -18.047980553585752 a39.58508865136085,39.58508865136085 0 0,0 0.6603002235803331,0.16832522918839407 l -4.745763627151445 17.968952328228493" fill="#0073de" stroke="none" /><path d="M 105.71112130821622 129.79150937346287 l 4.934206819564188 -17.45942116815275 a39.1432572727494,39.1432572727494 0 0,0 0.6468139611339356,0.18882273206164893 l -5.23401099842155 17.371900107172397" fill="#0070df" stroke="none" /><path d="M 106.74666289553966 130.1132571854024 l 2.1804895643435853 -6.427301296568826 a27.787100757841053,27.787100757841053 0 0,0 0.4516303592170571,0.1575649643362676 l -2.290801927623916 6.3888154790603515" fill="#001ef7" stroke="none" /><path d="M 107.08798089147638 130.2323363322302 l 5.129463339978984 -14.305555792735667 a36.19737874421972,36.19737874421972 0 0,0 0.5847043157496853,0.21535153401331494 l -5.374949981501246 14.215140990916026" fill="#005de5" stroke="none" /><path d="M 107.4271985657038 130.35727306442388 l 10.668132290058418 -28.214030853282114 a51.16356384030478,51.16356384030478 0 0,0 0.821094397752238,0.3185718698610307 l -11.152209852810323 28.026216279530537" fill="#00b3c6" stroke="none" /><path d="M 107.76421540070413 130.48803036053334 l 6.659254249823184 -16.735131631234175 a39.01139355737148,39.01139355737148 0 0,0 0.621797271118471,0.25364671928891075 l -6.946335390530043 16.618024025761684" fill="#006fdf" stroke="none" /><path d="M 109.41281617654863 131.22770947309562 l 5.53052779651588 -11.029714446350127 a33.338611691598835,33.338611691598835 0 0,0 0.5107785081010868,0.2616405905942642 l -5.719566792205723 10.932881330443362" fill="#0049eb" stroke="none" /><path d="M 109.73455568895987 131.3925169477831 l 15.077277739337013 -28.820030309802174 a53.525658349786305,53.525658349786305 0 0,0 0.8127105382220298,0.43412182356988677 l -15.571133324087354 28.556229759730535" fill="#00bdc1" stroke="none" /><path d="M 110.36928655335952 131.73862282372116 l 7.975979518723114 -14.046518011838346 a37.153046695282896,37.153046695282896 0 0,0 0.553409257388225,0.3205703619751724 l -8.216585508576667 13.907143492473125" fill="#0063e3" stroke="none" /><line stroke="#FFFFFF" stroke-width="0.3" x1="143.23703022742887" x2="145.7803849466894" y1="76.81831364943548" y2="72.5135085699905" /><path d="M 143.74570117128098 75.95735263354649 a86.0,86.0 0 0,1 28.547481713284135,27.462654790039103" fill="none" id="id2" stroke="none" /><text fill="#FFFFFF" style="font-size:6.75px; font-family:Arial;" text-anchor="middle"><textPath startOffset="19.985693538727396" xlink:href="#id2">February</textPath></text><path d="M 111.60114157652 132.49532879139002 l 8.532677826550895 -12.874743308457585 a36.44556914297387,36.44556914297387 0 0,0 0.5199486392817507,0.3510716422437515 l -8.753031160239187 12.725959753915165" fill="#005ee5" stroke="none" /><path d="M 111.90073688211348 132.69761687909136 l 18.991023988896796 -27.610893020256754 a54.51149661717478,54.51149661717478 0 0,0 0.7685312706207906,0.5384052686678333 l -19.463486399101235 27.279902908824983" fill="#00bfbc" stroke="none" /><path d="M 113.06298171725822 133.55741782278167 l 10.289419032116234 -12.951454855661806 a37.54123111792836,37.54123111792836 0 0,0 0.5025101181406967,0.4063282349668209 l -10.510832548821421 12.772420523430856" fill="#0066e2" stroke="none" /><path d="M 113.34407831869373 133.78471172551755 l 11.999453255945514 -14.581343801673729 a39.883920819158035,39.883920819158035 0 0,0 0.5263584786451903,0.4408100886058634 l -12.248669271549822 14.372632555674045" fill="#0075de" stroke="none" /><path d="M 113.89432698308785 134.25364557470405 l 14.167748757373115 -16.05622162294644 a42.41325191691398,42.41325191691398 0 0,0 0.5432713688558654,0.48775439901201056 l -14.442031113824969 15.80996821516513" fill="#0084d8" stroke="none" /><path d="M 114.42810811169701 134.74124197986012 l 12.383272283688841 -13.096197631145184 a39.02375723443891,39.02375723443891 0 0,0 0.4841115550844025,0.4657149324301128 l -12.606867082385662 12.88109961195277" fill="#006fdf" stroke="none" /><path d="M 114.68862486808459 134.99185889309783 l 11.335736888390013 -11.582318991706844 a37.206450691883745,37.206450691883745 0 0,0 0.45385527000477943,0.4519062712406491 l -11.533427958562115 11.385476869816076" fill="#0063e3" stroke="none" /><path d="M 115.4437574822437 135.77008943001954 l 17.89978092537405 -16.492895727167937 a45.33963365878006,45.33963365878006 0 0,0 0.5239024018782009,0.5785061173852312 l -18.181026967868284 16.182336822513157" fill="#0095d2" stroke="none" /><path d="M 115.68641384162765 136.03803664274997 l 15.45864897719352 -13.759237308874352 a41.69508249613918,41.69508249613918 0 0,0 0.4725604229939984,0.5402182538111541 l -15.693201263765365 13.491103498860252" fill="#0080da" stroke="none" /><path d="M 116.38621287248628 136.86637796730983 l 15.995552557599897 -12.820506063868326 a41.49934333964445,41.49934333964445 0 0,0 0.4419599426638827,0.5612442454482544 l -16.213866580857744 12.543269424467033" fill="#007fda" stroke="none" /><path d="M 116.82858285166822 137.43820079747576 l 13.54615060153568 -10.111607455215752 a37.90392858029932,37.90392858029932 0 0,0 0.3857850795344413,0.5262104149309854 l -13.718198293583749 9.876934596613273" fill="#0068e2" stroke="none" /><path d="M 117.2510076193507 138.02491185347247 l 30.18678895350073 -20.954686622090815 a57.74698788680816,57.74698788680816 0 0,0 0.5598035197656263,0.8214425891298679 l -30.54301693893509 20.43196600969054" fill="#00b8a1" stroke="none" /><path d="M 117.65298651832404 138.62581576622438 l 16.0359988859462 -10.332325666937011 a40.076430849551315,40.076430849551315 0 0,0 0.36865049909955067,0.5831165579666361 l -16.211476981291707 10.05476146125617" fill="#0076dd" stroke="none" /><line stroke="#FFFFFF" stroke-width="0.3" x1="172.23445277983987" x2="176.4835382374775" y1="105.19839476539836" y2="102.56300622218649" /><path d="M 173.08426987136738 104.67131705675598 a86.0,86.0 0 0,1 12.851231095245387,41.99856678651699" fill="none" id="id3" stroke="none" /><text fill="#FFFFFF" style="font-size:6.75px; font-family:Arial;" text-anchor="middle"><textPath startOffset="22.20632615414155" xlink:href="#id3">March</textPath></text><path d="M 118.03404312379186 139.2402003453031 l 12.919960905643368 -7.708542667719274 a36.04483366021046,36.04483366021046 0 0,0 0.31331598428560575,0.5355585800126172 l -13.050736564399301 7.485004675352761" fill="#005ce6" stroke="none" /><path d="M 118.21658344932153 139.5522209329492 l 28.738657953716928 -16.4825171426511 a54.12980278146136,54.12980278146136 0 0,0 0.4566038543373089,0.812247307638854 l -29.018119449346667 15.985386325077455" fill="#00bfbf" stroke="none" /><path d="M 118.56541770881063 140.18545643968196 l 18.22758174964396 -9.635947754423002 a41.61786180877938,41.61786180877938 0 0,0 0.3293569545078567,0.6362128038960765 l -18.390748137311935 9.320762228266581" fill="#007fda" stroke="none" /><path d="M 118.89224826269711 140.83032412892265 l 12.539996239263045 -6.086501687870313 a34.93904618247531,34.93904618247531 0 0,0 0.2579529916941555,0.5433147867225113 l -12.642907424798956 5.869744485507261" fill="#0054e8" stroke="none" /><path d="M 119.34039704204932 141.81776055985344 l 17.352145117897766 -7.341080219093847 a39.84113581968333,39.84113581968333 0 0,0 0.26177203394941917,0.6339017437799993 l -17.475938838733384 7.041303904860545" fill="#0075de" stroke="none" /><path d="M 119.61058180528143 142.48833698450437 l 24.388143623281795 -9.341666570150622 a47.11605413721013,47.11605413721013 0 0,0 0.2835834786120179,0.7598627338450681 l -24.54533169039544 8.92048069927622" fill="#ff3f00" stroke="none" /><path d="M 119.85752413597 143.1678162210484 l 14.974873807505466 -5.152258117322847 a36.836432971418546,36.836432971418546 0 0,0 0.20113167106179275,0.6013580959524564 l -15.061342772339028 4.893726918448077" fill="#0061e4" stroke="none" /><path d="M 120.37134235888165 144.90015583598534 l 25.347206755580395 -6.345522163892191 a47.12941908735415,47.12941908735415 0 0,0 0.19023947054139517,0.7886654233623487 l -25.45267902638261 5.9082715088704365" fill="#009fce" stroke="none" /><path d="M 120.45610955862082 145.25157060432593 l 20.36822914333574 -4.728029918146427 a41.90978300562488,41.90978300562488 0 0,0 0.15707310295568067,0.7041279216099232 l -20.446596633293456 4.37672382698654" fill="#0081d9" stroke="none" /><path d="M 120.53481517161879 145.60439243477597 l 13.585690523024516 -2.908103313456373 a34.89345356162873,34.89345356162873 0 0,0 0.12066605550489702,0.5884105403192493 l -13.63373587444441 2.6738171169737117" fill="#0054e8" stroke="none" /><path d="M 120.73433829027371 146.67025291283417 l 20.686764627020057 -3.3221071873808934 a41.95181679230171,41.95181679230171 0 0,0 0.10836375335698012,0.7139817408730184 l -20.740884273816338 2.965526334115793" fill="#0081d9" stroke="none" /><path d="M 120.78858239683441 147.0276538004421 l 17.540784913309572 -2.5079769451849536 a38.71917277224216,38.71917277224216 0 0,0 0.08865584476477596,0.6605890197487442 l -17.581356757132184 2.205669583371545" fill="#006de0" stroke="none" /><path d="M 120.83666639777658 147.38593545837742 l 23.310094525915634 -2.9243685337578134 a44.49281673466072,44.49281673466072 0 0,0 0.08879420205836394,0.7607344975307005 l -23.356979080977588 2.52269029790226" fill="#0090d4" stroke="none" /><path d="M 120.91429891909075 148.10471618934812 l 18.847296271003767 -1.7079690615106524 a39.92452733999109,39.92452733999109 0 0,0 0.05613296561790148,0.6849643601265109 l -18.873903720441163 1.3832907841763729" fill="#0075dd" stroke="none" /><path d="M 120.98425023603335 149.18683210126434 l 20.118325293521202 -0.7796121434408575 a41.133425136079936,41.133425136079936 0 0,0 0.021327300046070852,0.7077492590630762 l -20.128764288022918 0.4331927369527822" fill="#007ddb" stroke="none" /><line stroke="#FFFFFF" stroke-width="0.3" x1="184.98032266829074" x2="189.97916517819016" y1="148.1711317179211" y2="148.06355123074" /><path d="M 185.9800911702706 148.1496156204849 a86.0,86.0 0 0,1 -9.607161424134198,41.387399972396054" fill="none" id="id4" stroke="none" /><text fill="#FFFFFF" style="font-size:6.75px; font-family:Arial;" text-anchor="middle"><textPath startOffset="21.466115282336823" xlink:href="#id4">April</textPath></text><path d="M 120.99513854157772 149.54816195383933 l 17.801558777821196 -0.38310876210015105 a38.80568075766329,38.80568075766329 0 0,0 0.008624087423248437,0.6679450750083843 l -17.805515872362157 0.07662742903130398" fill="#006ee0" stroke="none" /><path d="M 120.99980553446 149.90962569577886 l 34.346561786176764 -0.14781311277955125 a55.3468798473452,55.3468798473452 0 0,0 -0.00410015671409838,0.9527320226578468 l -34.344017332173166 -0.44342838808198026" fill="#00bdb5" stroke="none" /><path d="M 120.9904718944345 150.63252640178507 l 16.21580292693472 0.48864663591242996 a37.22316368961286,37.22316368961286 0 0,0 -0.024811661913577046,0.6402787458481067 l -16.20498913216994 -0.7677026287745429" fill="#0064e3" stroke="none" /><path d="M 120.9764740272857 150.99374915477105 l 14.17311741051644 0.6714438007479688 a35.18901314080183,35.18901314080183 0 0,0 -0.03387135067820423,0.6047957198457067 l -14.159459708950706 -0.9153112369290988" fill="#0056e7" stroke="none" /><path d="M 120.95626037817324 151.35467743843563 l 5.116656143517289 0.3307564666964784 a26.127335558675163,26.127335558675163 0 0,0 -0.03287495801865797,0.44855268288883626 l -5.110204626834292 -0.4187822860820849" fill="#0011fb" stroke="none" /><path d="M 120.89721153311464 152.0752229133903 l 18.89249642409718 1.876142250285546 a39.98542416902586,39.98542416902586 0 0,0 -0.07391153046408566,0.684328977016412 l -18.857402592132043 -2.2010675491867495" fill="#0075dd" stroke="none" /><path d="M 120.49622156327973 154.57218783832718 l 12.486187034592534 2.785352038198163 a33.793086126479466,33.793086126479466 0 0,0 -0.13153465406850087,0.5666478471453713 l -12.436391814593481 -2.999868542692099" fill="#004cea" stroke="none" /><path d="M 120.32669344350535 155.2749913415812 l 14.70571540947951 3.816288255262058 a36.19283126187658,36.19283126187658 0 0,0 -0.16168186301495735,0.6016783594080275 l -14.637845470122775 -4.068857547845634" fill="#005de5" stroke="none" /><path d="M 120.13307415673323 155.9715429329011 l 17.231338077504233 5.110877470579272 a38.97331578926165,38.97331578926165 0 0,0 -0.1963015903413287,0.6415249551694661 l -17.140809714656772 -5.406729398300795" fill="#006fdf" stroke="none" /><path d="M 119.9155931802556 156.66101706037122 l 36.006355822920774 12.042772125715507 a58.966906907446266,58.966906907446266 0 0,0 -0.33024042491583905,0.9598332569217723 l -35.7937245670617 -12.660778085726578" fill="#00b597" stroke="none" /><path d="M 119.67450827220406 157.34259656027578 l 11.584489573361859 4.323372768309019 a33.364948474178355,33.364948474178355 0 0,0 -0.2054418427990076,0.5363438237480509 l -11.508353450969345 -4.522140158890213" fill="#0049eb" stroke="none" /><path d="M 119.41010516605496 158.01547362559984 l 17.602356577804965 7.268957261733157 a40.04417750298229,40.04417750298229 0 0,0 -0.268580148107432,0.6348441328327964 l -17.474625448505225 -7.570875920232117" fill="#0076dd" stroke="none" /><path d="M 118.97047184881838 159.00673069616215 l 18.968333638045845 9.005715524333361 a41.997633035879076,41.997633035879076 0 0,0 -0.3156756954573239,0.6503854326945463 l -18.810504685973804 -9.330889912993182" fill="#0082d9" stroke="none" /><path d="M 118.81262510543309 159.33194174019687 l 10.663458303424749 5.289573947223329 a32.90331615693803,32.90331615693803 0 0,0 -0.25605255689570283,0.5052159864675885 l -10.570827076742777 -5.472344145393612" fill="#0045ec" stroke="none" /><path d="M 118.64920377521936 159.65438752849417 l 20.67352509166996 10.702345538217617 a44.27949397506986,44.27949397506986 0 0,0 -0.35623378305519104,0.6738600673341099 l -20.486238800389877 -11.056620620637862" fill="#008fd4" stroke="none" /><line stroke="#FFFFFF" stroke-width="0.3" x1="174.80103733775053" x2="179.2010983576182" y1="190.37084112569926" y2="192.7455964860345" /><path d="M 175.68104954172406 190.8457921977663 a86.0,86.0 0 0,1 -30.038265399797805,32.042727171017184" fill="none" id="id5" stroke="none" /><text fill="#FFFFFF" style="font-size:6.75px; font-family:Arial;" text-anchor="middle"><textPath startOffset="22.206326154141568" xlink:href="#id5">May</textPath></text><path d="M 118.30583269289576 160.29060199501023 l 14.881733842855652 8.365748914111627 a38.0719582082301,38.0719582082301 0 0,0 -0.32605550887239104,0.5685052630196467 l -14.735526337830882 -8.62067402298959" fill="#0069e1" stroke="none" /><path d="M 117.55443506779139 161.5257021239791 l 25.18661144296496 16.536754380472406 a51.13021143999767,51.13021143999767 0 0,0 -0.4893816056729884,0.7315591003129169 l -24.898226731881252 -16.967850394991128" fill="#00b2c6" stroke="none" /><path d="M 117.35343817320211 161.82616520977328 l 32.490170097330264 22.141671029664536 a60.31748655419544,60.31748655419544 0 0,0 -0.592085331454376,0.8529430797707284 l -32.10422385871375 -22.697655371622286" fill="#00b28d" stroke="none" /><path d="M 116.71984013943494 162.70617746262582 l 13.772056409021154 10.466020685544075 a38.29760465276904,38.29760465276904 0 0,0 -0.40338900314619497,0.5214346639513024 l -13.58986058865689 -10.70153334360863" fill="#006be1" stroke="none" /><path d="M 115.80600337817218 163.826433278659 l 20.419387003977597 17.862029081399708 a48.12938348954834,48.12938348954834 0 0,0 -0.5508319711235391,0.6188655588869296 l -20.10889618320572 -18.210868810027502" fill="#ff4200" stroke="none" /><path d="M 115.07121518719521 164.6239007375343 l 10.02214611618338 9.72468829883429 a34.96470462572031,34.96470462572031 0 0,0 -0.42283878723170254,0.42833345905356074 l -9.853266703896143 -9.895762251868515" fill="#0054e8" stroke="none" /><path d="M 114.81725581225074 164.88116024355367 l 10.998715287781609 11.04615097050413 a36.58811050913003,36.58811050913003 0 0,0 -0.45012095678635466,0.4405380941186234 l -10.806944378619459 -11.233839167545325" fill="#005fe5" stroke="none" /><path d="M 114.29624159901734 165.38237550388516 l 9.536348516349182 10.260857218898998 a35.00810957595303,35.00810957595303 0 0,0 -0.4449371532445361,0.40643954013080286 l -9.358311813637782 -10.423489525616384" fill="#0054e8" stroke="none" /><path d="M 112.92097659922987 166.55440617244102 l 9.20531345598721 11.793883900705453 a35.961065914108474,35.961065914108474 0 0,0 -0.49124746207188474,0.37666760605031324 l -9.00093726542183 -11.950590848583136" fill="#005be6" stroke="none" /><path d="M 112.34349029814194 166.9893568818739 l 6.87084853458411 9.456911701297422 a32.6893857200168,32.6893857200168 0 0,0 -0.45807585175275517,0.32682495755738883 l -6.70704535498247 -9.573780920699031" fill="#0044ed" stroke="none" /><path d="M 112.04921762599082 167.19931262002967 l 12.370659683440257 17.658145932441005 a42.5602258516667,42.5602258516667 0 0,0 -0.6036319170863862,0.4151835367817026 l -12.064870881730988 -17.868470258587802" fill="#0085d8" stroke="none" /><path d="M 111.45004920935366 167.60387380957326 l 9.939237180510409 15.281076429452359 a39.22909028375264,39.22909028375264 0 0,0 -0.5692294142192083,0.36330914431228584 l -9.67472596424427 -15.449900002588453" fill="#0071df" stroke="none" /><path d="M 111.1453310114006 167.79835938074945 l 6.428490672295112 10.265876100428684 a33.11254326857651,33.11254326857651 0 0,0 -0.4856834318982372,0.2983464323361442 l -6.250828040464566 -10.375010999593206" fill="#0047ec" stroke="none" /><line stroke="#FFFFFF" stroke-width="0.3" x1="143.8653032363475" x2="146.44561519142675" y1="222.8068346515853" y2="227.08958963109032" /><path d="M 144.38136562736335 223.6633856474863 a86.0,86.0 0 0,1 -40.68145358897372,12.25698825130547" fill="none" id="id6" stroke="none" /><text fill="#FFFFFF" style="font-size:6.75px; font-family:Arial;" text-anchor="middle"><textPath startOffset="21.466115282336833" xlink:href="#id6">June</textPath></text><path d="M 110.21172684928248 168.3499491758327 l 8.168759613563992 14.678841879620608 a37.798721158204216,37.798721158204216 0 0,0 -0.5712596112453271,0.31149628799776163 l -7.914877190450017 -14.81727881937814" fill="#0067e2" stroke="none" /><path d="M 109.57404056367764 168.69057910512822 l 16.20961676413858 31.64464599652449 a56.55468036539769,56.55468036539769 0 0,0 -0.8702582839204178,0.4363655698233184 l -15.662504572535402 -31.91897940725711" fill="#00baab" stroke="none" /><path d="M 108.92500713936063 169.00905698771936 l 5.157097796095413 10.983920165720155 a33.13433804891746,33.13433804891746 0 0,0 -0.5183662137205098,0.23795650446182823 l -4.9672635866074835 -11.071063740516058" fill="#0047ec" stroke="none" /><path d="M 108.59647513512805 169.15986991738527 l 6.736791996549354 15.014998157433189 a37.45705125690789,37.45705125690789 0 0,0 -0.5905359647355714,0.25887361268780185 l -6.477335357156029 -15.128736323415445" fill="#0065e3" stroke="none" /><path d="M 107.93186726928326 169.44442032107085 l 10.938404945175257 26.814738090705184 a49.95995306656677,49.95995306656677 0 0,0 -0.7990712036665386,0.3179669228891116 l -10.475212665466852 -26.999051858000364" fill="#00adc8" stroke="none" /><path d="M 107.59598834532513 169.57807347666477 l 6.0680178601858135 15.639847525246179 a37.77574652182379,37.77574652182379 0 0,0 -0.6082430872400045,0.22998549030207255 l -5.797904552185534 -15.741981265654882" fill="#0067e2" stroke="none" /><path d="M 106.91757812671514 169.82793768551818 l 8.069244739012001 23.128973597917412 a45.49616562548583,45.49616562548583 0 0,0 -0.7416530728049866,0.2516089896824863 l -7.669921933269788 -23.264445574498023" fill="#0096d2" stroke="none" /><path d="M 106.2309692047433 170.05430185196036 l 4.885901227457716 15.725216224742558 a37.46676823543039,37.46676823543039 0 0,0 -0.6175326720537967,0.1860575283920564 l -4.614493580963674 -15.80698912224034" fill="#0065e3" stroke="none" /><path d="M 105.18746579009965 170.34920634021253 l 4.994012906039048 19.590336245614203 a41.21686026864484,41.21686026864484 0 0,0 -0.6890020671669438,0.16933994477262523 l -4.656057554128893 -19.673397448700857" fill="#007ddb" stroke="none" /><path d="M 104.48393922423573 170.5157083483208 l 3.828880865519325 17.518569991512226 a38.932111510635124,38.932111510635124 0 0,0 -0.655929213192681,0.1374563441048085 l -3.526760190897266 -17.581882316343577" fill="#006fe0" stroke="none" /><path d="M 103.7750983002368 170.65789516924582 l 1.890233836239064 10.343638583381642 a31.514934288871444,31.514934288871444 0 0,0 -0.5344798219510631,0.09292616804685729 l -1.7119050428159508 -10.374643329949505" fill="#003bef" stroke="none" /><path d="M 103.06178313531738 170.7755982833777 l 2.5149976326911196 17.065408682192775 a38.24973584095427,38.24973584095427 0 0,0 -0.6521969904429562,0.0903885600428823 l -2.220872051061333 -17.10617180772826" fill="#006ae1" stroke="none" /><path d="M 102.34483914955558 170.86867818915974 l 1.8798815043306338 16.730632527636185 a37.83591456515275,37.83591456515275 0 0,0 -0.6478362645354396,0.067150877661772 l -1.5916126431895916 -16.760512773753717" fill="#0068e2" stroke="none" /><path d="M 101.98527174616119 170.90594882070397 l 0.2926682127317321 3.0819492035019946 a24.09581420238847,24.09581420238847 0 0,0 -0.41324973350639377,0.03565692587112492 l -0.23957416148379665 -3.0865303816517833" fill="#0000ff" stroke="none" /><path d="M 101.62511606390274 170.93702456842533 l 1.6225173342778383 20.903544088346596 a41.966418815655715,41.966418815655715 0 0,0 -0.7206977819844395,0.04970353860325129 l -1.2624567915144684 -20.92837597146613" fill="#0082d9" stroke="none" /><line stroke="#FFFFFF" stroke-width="0.3" x1="102.19456741930631" x2="102.32365962044197" y1="234.97166512339345" y2="239.96999836594603" /><path d="M 102.22038585953345 235.97133177190398 a86.0,86.0 0 0,1 -42.740103519485714,-10.115201625700543" fill="none" id="id7" stroke="none" /><text fill="#FFFFFF" style="font-size:6.75px; font-family:Arial;" text-anchor="middle"><textPath startOffset="22.20632615414155" xlink:href="#id7">July</textPath></text><path d="M 99.81925306533755 170.99922214144158 l -0.1629620593824797 18.93297107356395 a39.933672393521746,39.933672393521746 0 0,0 -0.6873161396971003,-0.011832770656918273 l 0.4888378889722479 -18.927360825627872" fill="#0075dd" stroke="none" /><path d="M 99.45781275523022 170.99299961872075 l -0.422741449395888 16.368166480481488 a37.37362465264778,37.37362465264778 0 0,0 -0.6429680938644038,-0.022145121195257474 l 0.7044298949349348 -16.358464560860135" fill="#0065e3" stroke="none" /><path d="M 96.58105272829116 170.7198165907248 l -2.466665132374572 14.948709375091358 a36.15085307354727,36.15085307354727 0 0,0 -0.613103024014603,-0.10659581952344284 l 2.7236171278612247 -14.904034977046908" fill="#005ce5" stroke="none" /><path d="M 96.22490169976321 170.65789516924582 l -2.690867500324676 14.724824180750707 a35.968674458960095,35.968674458960095 0 0,0 -0.608097347326607,-0.11654330389902581 l 2.943932462222978 -14.676323678503213" fill="#005be6" stroke="none" /><path d="M 95.16358092515715 170.4354850818985 l -6.298765368659975 26.614386332890778 a48.34958875460093,48.34958875460093 0 0,0 -0.8082363960152029,-0.19864484184671885 l 6.755955049418389 -26.50202023273003" fill="#ff4300" stroke="none" /><path d="M 94.81253420990036 170.34920634021253 l -4.032192618957734 15.817341824836758 a37.3232006579625,37.3232006579625 0 0,0 -0.6211816826105908,-0.16405972820991394 l 4.303864744379815 -15.745590747323263" fill="#0064e3" stroke="none" /><path d="M 94.46302465271185 170.2568976895161 l -4.110100441597301 15.036708476560005 a36.588313810321814,36.588313810321814 0 0,0 -0.606092094581832,-0.1712876800191229 l 4.368323704283747 -14.96373200320236" fill="#005fe5" stroke="none" /><path d="M 93.76903079525671 170.05430185196036 l -4.484960098109661 14.434791867213926 a36.11549150148354,36.11549150148354 0 0,0 -0.5920853731195393,-0.18956703903305192 l 4.73276681632014 -14.355451981521167" fill="#005ce6" stroke="none" /><path d="M 93.08242187328487 169.82793768551818 l -2.7908006095613556 7.999305474467471 a29.472157701328115,29.472157701328115 0 0,0 -0.4775618462760913,-0.17123668723796134 l 2.9280820164671733 -7.950081246189552" fill="#002cf4" stroke="none" /><path d="M 92.7421414339146 169.70592522655815 l -16.678965588592455 45.28532014676793 a69.25917647350312,69.25917647350312 0 0,0 -1.1151709548242958,-0.42166223372908923 l 17.456006764177033 -44.99150966293221" fill="#009f4e" stroke="none" /><path d="M 91.7346041902142 169.30500536409082 l -6.236095058125351 14.5652853557911 a36.84412885171028,36.84412885171028 0 0,0 -0.5808728249070197,-0.25463757616046345 l 6.485888557690115 -14.455783226336186" fill="#0061e4" stroke="none" /><path d="M 91.40352486487194 169.15986991738527 l -8.853299320242778 19.7322810395124 a42.62738596955517,42.62738596955517 0 0,0 -0.6668790737035116,-0.30613147438422805 l 9.191646389713709 -19.5769624947941" fill="#0085d8" stroke="none" /><path d="M 90.42595943632237 168.69057910512822 l -8.4817499500521 16.558193725729435 a39.60413560674063,39.60413560674063 0 0,0 -0.6040745205911128,-0.3160232388482742 l 8.765515373169709 -16.409741067936444" fill="#0073de" stroke="none" /><line stroke="#FFFFFF" stroke-width="0.3" x1="58.666819895761336" x2="56.23545636021788" y1="224.27360380694188" y2="228.64263932499728" /><path d="M 58.180547188652646 225.14741091055294 a86.0,86.0 0 0,1 -31.652253787137756,-30.449443065178592" fill="none" id="id8" stroke="none" /><text fill="#FFFFFF" style="font-size:6.75px; font-family:Arial;" text-anchor="middle"><textPath startOffset="22.20632615414155" xlink:href="#id8">August</textPath></text><path d="M 89.7882731507175 168.3499491758327 l -15.326956980151659 27.541755254227002 a52.519262249538144,52.519262249538144 0 0,0 -0.7861664213586098,-0.4464058117306664 l 15.798772168431475 -27.273846276701704" fill="#00b9c3" stroke="none" /><path d="M 89.1626897886671 167.98757091392108 l -8.929375104359057 14.820814830851393 a38.30289837006309,38.30289837006309 0 0,0 -0.5618137809932524,-0.34511191073887876 l 9.183168085284619 -14.664914453284137" fill="#006be1" stroke="none" /><path d="M 88.54995079064634 167.60387380957326 l -7.144467812538864 10.984259325780792 a34.103334432899366,34.103334432899366 0 0,0 -0.4893427391412017,-0.3243096844587897 l 7.332485250420027 -10.859651620230684" fill="#004eea" stroke="none" /><path d="M 87.95078237400918 167.19931262002967 l -14.754765951645417 21.061270541775222 a46.715369628330905,46.715369628330905 0 0,0 -0.6546217452883755,-0.46705523397792165 l 15.115115024782678 -20.80417104595308" fill="#009ccf" stroke="none" /><path d="M 87.36589467227662 166.77436683061367 l -9.286992636640667 12.330388040883168 a36.43653787193789,36.43653787193789 0 0,0 -0.497742664219907,-0.38164785008778734 l 9.49786402935406 -12.168700848968015" fill="#005ee5" stroke="none" /><path d="M 86.24171649860922 165.8653595955263 l -11.629180417683731 13.410185152032552 a38.750236702614224,38.750236702614224 0 0,0 -0.500168951663019,-0.44134094619578157 l 11.858291722253337 -13.208021064064482" fill="#006ee0" stroke="none" /><path d="M 85.70375840098266 165.38237550388516 l -13.345443470643808 14.35934202073263 a40.60335595495137,40.60335595495137 0 0,0 -0.5078593625161884,-0.4802127262421796 l 13.590638667550813 -14.127494657744519" fill="#0079dc" stroke="none" /><path d="M 84.67929136418377 164.36230785411684 l -25.799455799386724 24.185547513986172 a56.36315353720298,56.36315353720298 0 0,0 -0.6574455674107669,-0.7135273163478378 l 26.211947774793217 -23.73786894283699" fill="#00bbac" stroke="none" /><path d="M 84.43433777217949 164.09645910891817 l -16.335599681210468 14.79372413171546 a43.03874067704559,43.03874067704559 0 0,0 -0.4925704973337139,-0.5534081754584227 l 16.58782902819252 -14.510341786516173" fill="#0088d7" stroke="none" /><path d="M 84.19399662182784 163.82643327865904 l -8.36247499942169 7.315144749597611 a32.110460423561136,32.110460423561136 0 0,0 -0.3603366914258688,-0.41915297897930737 l 8.487154200418338 -7.170114671456774" fill="#0040ee" stroke="none" /><path d="M 83.72743513129214 163.27417163493433 l -12.771544561330618 10.418251573624026 a37.48187842247883,37.48187842247883 0 0,0 -0.40352292065999373,-0.5034568880088042 l 12.948985394045474 -10.196866852036964" fill="#0065e3" stroke="none" /><path d="M 83.06392112726016 162.41649034213515 l -36.34947173019254 26.64919477944281 a66.07176141950465,66.07176141950465 0 0,0 -0.6645567221493858,-0.9230111632920318 l 36.80280824471753 -26.01955001069964" fill="#00a663" stroke="none" /><path d="M 82.6465618267979 161.8261652097733 l -13.84831376002637 9.43746390589923 a37.758326854769436,37.758326854769436 0 0,0 -0.36139554489025144,-0.540237304819488 l 14.008712410327352 -9.197689686873922" fill="#0067e2" stroke="none" /><path d="M 82.44556493220864 161.52570212397913 l -14.14024916108435 9.284052671596962 a37.91568149222884,37.91568149222884 0 0,0 -0.3535098113296842,-0.5486550776069741 l 14.29796383579108 -9.03927599406854" fill="#0068e2" stroke="none" /><line stroke="#FFFFFF" stroke-width="0.3" x1="26.63291911575756" x2="22.317208475507996" y1="192.92168965132927" y2="195.44649492493687" /><path d="M 25.769776987707644 193.4266507060508 a86.0,86.0 0 0,1 -11.730757126820373,-40.83630448921669" fill="none" id="id9" stroke="none" /><text fill="#FFFFFF" style="font-size:6.75px; font-family:Arial;" text-anchor="middle"><textPath startOffset="21.46611528233685" xlink:href="#id9">September</textPath></text><path d="M 81.87401531095188 160.60418214915194 l -14.481713195689682 8.472186598042141 a37.777901025880965,37.777901025880965 0 0,0 -0.3235371470979882,-0.564114286992637 l 14.625402338940047 -8.221652465191196" fill="#0067e2" stroke="none" /><path d="M 81.69416730710424 160.29060199501023 l -9.296104442224113 5.225794014609366 a31.664261853680543,31.664261853680543 0 0,0 -0.2629997259326828,-0.477420896002213 l 9.384680577608313 -5.06500260020933" fill="#003cef" stroke="none" /><path d="M 81.51974371655577 159.97397251340806 l -32.85638286939658 17.73290665470668 a58.33628093001388,58.33628093001388 0 0,0 -0.46932230202925024,-0.8877809267119043 l 33.156757679650724 -17.16471071290865" fill="#00b69c" stroke="none" /><path d="M 81.18737489456691 159.33194174019687 l -15.31573833931897 7.597322388003547 a38.096524452231364,38.096524452231364 0 0,0 -0.28635296757535467,-0.5899719281525819 l 15.444244563509045 -7.33256150388568" fill="#0069e1" stroke="none" /><path d="M 80.87730276802145 158.678850763441 l -14.9588063924788 6.789065721462463 a37.4273339911868,37.4273339911868 0 0,0 -0.2612052129118302,-0.5889487989538641 l 15.07345269012191 -6.530568586015903" fill="#0065e3" stroke="none" /><path d="M 80.58989483394504 158.01547362559984 l -38.85282554216168 16.044415820984707 a63.03528674395258,63.03528674395258 0 0,0 -0.4055191642211396,-1.006465309212254 l 39.12324732064021 -15.373251143929647" fill="#00ac79" stroke="none" /><path d="M 80.45479744820244 157.68017299344265 l -6.696756817064623 2.6314514118628303 a28.1952128807907,28.1952128807907 0 0,0 -0.17360963397928633,-0.45323997127033944 l 6.741060730637418 -2.515787873759333" fill="#ff0b00" stroke="none" /><path d="M 80.20201598880116 157.00284435728193 l -12.586305149786469 4.451965207535971 a34.350470835616704,34.350470835616704 0 0,0 -0.19237763484217835,-0.5591394568261333 l 12.661073615571874 -4.23465304762054" fill="#0050e9" stroke="none" /><path d="M 80.0844068197444 156.66101706037122 l -14.183792533598904 4.743945269013359 a35.95610201060324,35.95610201060324 0 0,0 -0.19126548656355238,-0.5886546392264623 l 14.263350271178707 -4.499091729809094" fill="#005be6" stroke="none" /><path d="M 79.86692584326677 155.9715429329011 l -19.189743461100566 5.691747621711109 a41.016049687490934,41.016049687490934 0 0,0 -0.19493827450747644,-0.6786057070595608 l 19.284874372494144 -5.360584439146952" fill="#007cdb" stroke="none" /><path d="M 79.67330655649465 155.2749913415812 l -45.337617756618194 11.76559000010368 a67.8393925227021,67.8393925227021 0 0,0 -0.28359671945665005,-1.1328279214240173 l 45.533425790369904 -10.983434239282271" fill="#00a258" stroke="none" /><path d="M 79.4281124754447 154.21870165774334 l -19.67690941976214 4.035167423958127 a41.08639690071111,41.08639690071111 0 0,0 -0.1361134945795639,-0.6940397764173805 l 19.743452847317368 -3.695863920472791" fill="#007cdb" stroke="none" /><path d="M 79.23777060512086 153.15116336523772 l -14.570980334979003 2.2114936962650966 a35.73784829243961,35.73784829243961 0 0,0 -0.08707432964321377,-0.6089976587203344 l 14.606888715638815 -1.9603505655643614" fill="#ff2000" stroke="none" /><path d="M 79.18660465613746 152.79330883721812 l -49.31275341339574 6.618129700679278 a70.75487202219885,70.75487202219885 0 0,0 -0.15161249783006472,-1.2085007805728232 l 49.41936742047265 -5.768311165819046" fill="#009c45" stroke="none" /><path d="M 79.07016306316243 151.71520430193888 l -18.074519918860823 1.4812105041174912 a39.135111106767575,39.135111106767575 0 0,0 -0.04924211011878054,-0.6718694695320809 l 18.09733858764394 -1.1698678980886497" fill="#0070df" stroke="none" /><path d="M 79.0095281055655 150.63252640178507 l -16.378206813164166 0.4935405109195919 a37.385641295069775,37.385641295069775 0 0,0 -0.013846817832088066,-0.6434072146312064 l 16.38427569368126 -0.21154348049825666" fill="#0065e3" stroke="none" /><line stroke="#FFFFFF" stroke-width="0.3" x1="15.007084014347285" x2="10.007500721073583" y1="151.09737516637583" y2="151.16192664675089" /><path d="M 14.007167355692545 151.11028546245083 a86.0,86.0 0 0,1 10.666146001902534,-42.60595125391555" fill="none" id="id10" stroke="none" /><text fill="#FFFFFF" style="font-size:6.75px; font-family:Arial;" text-anchor="middle"><textPath startOffset="22.20632615414155" xlink:href="#id10">October</textPath></text><path d="M 79.00175016825051 150.2711162175752 l -21.398351344043217 0.27628207708865676 a42.40013486007125,42.40013486007125 0 0,0 -0.0031410478441547913,-0.7298688988000804 l 21.399936689176876 0.09209629991509902" fill="#0084d8" stroke="none" /><path d="M 79.01574976396665 149.18683210126434 l -16.332368540367767 -0.6329012310643151 a37.34462682677942,37.34462682677942 0 0,0 0.030420562708222812,-0.6421299987837366 l 16.319054369426045 0.9139423364710607" fill="#0064e3" stroke="none" /><path d="M 79.12142395522702 147.74499172005258 l -62.635728134318974 -6.7650248398422725 a84.0,84.0 0 0,0 0.16763858798564435,-1.436225046700553 l 62.50999919332974 7.842193624867687" fill="#ffa500" stroke="none" /><path d="M 79.3925641242962 145.9585167786126 l -17.36547314775039 -3.4056769013573307 a38.69627906656308,38.69627906656308 0 0,0 0.13381671577541274,-0.6525378301602149 l 17.30427713605998 3.7040903876809486" fill="#006de0" stroke="none" /><path d="M 79.54389044137918 145.25157060432596 l -21.277406127094444 -4.939075068407201 a42.84313333816094,42.84313333816094 0 0,0 0.17293773529183018,-0.7169385608102572 l 21.189235591541802 5.304598860876855" fill="#0087d7" stroke="none" /><path d="M 79.62865764111835 144.90015583598534 l -10.886433435295793 -2.725353736825379 a32.222387710819575,32.222387710819575 0 0,0 0.13932909523997847,-0.5368918398745778 l 10.837908008185508 2.9123420022488204" fill="#0041ee" stroke="none" /><path d="M 79.81627453868168 144.20196356495316 l -18.26527873110197 -5.246937775792473 a40.003967037118436,40.003967037118436 0 0,0 0.19581770969302076,-0.6601999708869222 l 18.17225512429724 5.560567133425935" fill="#0076dd" stroke="none" /><path d="M 80.14247586403 143.16781622104844 l -19.277990001763477 -6.6327891472762985 a41.387123151153986,41.387123151153986 0 0,0 0.23757572333412474,-0.6716585621565445 l 19.160961197619542 6.9636453358594546" fill="#007eda" stroke="none" /><path d="M 80.2630227832202 142.82701384747503 l -13.764163642471077 -5.002293619946777 a35.644969861248704,35.644969861248704 0 0,0 0.21454098254569584,-0.5748631701567325 l 13.676018071423753 5.238479927132851" fill="#0059e7" stroke="none" /><path d="M 80.52162464483688 142.15188598940014 l -16.058983864670232 -6.470392625990133 a38.31349021717477,38.31349021717477 0 0,0 0.2517347976032316,-0.609595779821256 l 15.945227380180802 6.7458629762647" fill="#006be1" stroke="none" /><path d="M 80.803312248108 141.48605970444007 l -23.446305940208347 -10.3986922903766 a46.64882187531792,46.64882187531792 0 0,0 0.3318679002172293,-0.7312269273714862 l 23.263835723027768 10.800741226590157" fill="#009ccf" stroke="none" /><path d="M 81.10775173730289 140.83032412892265 l -15.218226938210623 -7.3864267722663906 a37.91607908485099,37.91607908485099 0 0,0 0.29003992633561143,-0.584702793016384 l 15.088826998921599 7.647289153781736" fill="#0068e2" stroke="none" /><line stroke="#FFFFFF" stroke-width="0.3" x1="26.266209847984243" x2="21.928928074336255" y1="107.71137044288967" y2="105.22380399835377" /><path d="M 25.398753493254645 107.2138571539825 a86.0,86.0 0 0,1 29.58750427330803,-30.492523968695096" fill="none" id="id11" stroke="none" /><text fill="#FFFFFF" style="font-size:6.75px; font-family:Arial;" text-anchor="middle"><textPath startOffset="21.46611528233685" xlink:href="#id11">November</textPath></text><path d="M 81.78341655067845 139.5522209329492 l -16.26549359871369 -9.328768152856822 a39.75079191019813,39.75079191019813 0 0,0 0.3455296426357114,-0.590622164343723 l 16.102504281607654 9.607369729554437" fill="#0074de" stroke="none" /><path d="M 82.34701348167596 138.6258157662244 l -27.472157151247377 -17.70087890868618 a53.68088941082852,53.68088941082852 0 0,0 0.5071651940994175,-0.772447385217377 l 27.163395321790038 18.17114435788123" fill="#00bec0" stroke="none" /><path d="M 82.7489923806493 138.02491185347247 l -13.42913890061441 -9.322071244489544 a37.34756201699,37.34756201699 0 0,0 0.37114118447799177,-0.5249528849824091 l 13.266685096332541 9.55185062980374" fill="#0064e3" stroke="none" /><path d="M 84.5562425177563 135.77008943001954 l -18.921712812436166 -17.434505913563616 a46.72922875265397,46.72922875265397 0 0,0 0.5501424936558957,-0.5868536546560198 l 18.618802996809816 17.757628985097686" fill="#009ccf" stroke="none" /><path d="M 85.57189188830299 134.74124197986015 l -13.907073149769214 -14.707726218704742 a41.24163763427769,41.24163763427769 0 0,0 0.5200219288069567,-0.483303708788903 l 13.651843337167403 14.944934513568294" fill="#007ddb" stroke="none" /><path d="M 85.83668400450813 134.4951465659348 l -13.524356429095148 -14.805372152250392 a41.0526123332557,41.0526123332557 0 0,0 0.525842935625138,-0.47210697957579917 l 13.267502505874038 15.03597814059547" fill="#007cdb" stroke="none" /><path d="M 86.10567301691215 134.25364557470405 l -11.813604316235883 -13.388284357355406 a38.855178659817284,38.855178659817284 0 0,0 0.5053138212706499,-0.43820316636082446 l 11.58139669631846 13.58965251713591" fill="#006ee0" stroke="none" /><path d="M 86.37877921826538 134.01681056812373 l -11.699449507522184 -13.728176110187485 a39.03718209952385,39.03718209952385 0 0,0 0.5151838474875127,-0.43145165637649857 l 11.461408123075561 13.927528923957796" fill="#006fdf" stroke="none" /><path d="M 87.51073957382395 133.11751280151077 l -10.348007688710453 -13.988026622326748 a38.39960206190166,38.39960206190166 0 0,0 0.534768736816863,-0.38853222994515824 l 10.105693635539808 14.164078087088575" fill="#006be1" stroke="none" /><path d="M 87.80319425747018 132.90503203632744 l -9.511068796842094 -13.330655567904222 a37.37579944699981,37.37579944699981 0 0,0 0.5269433499725187,-0.3691574913868006 l 9.280194307285916 13.492397902054964" fill="#0065e3" stroke="none" /><path d="M 88.70189139769569 132.2982277155496 l -11.088201645595708 -17.372892001973774 a41.60984212083236,41.60984212083236 0 0,0 0.6070694618398951,-0.3801468413114845 l 10.787513031383572 17.56118318460819" fill="#007fda" stroke="none" /><line stroke="#FFFFFF" stroke-width="0.3" x1="56.762969772571076" x2="54.21961505331055" y1="76.8183136494355" y2="72.51350856999053" /><path d="M 56.25429882871897 75.9573526335465 a86.0,86.0 0 0,1 42.265352541879196,-11.944610805530505" fill="none" id="id12" stroke="none" /><text fill="#FFFFFF" style="font-size:6.75px; font-family:Arial;" text-anchor="middle"><textPath startOffset="22.20632615414155" xlink:href="#id12">December</textPath></text><path d="M 89.63071344664047 131.7386228237212 l -7.9258145651240905 -13.958172383237162 a37.05145204649404,37.05145204649404 0 0,0 0.5573171983995108,-0.31014641751480193 l 7.684373277652534 14.092534198312148" fill="#0062e4" stroke="none" /><path d="M 89.94658935756843 131.56283822128137 l -11.207271967327026 -20.55325239452569 a44.410235559317,44.410235559317 0 0,0 0.674305885377763,-0.3601908512771506 l 10.851821035420958 20.74312197230459" fill="#0090d4" stroke="none" /><path d="M 90.26544431104013 131.3925169477831 l -7.600623979440032 -14.52849892718783 a37.39654737907151,37.39654737907151 0 0,0 0.5729498533145791,-0.2934871683607632 l 7.3494136385366895 14.657178620861098" fill="#0065e3" stroke="none" /><path d="M 90.58718382345135 131.22770947309562 l -8.080581048266854 -16.11536996145642 a39.0277824224784,39.0277824224784 0 0,0 0.6031255609980802,-0.29595109343620396 l 7.801984220258348 16.25207621502745" fill="#006fdf" stroke="none" /><path d="M 91.56875222667455 130.76684994638697 l -4.934935560484791 -11.257450699053386 a33.291614427232695,33.291614427232695 0 0,0 0.5268259144548537,-0.22555936264702792 l 4.740425888239629 11.3407295896632" fill="#0048ec" stroke="none" /><path d="M 91.90106846888425 130.62456947434976 l -9.733313927904108 -23.285435500955394 a46.2378467086296,46.2378467086296 0 0,0 0.7369787204227684,-0.3006321244940904 l 9.331051337892958 23.449528511633062" fill="#009ad0" stroke="none" /><path d="M 92.23578459929587 130.48803036053334 l -5.6149734402407665 -14.110787199754089 a36.18691022332565,36.18691022332565 0 0,0 0.5807427596145744,-0.22531916835035343 l 5.371247515626515 14.205349071994993" fill="#005de5" stroke="none" /><path d="M 93.25333710446033 130.11325718540243 l -5.289639505166332 -15.591960358760975 a37.464796200493645,37.464796200493645 0 0,0 0.6124908617531802,-0.20192860730098477 l 5.020465821170743 15.680702690321194" fill="#0065e3" stroke="none" /><path d="M 94.28887869178378 129.79150937346287 l -4.519274976246265 -15.991207517309958 a37.617537849290315,37.617537849290315 0 0,0 0.6246340404882877,-0.17073607895302853 l 4.243343046534255 16.066630137089284" fill="#0066e2" stroke="none" /><path d="M 96.75951476605007 129.25152402106235 l -2.3974507090107857 -15.35061722406419 a36.53670554081117,36.53670554081117 0 0,0 0.622221869254216,-0.09169932917082078 l 2.1328598593279207 15.38961103739598" fill="#005fe5" stroke="none" /><path d="M 97.11714578562143 129.19881850522333 l -1.1022677583096885 -7.953392711321323 a29.029411549516453,29.029411549516453 0 0,0 0.49555316574216834,-0.0643370233844225 l 0.9651998640596624 7.971188057869882" fill="#0028f5" stroke="none" /><path d="M 97.83486435360386 129.11191278185805 l -1.7269348412850256 -16.660556877742035 a37.7498196832838,37.7498196832838 0 0,0 0.646914836232774,-0.06143235868220684 l 1.4398948779620153 16.687814780939423" fill="#0067e2" stroke="none" /><path d="M 98.19473922651362 129.07773832637324 l -0.7800847730088963 -9.040875417119894 a30.074467508397568,30.074467508397568 0 0,0 0.5161491971300096,-0.04006311158900165 l 0.6243453865165526 9.052963790897358" fill="#0030f2" stroke="none" /><path d="M 98.55514903715128 129.0497635885617 l -1.1239492540609177 -16.297184410362938 a37.335895495230154,37.335895495230154 0 0,0 0.641533715963657,-0.03869906569950981 l 0.8432534892576377 16.314116745442753" fill="#0064e3" stroke="none" /><path d="M 98.91598698831166 129.02799685794201 l -0.9445656556974265 -18.274166163663967 a39.298561507810504,39.298561507810504 0 0,0 0.6758588458313233,-0.02910390360834826 l 0.6298659774767791 18.28771779379651" fill="#0071df" stroke="none" /><path d="M 99.27714615592234 129.0124445844662 l -0.41140015852894635 -11.944715651478232 a32.95179827829715,32.95179827829715 0 0,0 0.5670429628670396,-0.014645046791161093 l 0.20573056046702773 11.950027490411752" fill="#0046ec" stroke="none" /><path d="M 99.63851952072746 129.00311137660856 l -0.31687140554928894 -18.40573417310207 a39.408461585329505,39.408461585329505 0 0,0 0.6783518848218202,-0.005838788835994523 l 4.508772711540158e-15 18.408461585329505" fill="#ff2a00" stroke="none" /></svg>