<?xml version="1.0" encoding="utf-8" ?>
<svg baseProfile="full" height="300mm" version="1.1" viewBox="0,0,200,300" width="200mm" xmlns="http://www.w3.org/2000/svg" xmlns:ev="http://www.w3.org/2001/xml-events" xmlns:xlink="http://www.w3.org/1999/xlink"><defs /><rect fill="#222222" height="300" width="200" x="0" y="0" /><text fill="#FFFFFF" style="font-size:12px; font-family:Arial; font-weight:bold;" x="10" y="20">My Runs 2016</text><text fill="#FFFFFF" style="font-size:4px; font-family:Arial" x="10" y="280">YEAR</text><text fill="#FFFFFF" style="font-size:9px; font-family:Arial" x="10" y="290">2016</text><text fill="#FFFFFF" style="font-size:4px; font-family:Arial" x="40" y="280">ATHLETE</text><text fill="#FFFFFF" style="font-size:9px; font-family:Arial" x="40" y="290">Florian Pigorsch</text><text fill="#FFFFFF" style="font-size:4px; font-family:Arial" x="120" y="280">STATISTICS</text><text fill="#FFFFFF" style="font-size:3px; font-family:Arial" x="120" y="285">Runs: 168</text><text fill="#FFFFFF" style="font-size:3px; font-family:Arial" x="120" y="290">Weekly: 3.2</text><text fill="#FFFFFF" style="font-size:3px; font-family:Arial" x="139" y="285">Total: 1954.8 km</text><text fill="#FFFFFF" style="font-size:3px; font-family:Arial" x="139" y="290">Avg: 11.6 km</text><text fill="#FFFFFF" style="font-size:3px; font-family:Arial" x="167" y="285">Min: 1.1 km</text><text fill="#FFFFFF" style="font-size:3px; font-family:Arial" x="167" y="290">Max: 25.2 km</text><line stroke="#FFFFFF" stroke-width="0.3" x1="100.0" x2="100.0" y1="65.0" y2="60.0" /><path d="M 100.0 64.0 a86.0,86.0 0 0,1 42.35913384403234,11.155469271406648" fill="none" id="id1" stroke="none" /><text fill="#FFFFFF" style="font-size:4px; font-family:Arial" text-anchor="middle"><textPath startOffset="22.145653131862478" xlink:href="#id1">January</textPath></text><path d="M 100.72087961077811 129.0123766808444 l 0.9781518356742652 -28.47782343838675 a49.49461718994594,49.49461718994594 0 0,0 0.8488898143210264,0.03645498117500864 l -1.466867410596128 28.45683588878591" fill="#4DD2FF" stroke="none" /><path d="M 101.44090949804482 129.04949213459386 l 2.03154521792266 -29.53822160570778 a50.60800080384298,50.60800080384298 0 0,0 0.8661945048257653,0.06704893287043007 l -2.5383087175236585 29.498994905842295" fill="#4DD2FF" stroke="none" /><path d="M 102.15924093988457 129.11130261209362 l 3.8432636547326484 -37.18008953180608 a58.37819863386818,58.37819863386818 0 0,0 0.9959434618920184,0.11159754224426814 l -4.480943018225464 37.108636229054845" fill="#4DD2FF" stroke="none" /><path d="M 102.87502721639298 129.19773525538625 l 3.255856974761558 -23.557759166036842 a44.781686684612936,44.781686684612936 0 0,0 0.760595398521152,0.11178133104157804 l -3.6597774788903923 23.49839676169638" fill="#4DD2FF" stroke="none" /><path d="M 103.94208987418118 129.37332000966035 l 5.455447224933374 -28.54520513342197 a50.061841657630254,50.061841657630254 0 0,0 0.8427160460364305,0.16856681084664032 l -5.94465975650076 28.447348925912472" fill="#4DD2FF" stroke="none" /><path d="M 104.29559338865022 129.4440306129975 l 7.35573821241539 -35.19987015361515 a56.960224463717616,56.960224463717616 0 0,0 0.9554062768538844,0.2082263512597944 l -7.958906905888408 35.06841234422164" fill="#4DD2FF" stroke="none" /><path d="M 105.69591212413111 129.7872172852381 l 6.719375494285777 -23.844693156254138 a45.77336066723934,45.77336066723934 0 0,0 0.7544757378385989,0.21961689143759808 l -7.1277112445059805 23.725832570514022" fill="#FFFF00" stroke="none" /><path d="M 106.38641147887787 129.99465700312896 l 10.298612450006495 -32.260256818031756 a54.864222837100414,54.864222837100414 0 0,0 0.8947499446825886,0.29412207880928243 l -10.850885132336826 32.07871381782045" fill="#4DD2FF" stroke="none" /><path d="M 108.73861861582097 130.90454125486303 l 11.365402414390028 -24.835455404009032 a48.31249196183944,48.31249196183944 0 0,0 0.751170185072989,0.3515855754203147 l -11.79006131333452 24.636693597018184" fill="#4DD2FF" stroke="none" /><path d="M 109.3889696526874 131.2157712731953 l 11.575381424278175 -23.158516889168098 a46.89027538716822,46.89027538716822 0 0,0 0.7169138568177853,0.36606132350463133 l -11.971222502809539 22.956397613990635" fill="#4DD2FF" stroke="none" /><path d="M 110.02825361518725 131.54914285379988 l 20.284483923437858 -37.32116573008672 a63.47740222156727,63.47740222156727 0 0,0 0.9529342843381883,0.528576583922048 l -20.922162395932144 36.96745623073152" fill="#4DD2FF" stroke="none" /><line stroke="#FFFFFF" stroke-width="0.3" x1="143.13028292997686" x2="145.6673583964461" y1="76.7553504044142" y2="72.44684160467386" /><path d="M 143.63769802327073 75.89364864446614 a86.0,86.0 0 0,1 29.32050498858742,28.57503671076993" fill="none" id="id2" stroke="none" /><text fill="#FFFFFF" style="font-size:4px; font-family:Arial" text-anchor="middle"><textPath startOffset="20.669276256404974" xlink:href="#id2">February</textPath></text><path d="M 110.65571695917076 131.90426304109056 l 13.142618760035258 -22.319039905441933 a46.90111909111921,46.90111909111921 0 0,0 0.6902666472316052,0.41448528869091206 l -13.523818163824297 22.090140616215102" fill="#4DD2FF" stroke="none" /><path d="M 110.96478420261332 132.08984904055464 l 17.42332388979166 -28.459690160350345 a54.369539694034245,54.369539694034245 0 0,0 0.7918169304584414,0.49415232713303886 l -17.909304949039814 28.15640203637576" fill="#4DD2FF" stroke="none" /><path d="M 111.27062007382361 132.2807132437131 l 17.991768810491944 -28.28604892346183 a54.523190609347836,54.523190609347836 0 0,0 0.7854308825960732,0.509106808792062 l -18.474685325345025 27.973028272965873" fill="#4DD2FF" stroke="none" /><path d="M 112.16784306229584 132.88440491214698 l 19.313193519060263 -27.166425342045233 a54.33187828145286,54.33187828145286 0 0,0 0.7555209619159249,0.5469389123119586 l -19.776695491350157 26.830885658360202" fill="#4DD2FF" stroke="none" /><path d="M 112.45986205192187 133.09580414077388 l 12.39642468633359 -16.818130889306786 a41.89308190798562,41.89308190798562 0 0,0 0.5752259501659097,0.4316602768646775 l -12.683303625410266 16.602851585178094" fill="#4DD2FF" stroke="none" /><path d="M 113.03279911837588 133.53348406188908 l 18.593437319890874 -23.49220065400683 a50.959963333369245,50.959963333369245 0 0,0 0.6812843070746494,0.5487944121936577 l -18.993972397320782 23.169557948019765" fill="#4DD2FF" stroke="none" /><path d="M 113.31354834802062 133.75963576809568 l 22.074143278932436 -26.926865594806223 a55.81844184135179,55.81844184135179 0 0,0 0.735808444227518,0.6138375741087652 l -22.533126057321848 26.54396583678559" fill="#4DD2FF" stroke="none" /><path d="M 113.59037401385872 133.9905735841838 l 16.545817795618945 -19.49093175937205 a46.56678523738013,46.56678523738013 0 0,0 0.6049702178206289,0.5225588654020897 l -16.877967493202434 19.204028761505242" fill="#4DD2FF" stroke="none" /><path d="M 114.39649973595853 134.71141617570333 l 20.574350332100614 -21.84924707059868 a51.011555926677204,51.011555926677204 0 0,0 0.6323672165016421,0.6057934886834183 l -20.94639003446757 21.492841451609678" fill="#4DD2FF" stroke="none" /><path d="M 114.91283532996326 135.2146240351691 l 21.37405312216888 -21.191370005177532 a51.09857653719915,51.09857653719915 0 0,0 0.6122417285316549,0.6282139490259295 l -21.734681651851346 20.82133336408386" fill="#4DD2FF" stroke="none" /><path d="M 115.41159269507618 135.73525988315686 l 18.96654784259884 -17.5551535289914 a46.84401966591207,46.84401966591207 0 0,0 0.5411650891789797,0.594835231177915 l -19.265110632619695 17.226980722255814" fill="#4DD2FF" stroke="none" /><path d="M 116.1254893667686 136.54754324733833 l 25.833335129826708 -21.551086959703824 a54.64239220202177,54.64239220202177 0 0,0 0.5946996448658328,0.7254368699266479 l -26.199481593931168 21.104447808078678" fill="#4DD2FF" stroke="none" /><path d="M 116.35404254752997 136.82634096563982 l 21.442000296384283 -17.272157639205787 a48.53337622275406,48.53337622275406 0 0,0 0.5170735950158496,0.6533055958408638 l -21.73534032204169 16.901532099450247" fill="#4DD2FF" stroke="none" /><path d="M 116.7966241395341 137.39550010848427 l 20.430373670789596 -15.331333283274631 a46.54309982306253,46.54309982306253 0 0,0 0.47407024068864156,0.6431673293200804 l -20.69054593106206 14.978359644685675" fill="#4DD2FF" stroke="none" /><path d="M 117.42321728460499 138.27688183743584 l 35.2659798354665 -23.728525103976036 a63.50567300214821,63.50567300214821 0 0,0 0.6008107245437525,0.9097040132698181 l -35.668114998930974 23.119641212367156" fill="#4DD2FF" stroke="none" /><path d="M 117.81537515405839 138.8818882844181 l 21.17772948604518 -13.216469497392847 a45.963399050602526,45.963399050602526 0 0,0 0.41198972208778767,0.6729542488007694 l -21.40148717258837 12.850978132467523" fill="#4DD2FF" stroke="none" /><line stroke="#FFFFFF" stroke-width="0.3" x1="172.87174338648825" x2="177.1583165268699" y1="106.2426118716644" y2="103.66864786411523" /><path d="M 173.72905801456457 105.72781907015455 a86.0,86.0 0 0,1 12.242430191666344,42.057860355516425" fill="none" id="id3" stroke="none" /><text fill="#FFFFFF" style="font-size:4px; font-family:Arial" text-anchor="middle"><textPath startOffset="22.145653131862474" xlink:href="#id3">March</textPath></text><path d="M 118.18653347947321 139.5 l 25.95400744399056 -14.984553184337503 a50.969106368675,50.969106368675 0 0,0 0.430972033607294,0.7614862884414145 l -26.207412842619227 14.53681012579697" fill="#4DD2FF" stroke="none" /><path d="M 118.70294669586156 140.4501421533218 l 27.903123037204182 -14.247533440419575 a52.330121039747496,52.330121039747496 0 0,0 0.40164635480127664,0.8035617618292211 l -28.143589305217194 13.766439822426603" fill="#4DD2FF" stroke="none" /><path d="M 119.16976305983485 141.42560881287824 l 26.145104154236684 -11.694372535890846 a49.6413131724801,49.6413131724801 0 0,0 0.34126303210908515,0.7808766022383782 l -26.342001068362737 11.243833863876619" fill="#4DD2FF" stroke="none" /><path d="M 119.4528033332814 142.0887142336611 l 26.760813612751985 -10.883389926016386 a49.88925962184159,49.88925962184159 0 0,0 0.3158259180517451,0.7960876262498793 l -26.943698205769852 10.422401282552942" fill="#4DD2FF" stroke="none" /><path d="M 119.83427380445688 143.10060997987247 l 41.21553925927384 -14.33690404010205 a64.63791349145646,64.63791349145646 0 0,0 0.35555339654321594,1.0511304391817322 l -41.45557807738942 13.627271926446157" fill="#FFFF00" stroke="none" /><path d="M 120.05942366710727 143.78553927170694 l 32.20974950035602 -9.978662730292971 a54.72004852844407,54.72004852844407 0 0,0 0.2702745144262055,0.8996559565029764 l -32.37630033478585 9.42426917019927" fill="#4DD2FF" stroke="none" /><path d="M 120.26092885502905 144.4777937442132 l 17.72663919498541 -4.831474339456376 a39.373265399542305,39.373265399542305 0 0,0 0.17213713994024418,0.6536327583230657 l -17.806965815730386 4.526461076760512" fill="#4DD2FF" stroke="none" /><path d="M 120.43855184770803 145.17655741523228 l 36.68006336258331 -8.656395078935216 a58.68766673655641,58.68766673655641 0 0,0 0.2229827793381255,0.9825032688477098 l -36.82325700347911 8.02545747614848" fill="#4DD2FF" stroke="none" /><path d="M 120.592083275326 145.88100663000787 l 28.426565924735076 -5.686109317357279 a49.989679015854016,49.989679015854016 0 0,0 0.16109461555369994,0.8429151006819928 l -28.519986832570932 5.197291651641971" fill="#4DD2FF" stroke="none" /><path d="M 120.7213421655516 146.59031103205396 l 28.632028468590324 -4.711389388741877 a50.017068153046,50.017068153046 0 0,0 0.132136776607128,0.8484128943455012 l -28.708686737335714 4.219188312464935" fill="#4DD2FF" stroke="none" /><path d="M 120.82617615685814 147.30363454192243 l 26.304037808578812 -3.4055843195037223 a47.52358214103806,47.52358214103806 0 0,0 0.09780333683824627,0.8099519306441472 l -26.35862323167672 2.953538711936162" fill="#4DD2FF" stroke="none" /><path d="M 120.9064616781168 148.02013634271609 l 25.304957549046506 -2.396405789359873 a46.418175333141505,46.418175333141505 0 0,0 0.06831512573945203,0.7939253142328879 l -25.3423662974837 1.9616594277513233" fill="#4DD2FF" stroke="none" /><path d="M 120.96210409425399 148.7389718711861 l 21.016625920231856 -1.2643080264751019 a42.05462039213177,42.05462039213177 0 0,0 0.037165090975484386,0.7209928361905511 l -21.035232600663914 0.9033433969078202" fill="#4DD2FF" stroke="none" /><path d="M 120.98066250479742 149.09900007780936 l 25.79966283487429 -1.107948531246391 a46.823441915071754,46.823441915071754 0 0,0 0.027593083313519697,0.8033425139783885 l -25.81488060518466 0.6648997527038825" fill="#4DD2FF" stroke="none" /><line stroke="#FFFFFF" stroke-width="0.3" x1="184.99686870605535" x2="189.99668451229388" y1="149.2704041080226" y2="149.22748670261217" /><path d="M 185.99683186730306 149.2618206269405 a86.0,86.0 0 0,1 -10.086455211305974,41.156179273409016" fill="none" id="id4" stroke="none" /><text fill="#FFFFFF" style="font-size:4px; font-family:Arial" text-anchor="middle"><textPath startOffset="21.40746469413373" xlink:href="#id4">April</textPath></text><path d="M 120.99303781780057 150.54070618675476 l 52.593714704546635 1.3546275280393067 a73.61115701220575,73.61115701220575 0 0,0 -0.04337910040716072,1.2629351776040652 l -52.562710917142624 -2.2572689702074826" fill="#FFFF00" stroke="none" /><path d="M 120.93736805541906 151.62068470465957 l 29.279092937311162 2.2663869672733075 a50.36667827857163,50.36667827857163 0 0,0 -0.07412626487328751,0.861459559584028 l -29.235873049740132 -2.768667574232993" fill="#4DD2FF" stroke="none" /><path d="M 120.86939407059847 152.338459135001 l 22.24958672499172 2.4931126007321303 a43.38883024797984,43.38883024797984 0 0,0 -0.08929403442625186,0.7394826998404216 l -22.2035106043058 -2.8746889774959605" fill="#4DD2FF" stroke="none" /><path d="M 120.82617615685814 152.69636545807757 l 38.945812766728885 5.042315184988168 a60.27087055930725,60.27087055930725 0 0,0 -0.14165228352823606,1.0249253596041856 l -38.85351596664544 -5.710128852792439" fill="#4DD2FF" stroke="none" /><path d="M 120.7213421655516 153.40968896794604 l 29.24253659890314 4.811848269259252 a50.635786314936254,50.635786314936254 0 0,0 -0.14849591150617014,0.8564849563147477 l -29.155625869904735 -5.313126258494587" fill="#4DD2FF" stroke="none" /><path d="M 120.592083275326 154.11899336999213 l 33.73899717552433 6.748744350829552 a55.40734631910593,55.40734631910593 0 0,0 -0.1945649787960997,0.9310638568544966 l -33.61817448590387 -7.3269246589694585" fill="#4DD2FF" stroke="none" /><path d="M 120.35273937422433 155.1735867601596 l 32.69490251676968 8.310916367341104 a54.734670317731144,54.734670317731144 0 0,0 -0.23929611904061024,0.9086463409280157 l -32.54741691692434 -8.870943212641922" fill="#4DD2FF" stroke="none" /><path d="M 120.16314734710363 155.8691983318838 l 12.81361025676779 3.729855198188275 a34.34542721728296,34.34542721728296 0 0,0 -0.16963971914400408,0.5646754527018811 l -12.747694217620156 -3.9492682544808795" fill="#4DD2FF" stroke="none" /><path d="M 120.05942366710727 156.21446072829306 l 34.57658328527689 10.711913887000255 a57.19786196457186,57.19786196457186 0 0,0 -0.29861446921043716,0.9354055716799892 l -34.387604100289195 -11.303888492371629" fill="#4DD2FF" stroke="none" /><path d="M 119.4528033332814 157.9112857663389 l 32.894896827296044 13.378068168186974 a56.51122280619338,56.51122280619338 0 0,0 -0.37317362365996976,0.8954808476962793 l -32.66039735909958 -13.94078152532453" fill="#4DD2FF" stroke="none" /><path d="M 119.0197475246899 158.90220220490707 l 27.285217524807845 12.7708595130089 a51.1260343901598,51.1260343901598 0 0,0 -0.37887006711255844,0.7916927239366446 l -27.061968199735375 -13.23736473901065" fill="#4DD2FF" stroke="none" /><path d="M 118.8641267826498 159.22738970284198 l 28.251514247154265 13.819231319715827 a52.45026568289965,52.45026568289965 0 0,0 -0.4025684940398792,0.8054066580230015 l -28.010125839902656 -14.302169833902575" fill="#4DD2FF" stroke="none" /><path d="M 118.5362547648365 159.86951160357373 l 49.295815917098246 26.247245377981123 a76.84796645236412,76.84796645236412 0 0,0 -0.6299873713037574,1.1591058062424844 l -48.83798319617915 -27.089606017698213" fill="#4DD2FF" stroke="none" /><line stroke="#FFFFFF" stroke-width="0.3" x1="174.33088141563837" x2="178.70328620479359" y1="191.23008692659167" y2="193.65538615756765" /><path d="M 175.20536237346943 191.71514677278685 a86.0,86.0 0 0,1 -30.301960400862466,31.631185727798858" fill="none" id="id5" stroke="none" /><text fill="#FFFFFF" style="font-size:4px; font-family:Arial" text-anchor="middle"><textPath startOffset="22.145653131862474" xlink:href="#id5">May</textPath></text><path d="M 118.18653347947321 160.5 l 25.09574183115463 14.489033301730469 a49.97806660346095,49.97806660346095 0 0,0 -0.43534772850755193,0.7393156191101103 l -24.843320392517313 -14.91770008913413" fill="#4DD2FF" stroke="none" /><path d="M 117.62189284568427 161.42229804090323 l 28.31075119199543 18.350686881859254 a54.737906605050526,54.737906605050526 0 0,0 -0.5178611574792035,0.7841077963998292 l -27.9915655955955 -18.833974556598143" fill="#4DD2FF" stroke="none" /><path d="M 117.423217284605 161.72311816256416 l 16.505247480432793 11.105467110626384 a40.89358173219537,40.89358173219537 0 0,0 -0.3968824597810927,0.5790633697966231 l -16.312175283836382 -11.38716521549305" fill="#4DD2FF" stroke="none" /><path d="M 117.01052211995028 162.3143062007846 l 36.845382476961696 26.673215478447414 a66.4867303049283,66.4867303049283 0 0,0 -0.6772084446047075,0.9187633167538938 l -36.38207201277316 -27.301785104470188" fill="#FFFF00" stroke="none" /><path d="M 116.57777611688842 162.89097897827486 l 25.965490274086306 20.190922287993388 a53.89194472835953,53.89194472835953 0 0,0 -0.5741636739877883,0.7254370456361658 l -25.615060169456957 -20.633679277544235" fill="#4DD2FF" stroke="none" /><path d="M 115.41159269507618 164.26474011684314 l 22.00840437656298 20.370650524547393 a50.98888570780114,50.98888570780114 0 0,0 -0.600076459379602,0.6372604048536372 l -21.655472083447115 -20.745452389345527" fill="#4DD2FF" stroke="none" /><path d="M 114.91283532996324 164.78537596483093 l 21.935427659785155 21.747946498653793 a51.889094572777225,51.889094572777225 0 0,0 -0.6325727365605409,0.6271661644622056 l -21.55886300309465 -22.12129267334466" fill="#4DD2FF" stroke="none" /><path d="M 114.65682725009322 165.03919595460226 l 21.41439706650304 21.973057895647287 a51.682106756337994,51.682106756337994 0 0,0 -0.6406797322438585,0.6137566907277483 l -21.03404484839387 -22.337426716680614" fill="#4DD2FF" stroke="none" /><path d="M 113.86319453409587 165.7737705482809 l 28.43002095560562 32.34814502051478 a64.06586325390947,64.06586325390947 0 0,0 -0.8323086734463493,0.718928408785562 l -27.870532802396415 -32.83141756176506" fill="#4DD2FF" stroke="none" /><path d="M 113.03279911837588 166.46651593811092 l 19.206185541755058 24.2663880154271 a51.94729633392205,51.94729633392205 0 0,0 -0.7039849495105216,0.5474229547542845 l -18.786790647609305 -24.592512021802175" fill="#4DD2FF" stroke="none" /><path d="M 112.7482090630111 166.68781488649012 l 27.44147478627527 35.92177137840911 a66.20407279669027,66.20407279669027 0 0,0 -0.9090355482314134,0.6821572224205624 l -26.82078624913309 -36.387547628093685" fill="#4DD2FF" stroke="none" /><path d="M 112.45986205192187 166.90419585922612 l 7.79001222760793 10.568647701917307 a34.12937945043569,34.12937945043569 0 0,0 -0.4745917573180807,0.3435678328256029 l -7.607439459915881 -10.700816306115987" fill="#4DD2FF" stroke="none" /><path d="M 112.16784306229584 167.11559508785302 l 17.529381250091117 24.657269992809518 a51.25326710471698,51.25326710471698 0 0,0 -0.7214627309303272,0.5036370178087216 l -17.10352342798703 -24.95455182642336" fill="#4DD2FF" stroke="none" /><path d="M 111.5731344415666 167.5232005979908 l 11.839139975435332 17.925966879994377 a42.48267962663425,42.48267962663425 0 0,0 -0.6119819508228227,0.39667930676718727 l -11.5296723923555 -18.12656002846546" fill="#4DD2FF" stroke="none" /><path d="M 110.96478420261333 167.91015095944536 l 15.541287984667509 25.3855259498193 a50.765022425177506,50.765022425177506 0 0,0 -0.7471335973452156,0.44863225831394427 l -15.103221630764857 -25.648572208669165" fill="#4DD2FF" stroke="none" /><line stroke="#FFFFFF" stroke-width="0.3" x1="143.1302829299769" x2="145.66735839644613" y1="223.24464959558577" y2="227.55315839532614" /><path d="M 143.63769802327073 224.10635135553383 a86.0,86.0 0 0,1 -40.68552437913181,11.842963189579606" fill="none" id="id6" stroke="none" /><text fill="#FFFFFF" style="font-size:4px; font-family:Arial" text-anchor="middle"><textPath startOffset="21.407464694133747" xlink:href="#id6">June</textPath></text><path d="M 110.65571695917076 168.0957369589094 l 16.094645658598004 27.33222695392502 a52.71889419788611,52.71889419788611 0 0,0 -0.7837731359357513,0.45251163101610486 l -15.623080054801855 -27.604485482217296" fill="#4DD2FF" stroke="none" /><path d="M 109.3889696526874 168.7842287268047 l 13.318290106171327 26.645501781194433 a50.78858198242704,50.78858198242704 0 0,0 -0.7832077014058155,0.38310613379599956 l -12.858922155503443 -26.870201665087656" fill="#4DD2FF" stroke="none" /><path d="M 108.4095320186766 169.2426549942271 l 8.919645120911706 20.409893600673346 a43.273837250770484,43.273837250770484 0 0,0 -0.6832422188161291,0.29163547511891574 l -8.567967826925145 -20.560003725451665" fill="#4DD2FF" stroke="none" /><path d="M 108.07796709384702 169.3841803445677 l 15.600154775200442 37.434692423541684 a61.555160286397324,61.555160286397324 0 0,0 -0.9788605318261776,0.39809405667605136 l -14.955239782183824 -37.69697373679703" fill="#4DD2FF" stroke="none" /><path d="M 107.407793817531 169.65005319985036 l 5.859842486116817 15.543928385592796 a37.61178688818687,37.61178688818687 0 0,0 -0.6061065099350238,0.22257070589808897 l -5.592146824527665 -15.642229940499607" fill="#4DD2FF" stroke="none" /><path d="M 107.06938296918513 169.77432235084166 l 12.864864780563714 35.985316438469894 a59.21580491104434,59.21580491104434 0 0,0 -0.9601257036151737,0.33398155954174524 l -12.245233304903518 -36.20085643058023" fill="#4DD2FF" stroke="none" /><path d="M 106.72888874123015 169.89276391827306 l 11.140260713269075 32.93420130417553 a55.767326965177574,55.767326965177574 0 0,0 -0.909478165130367,0.2989635374100961 l -10.573259810490974 -33.120585762987645" fill="#4DD2FF" stroke="none" /><path d="M 106.0420521117495 170.11202640906438 l 10.807797236961518 35.97564195629615 a58.564015963191274,58.564015963191274 0 0,0 -0.9653022743039242,0.2809854235837857 l -10.188634950275986 -36.15587107418246" fill="#4DD2FF" stroke="none" /><path d="M 105.3480935250658 170.30758222061772 l 7.217534732706379 27.40615498357343 a49.34060935480163,49.34060935480163 0 0,0 -0.8209213208381492,0.2086749895692007 l -6.746008118642832 -27.5260152049779" fill="#4DD2FF" stroke="none" /><path d="M 104.9986988182912 170.39639698878244 l 4.932766542458489 20.127370803940693 a41.723012359252266,41.723012359252266 0 0,0 -0.6971077850464403,0.1645155391448713 l -4.58652660367217 -20.20908248673179" fill="#4DD2FF" stroke="none" /><path d="M 104.64783097203109 170.47920084513623 l 12.050964275886153 53.09877215168743 a75.44910783470654,75.44910783470654 0 0,0 -1.2655243529494884,0.27581514255153505 l -11.13767750631753 -53.297818752372685" fill="#4DD2FF" stroke="none" /><path d="M 103.94208987418118 170.62667999033965 l 4.894672798773179 25.610996375034556 a47.0745269780505,47.0745269780505 0 0,0 -0.7950333168394395,0.14488155428136623 l -4.4543047483826825 -25.691246103247288" fill="#4DD2FF" stroke="none" /><path d="M 102.875027216393 170.80226474461375 l 2.6806311395141735 19.395711570616 a40.58007688025408,40.58007688025408 0 0,0 -0.6908703559080109,0.08944699927867755 l -2.347282961715387 -19.43887016609507" fill="#4DD2FF" stroke="none" /><path d="M 102.15924093988457 170.88869738790638 l 4.638241085505805 44.870775029147396 a66.1098629135983,66.1098629135983 0 0,0 -1.129850412583201,0.10699800877267467 l -3.867291109537588 -44.94378479342526" fill="#4DD2FF" stroke="none" /><path d="M 101.80034050326958 170.9226856324012 l 2.307454630522053 26.81612048263308 a47.91521251283391,47.91521251283391 0 0,0 -0.8201053809069567,0.06348134319112314 l -1.8467802548398604 -26.85177959281926" fill="#4DD2FF" stroke="none" /><path d="M 101.44090949804482 170.95050786540614 l 1.7996090129282216 26.16592008808857 a47.22773277764682,47.22773277764682 0 0,0 -0.8092936369530909,0.04868509554571576 l -1.3501710238426656 -26.192957161458978" fill="#4DD2FF" stroke="none" /><path d="M 101.08105385017728 170.97215588758144 l 0.14457397654931659 2.8046965218084097 a23.80842023460512,23.80842023460512 0 0,0 -0.4083418880616532,0.017535957660372248 l -0.09640632788683377 -2.8067650478946127" fill="#4DD2FF" stroke="none" /><line stroke="#FFFFFF" stroke-width="0.3" x1="101.45913802915013" x2="101.54496967792366" y1="234.9874750549273" y2="239.98673829345242" /><path d="M 101.47630435890484 235.9873277026323 a86.0,86.0 0 0,1 -42.54439059252881,-10.42667462771756" fill="none" id="id7" stroke="none" /><text fill="#FFFFFF" style="font-size:4px; font-family:Arial" text-anchor="middle"><textPath startOffset="22.145653131862474" xlink:href="#id7">July</textPath></text><path d="M 100.36049292484886 170.99690560180557 l 0.4527581234374766 26.37089086353959 a47.37477724749641,47.37477724749641 0 0,0 -0.8132510482863257,0.006980782151257571 l -3.2299786534370917e-15 -26.37477724749641" fill="#4DD2FF" stroke="none" /><path d="M 99.63950707515114 170.99690560180557 l -1.0604705859211843 61.76709513900908 a82.77619800355961,82.77619800355961 0 0,0 -1.420544746301274,-0.03658819364559427 l 2.120628646293202 -61.739789228013436" fill="#4DD2FF" stroke="none" /><path d="M 99.27912038922189 170.9876233191556 l -0.7086303286753153 20.630998835871992 a41.64316521051144,41.64316521051144 0 0,0 -0.7142283502795034,-0.03067203849645243 l 1.0626844395556574 -20.61579422894971" fill="#4DD2FF" stroke="none" /><path d="M 98.91894614982273 170.97215588758144 l -1.340307019795055 26.001598118125543 a47.03611967255915,47.03611967255915 0 0,0 -0.80601015799736,-0.04848756960533398 l 1.7864615299248614 -25.974758570695517" fill="#4DD2FF" stroke="none" /><path d="M 97.12497278360702 170.80226474461375 l -4.316893391463681 31.234890122593683 a52.531792361420926,52.531792361420926 0 0,0 -0.8922272139404206,-0.13112667491769772 l 4.852445711011787 -31.1561823743771" fill="#FFFF00" stroke="none" /><path d="M 96.76829788921471 170.74984581791261 l -2.314097617553166 14.8581667263135 a36.03729251728831,36.03729251728831 0 0,0 -0.6104416989265212,-0.10044794925804729 l 2.5688168195327505 -14.816252778559786" fill="#4DD2FF" stroke="none" /><path d="M 96.41257539226777 170.6913118164083 l -3.1111318435164397 17.94418172228827 a39.21188620188053,39.21188620188053 0 0,0 -0.6622425746550278,-0.12068265756300066 l 3.4187091517225245 -17.888130890793907" fill="#4DD2FF" stroke="none" /><path d="M 96.05791012581884 170.62667999033965 l -6.6384115472475544 34.73497434091171 a56.36363881636652,56.36363881636652 0 0,0 -0.9487973528499654,-0.18978604318961126 l 7.233705385628477 -34.61589890105924" fill="#4DD2FF" stroke="none" /><path d="M 94.6519064749342 170.30758222061772 l -15.991875404564567 60.72375569312302 a83.79422413274335,83.79422413274335 0 0,0 -1.3878661736959501,-0.37826909720757507 l 17.031922979195212 -60.4402861017713" fill="#4DD2FF" stroke="none" /><path d="M 93.95794788825049 170.11202640906438 l -6.488466535089726 21.59799483594146 a43.551575973983134,43.551575973983134 0 0,0 -0.7141615780877999,-0.22124908244297542 l 6.858268746049159 -21.483429165691838" fill="#4DD2FF" stroke="none" /><path d="M 92.25597844496254 169.5199930879884 l -23.232064665112382 58.55997926396522 a84.0,84.0 0 0,0 -1.3357821552382365,-0.5432509736828348 l 24.233901281541062 -58.152541033703095" fill="#4DD2FF" stroke="none" /><path d="M 91.59046798132341 169.2426549942271 l -11.465705591702264 26.235778218872625 a49.63177366956968,49.63177366956968 0 0,0 -0.777769119388475,-0.3478862342786515 l 11.914388113946375 -26.035088233684117" fill="#4DD2FF" stroke="none" /><path d="M 90.93487009805054 168.9426349767075 l -9.122848396503159 19.06324443134978 a42.13370888213824,42.13370888213824 0 0,0 -0.6497414181931513,-0.3178210865959487 l 9.448750063958379 -18.90382959465661" fill="#4DD2FF" stroke="none" /><line stroke="#FFFFFF" stroke-width="0.3" x1="58.13341422392154" x2="55.67067388415222" y1="223.97424548756322" y2="228.32567169271397" /><path d="M 57.64086615596768 224.84453072859336 a86.0,86.0 0 0,1 -31.369924170532247,-30.572349798747897" fill="none" id="id8" stroke="none" /><text fill="#FFFFFF" style="font-size:4px; font-family:Arial" text-anchor="middle"><textPath startOffset="22.145653131862474" xlink:href="#id8">August</textPath></text><path d="M 89.65649057296885 168.27599006163325 l -8.196563735902457 14.48254274177168 a37.641144832731754,37.641144832731754 0 0,0 -0.5596118540541166,-0.32309205457985224 l 8.443968057816972 -14.339703789915655" fill="#4DD2FF" stroke="none" /><path d="M 88.72937992617639 167.7192867562869 l -13.733627084246622 21.591542871262508 a46.58920155946096,46.58920155946096 0 0,0 -0.671138231114813,-0.43502369294655324 l 14.102250947618446 -21.35260533661206" fill="#4DD2FF" stroke="none" /><path d="M 87.83215693770417 167.11559508785305 l -15.139116057138072 21.295062657810096 a47.12800276698458,47.12800276698458 0 0,0 -0.655346273862302,-0.47442016341278953 l 15.502443341374327 -21.032041723024243" fill="#4DD2FF" stroke="none" /><path d="M 87.2517909369889 166.68781488649012 l -16.37420381675139 21.434358415131463 a47.97306566374747,47.97306566374747 0 0,0 -0.6501265434887485,-0.5055423324720929 l 16.73974030487537 -21.150115031038574" fill="#4DD2FF" stroke="none" /><path d="M 86.68645165197938 166.24036423190432 l -25.149047897225838 30.67774925662686 a60.668613658526425,60.668613658526425 0 0,0 -0.7997442557855461,-0.6671751020664083 l 25.671966487173275 -30.241511970648585" fill="#4DD2FF" stroke="none" /><path d="M 86.13680546590413 165.77377054828094 l -4.308548619749391 4.902337419913567 a27.52659968034115,27.52659968034115 0 0,0 -0.35225523936858505,-0.3149888071569828 l 4.392068885941348 -4.827653082873202" fill="#4DD2FF" stroke="none" /><path d="M 85.86807049272751 165.5334660781643 l -40.35309795634785 44.35512347632349 a80.96456864911569,80.96456864911569 0 0,0 -1.020038782998216,-0.9441326692483485 l 41.10856651066004 -43.65587306094277" fill="#4DD2FF" stroke="none" /><path d="M 85.34317274990678 165.03919595460226 l -17.283137418796493 17.734021552989667 a45.76292308026065,45.76292308026065 0 0,0 -0.55788943176275,-0.5531211746732573 l 17.585018770689206 -17.43472036808775" fill="#4DD2FF" stroke="none" /><path d="M 84.58840730492382 164.26474011684314 l -19.671742039920975 18.207870750094692 a47.80492477395428,47.80492477395428 0 0,0 -0.5522659362496327,-0.6070370066907457 l 19.98140567701249 -17.86749616784627" fill="#4DD2FF" stroke="none" /><path d="M 84.1078160697243 163.72728997021213 l -18.76428005623119 16.20813819826493 a45.79520013798498,45.79520013798498 0 0,0 -0.5087747217843687,-0.599335342966144 l 19.039749341522672 -15.88363607284923" fill="#4DD2FF" stroke="none" /><path d="M 83.20337586046588 162.60449989151573 l -24.783113985588127 18.59771076305288 a51.98511875802361,51.98511875802361 0 0,0 -0.5295005673350469,-0.7183692131184032 l 25.098716572507 -18.169535240665596" fill="#4DD2FF" stroke="none" /><path d="M 82.576782715395 161.72311816256416 l -24.891297225515604 16.74797563662711 a51.00118940132234,51.00118940132234 0 0,0 -0.4825090438103811,-0.7305801905027799 l 25.175130708246712 -16.31821556778527" fill="#4DD2FF" stroke="none" /><path d="M 82.37810715431573 161.42229804090323 l -20.454520003759487 13.258372741937158 a45.3756402243785,45.3756402243785 0 0,0 -0.41806588640789877,-0.6572690123312541 l 20.679103581793274 -12.905290054927232" fill="#4DD2FF" stroke="none" /><path d="M 81.99639281039703 160.81064883170646 l -24.072667389560515 14.454945103517852 a49.07915157539709,49.07915157539709 0 0,0 -0.42751748131743056,-0.7260181475257357 l 24.317258581007714 -14.039575787698558" fill="#4DD2FF" stroke="none" /><line stroke="#FFFFFF" stroke-width="0.3" x1="26.387840678322732" x2="22.057713659400548" y1="192.50000000000003" y2="195.00000000000006" /><path d="M 25.521815274538298 193.00000000000003 a86.0,86.0 0 0,1 -11.493303480769221,-40.785679425670985" fill="none" id="id9" stroke="none" /><text fill="#FFFFFF" style="font-size:4px; font-family:Arial" text-anchor="middle"><textPath startOffset="21.40746469413373" xlink:href="#id9">September</textPath></text><path d="M 81.81346652052679 160.5 l -24.867048043685212 14.35699688197303 a49.713993763946036,49.713993763946036 0 0,0 -0.4203593611434324,-0.7427347130844075 l 25.10984076985002 -13.928005398789502" fill="#4DD2FF" stroke="none" /><path d="M 81.29705330413844 159.5498578466782 l -47.992408030085954 24.505265499607773 a74.88672624805227,74.88672624805227 0 0,0 -0.5747737636166647,-1.1499325529134568 l 48.40600170691435 -23.67780109053056" fill="#4DD2FF" stroke="none" /><path d="M 81.1358732173502 159.22738970284198 l -33.7225099224719 16.495369459603147 a58.54070975727582,58.54070975727582 0 0,0 -0.4338166043800326,-0.9065098539667351 l 34.00070578481184 -15.914047103571308" fill="#4DD2FF" stroke="none" /><path d="M 80.9802524753101 158.90220220490707 l -28.886081104666662 13.520144500723642 a52.89357284635618,52.89357284635618 0 0,0 -0.3778503636321046,-0.8256712356697864 l 29.113915933153823 -13.022284282839168" fill="#4DD2FF" stroke="none" /><path d="M 80.68587082218212 158.24405325689762 l -25.52972061411026 10.897119639137713 a48.75813126030294,48.75813126030294 0 0,0 -0.32197584164293785,-0.7726248087535059 l 25.713022300289683 -10.457262320942926" fill="#4DD2FF" stroke="none" /><path d="M 80.28708602549918 157.2388550637466 l -22.394538958844226 8.223584902373885 a44.856712343190615,44.856712343190615 0 0,0 -0.25922871344558884,-0.7251088481995076 l 22.532407842333757 -7.837941097793456" fill="#FFFF00" stroke="none" /><path d="M 80.16572619554312 156.89939002012753 l -9.719796144259265 3.3810496505451817 a31.291060869774746,31.291060869774746 0 0,0 -0.1721225573774011,-0.5088497567121505 l 9.776404123209034 -3.2136982193588697" fill="#4DD2FF" stroke="none" /><path d="M 80.05021161711548 156.5578916946017 l -27.071948000683115 8.899087025037359 a49.49708964843391,49.49708964843391 0 0,0 -0.25841083294308326,-0.8094682536869271 l 27.220723549403456 -8.43304973765904" fill="#4DD2FF" stroke="none" /><path d="M 79.94057633289273 156.2144607282931 l -28.27390096711131 8.759326793814084 a50.599650027979166,50.599650027979166 0 0,0 -0.2499229479728782,-0.8319122107681335 l 28.420100235087816 -8.272676979455227" fill="#4DD2FF" stroke="none" /><path d="M 79.73907114497094 155.5222062557868 l -24.311866401229956 6.626307297722973 a46.198706242883,46.198706242883 0 0,0 -0.2019774860147014,-0.7669414128106155 l 24.422033368049387 -6.207985380539555" fill="#FFFF00" stroke="none" /><path d="M 79.56144815229197 154.8234425847677 l -32.33114765873507 7.630062814310557 a54.21928607723614,54.21928607723614 0 0,0 -0.20600524395528977,-0.9076971153854287 l 32.45736376424803 -7.073931364986102" fill="#4DD2FF" stroke="none" /><path d="M 79.407916724674 154.11899336999215 l -24.97006266730254 4.994711860851248 a46.46470451786048,46.46470451786048 0 0,0 -0.1497351825113159,-0.7834777469647314 l 25.05212414209601 -4.5653315488532025" fill="#4DD2FF" stroke="none" /><path d="M 79.34024301695615 153.76489593502546 l -30.650504448645233 5.585542932566602 a52.15528386659261,52.15528386659261 0 0,0 -0.15295203217468728,-0.8821866761627575 l 30.741871298312155 -5.058563223483252" fill="#4DD2FF" stroke="none" /><path d="M 79.17382384314188 152.6963654580776 l -35.23466237121724 4.561832466469871 a56.5287453742151,56.5287453742151 0 0,0 -0.1163359257824951,-0.9634283526199394 l 35.3077803832594 -3.9563104369265316" fill="#4DD2FF" stroke="none" /><path d="M 79.0935383218832 151.97986365728391 l -44.58224215985718 4.2219846845208835 a65.7817091084795,65.7817091084795 0 0,0 -0.09681306291876801,-1.125114541877264 l 44.64814884547369 -3.4560490952679572" fill="#4DD2FF" stroke="none" /><path d="M 79.06263194458094 151.62068470465957 l -30.187748776918742 2.336722676000108 a51.27805226699518,51.27805226699518 0 0,0 -0.060400756774103045,-0.8782137473515286 l 30.223413494857912 -1.818165504494236" fill="#4DD2FF" stroke="none" /><path d="M 79.03789590574601 151.2610281288139 l -28.56932504019439 1.7186596505256542 a49.6209735027763,49.6209735027763 0 0,0 -0.04385173322995485,-0.8507119095764435 l 28.59461836288092 -1.2279759475724799" fill="#4DD2FF" stroke="none" /><line stroke="#FFFFFF" stroke-width="0.3" x1="15.003131293944662" x2="10.003315487706104" y1="150.72959589197737" y2="150.7725132973878" /><path d="M 14.003168132696942 150.73817937305947 a86.0,86.0 0 0,1 10.791469493833604,-42.45332614584628" fill="none" id="id10" stroke="none" /><text fill="#FFFFFF" style="font-size:4px; font-family:Arial" text-anchor="middle"><textPath startOffset="22.145653131862435" xlink:href="#id10">October</textPath></text><path d="M 79.00077361379809 149.8197468972762 l -43.83418182457969 -0.3762637315264152 a64.83579668063504,64.83579668063504 0 0,0 0.01910670298157581,-1.112869660435161 l 43.82126368999944 1.1286803079306285" fill="#4DD2FF" stroke="none" /><path d="M 79.00696218219943 149.45929381324524 l -36.82318732714803 -0.9484346847094125 a57.83539945869184,57.83539945869184 0 0,0 0.03408243671254746,-0.9922729576855849 l 36.80148020343863 1.5804139069591359" fill="#4DD2FF" stroke="none" /><path d="M 79.03789590574601 148.7389718711861 l -24.832639622694295 -1.4938699348172855 a45.87753279593372,45.87753279593372 0 0,0 0.05403944918529894,-0.7857217311253895 l 24.803336212343932 1.9199350900969998" fill="#4DD2FF" stroke="none" /><path d="M 79.34024301695615 146.23510406497456 l -26.14155032181945 -4.763861289494256 a47.57207232441159,47.57207232441159 0 0,0 0.15330373895305768,-0.802149942196371 l 26.055920290584233 5.211913796723941" fill="#4DD2FF" stroke="none" /><path d="M 79.56144815229197 145.17655741523228 l -28.374722189880757 -6.6963571764489815 a50.15417738142325,50.15417738142325 0 0,0 0.20494542936382187,-0.8362472896036496 l 28.255589234000638 7.182460290660749" fill="#4DD2FF" stroke="none" /><path d="M 79.64726062577567 144.8264132398404 l -37.20179266928768 -9.456550220054309 a59.38488921272374,59.38488921272374 0 0,0 0.2596265481416198,-0.9858442916770389 l 37.03397664034133 10.093775016104132" fill="#4DD2FF" stroke="none" /><path d="M 79.73907114497095 144.4777937442132 l -19.390078920559024 -5.284852233649358 a41.09738350325773,41.09738350325773 0 0,0 0.191360196701797,-0.679069829711879 l 19.296500231782645 5.616929987264251" fill="#4DD2FF" stroke="none" /><path d="M 79.94057633289273 143.78553927170694 l -26.55967218872697 -8.228254336331274 a48.805041920414205,48.805041920414205 0 0,0 0.2547978401165471,-0.7981506051171422 l 26.414509632833166 8.682973975139808" fill="#4DD2FF" stroke="none" /><path d="M 80.28708602549916 142.7611449362534 l -18.80531723781628 -6.905572970511309 a41.03314489704416,41.03314489704416 0 0,0 0.24848366559525106,-0.6591324446267978 l 18.684002888406592 7.227373695332252" fill="#4DD2FF" stroke="none" /><path d="M 80.41425534168474 142.42381321644754 l -37.182244919295954 -14.382891100379116 a60.86711544172559,60.86711544172559 0 0,0 0.3853216656101163,-0.9712623080793177 l 36.92986457871971 15.019054425672016" fill="#4DD2FF" stroke="none" /><path d="M 80.5471966667186 142.08871423366114 l -25.761428058004334 -10.476948521201829 a48.81038701463261,48.81038701463261 0 0,0 0.3223209141477053,-0.773452857145715 l 25.577781299320147 10.917633887788808" fill="#4DD2FF" stroke="none" /><path d="M 81.1358732173502 140.77261029715802 l -29.23614003970689 -14.30086113508102 a53.54637481542642,53.54637481542642 0 0,0 0.41098139714032933,-0.8222380998042664 l 28.986338729354816 14.800631091049055" fill="#4DD2FF" stroke="none" /><path d="M 81.29705330413844 140.4501421533218 l -47.98456435402295 -24.50126046272158 a74.87791922956467,74.87791922956467 0 0,0 0.5943592832149815,-1.1397622947737693 l 47.55689700183303 25.321369000599834" fill="#4DD2FF" stroke="none" /><line stroke="#FFFFFF" stroke-width="0.3" x1="26.387840678322718" x2="22.05771365940052" y1="107.5" y2="105.0" /><path d="M 25.521815274538284 107.0 a86.0,86.0 0 0,1 29.574782752854787,-30.34633250058573" fill="none" id="id11" stroke="none" /><text fill="#FFFFFF" style="font-size:4px; font-family:Arial" text-anchor="middle"><textPath startOffset="21.40746469413373" xlink:href="#id11">November</textPath></text><path d="M 81.81346652052679 139.5 l -45.74800714808756 -26.412624241837285 a73.82524848367456,73.82524848367456 0 0,0 0.6430751811364628,-1.0920822472328662 l 45.287858256821316 27.19405765736372" fill="#4DD2FF" stroke="none" /><path d="M 81.99639281039701 139.18935116829357 l -23.04856387318419 -13.84000036681784 a47.88460352636373,47.88460352636373 0 0,0 0.42921030442923386,-0.7010827758785081 l 22.807585604299565 14.233620258820892" fill="#4DD2FF" stroke="none" /><path d="M 82.37810715431573 138.57770195909677 l -29.74344134323765 -19.279339328623113 a56.445242669317594,56.445242669317594 0 0,0 0.5340138217896324,-0.8085649889031116 l 29.408103082527287 19.787084195865287" fill="#4DD2FF" stroke="none" /><path d="M 82.78059297857968 137.97951657250587 l -23.855151388166217 -16.65274835336131 a50.092649853059214,50.092649853059214 0 0,0 0.49826658232994625,-0.7008743476807047 l 23.5657697073063 17.059799927751534" fill="#4DD2FF" stroke="none" /><path d="M 82.98947788004972 137.68569379921541 l -21.54517584795553 -15.597045797336685 a47.598166100758604,47.598166100758604 0 0,0 0.4848167428793431,-0.6577470234672769 l 21.27425708549237 15.964599130072825" fill="#4DD2FF" stroke="none" /><path d="M 83.2033758604659 137.39550010848427 l -23.84108054349474 -17.890791305903008 a50.807340287801225,50.807340287801225 0 0,0 0.5294802837081983,-0.6931066879194725 l 23.530448282432236 18.297418907063363" fill="#4DD2FF" stroke="none" /><line stroke="#FFFFFF" stroke-width="0.3" x1="56.869717070023135" x2="54.33264160355391" y1="76.7553504044142" y2="72.44684160467386" /><path d="M 56.362301976729285 75.89364864446614 a86.0,86.0 0 0,1 42.16139366436587,-11.88097634709845" fill="none" id="id12" stroke="none" /><text fill="#FFFFFF" style="font-size:4px; font-family:Arial" text-anchor="middle"><textPath startOffset="22.145653131862474" xlink:href="#id12">December</textPath></text><path d="M 91.92203290615298 130.6158196554323 l -1.1046224926035095 -2.650691858549654 a23.871647293827536,23.871647293827536 0 0,0 0.37961095799090433,-0.15438447185458354 l 1.0589570734221643 2.669263586983529" fill="#4DD2FF" stroke="none" /><path d="M 92.25597844496254 130.4800069120116 l -2.2058865350977688 -5.560275060183094 a26.98185541037392,26.98185541037392 0 0,0 0.43200229515984506,-0.16710776823411655 l 2.110111977444394 5.597322716555252" fill="#4DD2FF" stroke="none" /><path d="M 92.592206182469 130.34994680014964 l -2.697943474119712 -7.156615600069598 a28.64827077427994,28.64827077427994 0 0,0 0.4616612198269692,-0.16952839459466731 l 2.5746931026386157 7.201874843672987" fill="#4DD2FF" stroke="none" /><path d="M 92.93061703081487 130.22567764915834 l -3.5508341778135564 -9.932315161384533 a31.547952778781195,31.547952778781195 0 0,0 0.5115188488081792,-0.17793280839862305 l 3.379809556960373 9.991806402351742" fill="#4DD2FF" stroke="none" /><path d="M 93.27111125876988 130.10723608172694 l -3.278703784187153 -9.6929051504662 a31.232414610461078,31.232414610461078 0 0,0 0.5093519929733704,-0.16743411710645378 l 3.111829053566022 9.74776018897468" fill="#4DD2FF" stroke="none" /><path d="M 93.95794788825049 129.88797359093562 l -3.259745832026897 -10.850633699943257 a32.329704081738456,32.329704081738456 0 0,0 0.5328858747885096,-0.1551153117889851 l 3.072999944856763 10.904992706034761" fill="#4DD2FF" stroke="none" /><path d="M 94.6519064749342 129.69241777938228 l -3.2097709921046067 -12.188023269603528 a33.60359238638545,33.60359238638545 0 0,0 0.5590913004007172,-0.14211882225234024 l 3.0000743984785117 12.241327323691133" fill="#4DD2FF" stroke="none" /><path d="M 95.00130118170881 129.60360301121753 l -3.4280795534267976 -13.9877344129974 a35.40168196542246,35.40168196542246 0 0,0 0.5914910431044091,-0.13959027562602933 l 3.1874563565824823 14.044520832269662" fill="#4DD2FF" stroke="none" /><path d="M 95.35216902796891 129.52079915486377 l -2.314760226601351 -10.199260660330443 a31.458634371848923,31.458634371848923 0 0,0 0.5276625403620383,-0.11500159475387928 l 2.139335269620194 10.237493713218036" fill="#4DD2FF" stroke="none" /><path d="M 96.05791012581881 129.37332000966035 l -2.884304590433802 -15.091900408258233 a36.36504705177249,36.36504705177249 0 0,0 0.6141628143831387,-0.11192092362038203 l 2.6248070424996253 15.139189505809977" fill="#4DD2FF" stroke="none" /><path d="M 96.76829788921471 129.25015418208739 l -2.761585905331574 -17.731362540288835 a38.945126754851415,38.945126754851415 0 0,0 0.661464236780093,-0.09721246403467614 l 2.4567965629437962 17.776156077622396" fill="#4DD2FF" stroke="none" /><path d="M 97.48249496171623 129.15144685158666 l -2.4263088729082987 -20.093318075653244 a41.23927879239097,41.23927879239097 0 0,0 0.7035501445328205,-0.07883426116007337 l 2.081022826774679 20.132008097320288" fill="#4DD2FF" stroke="none" /><path d="M 97.84075906011542 129.11130261209362 l -2.3637351332357643 -22.866993206401414 a43.98883690145505,43.98883690145505 0 0,0 0.7517910842913123,-0.07119539731663103 l 1.9708444855594365 22.90420035922323" fill="#4DD2FF" stroke="none" /><path d="M 98.1996594967304 129.0773143675988 l -2.2149950998826813 -25.741600584994817 a46.83672200512112,46.83672200512112 0 0,0 0.8016461938921138,-0.06205248537211323 l 1.7727799112153502 25.775830837361987" fill="#4DD2FF" stroke="none" /><path d="M 98.5590905019552 129.04949213459386 l -0.9859784983917944 -14.335910974081338 a35.36977720968828,35.36977720968828 0 0,0 0.6060959091772422,-0.036461224827188665 l 0.7397382370820684 14.350724176733221" fill="#4DD2FF" stroke="none" /><path d="M 98.9189461498227 129.02784411241856 l -1.3088286114393772 -25.39092540554916 a46.42463618784513,46.42463618784513 0 0,0 0.7962360965876554,-0.034193803980537923 l 0.8727667542509017 25.409651777955528" fill="#4DD2FF" stroke="none" /><path d="M 99.27912038922189 129.0123766808444 l -0.5214625871552515 -15.181814259434525 a36.19076717739338,36.19076717739338 0 0,0 0.6210795544903857,-0.015996806202822657 l 0.26076971859412196 15.188528782987392" fill="#4DD2FF" stroke="none" /><path d="M 99.63950707515114 129.00309439819443 l -0.4270785627043708 -24.875185190994177 a45.87885114680695,45.87885114680695 0 0,0 0.7875714875532168,-0.006760354007210831 l 6.093561084680118e-15 24.87885114680695" fill="#FFFF00" stroke="none" /></svg>