<?xml version="1.0" encoding="utf-8" ?>
<svg baseProfile="full" height="300mm" version="1.1" viewBox="0,0,200,300" width="200mm" xmlns="http://www.w3.org/2000/svg" xmlns:ev="http://www.w3.org/2001/xml-events" xmlns:xlink="http://www.w3.org/1999/xlink"><defs /><rect fill="#222222" height="300" width="200" x="0" y="0" /><text fill="#FFFFFF" style="font-size:12px; font-family:Arial; font-weight:bold;" x="10" y="20">My Runs</text><text fill="#FFFFFF" style="font-size:4px; font-family:Arial" x="10" y="280">YEAR</text><text fill="#FFFFFF" style="font-size:9px; font-family:Arial" x="10" y="290">2015</text><text fill="#FFFFFF" style="font-size:4px; font-family:Arial" x="40" y="280">ATHLETE</text><text fill="#FFFFFF" style="font-size:9px; font-family:Arial" x="40" y="290">Florian Pigorsch</text><text fill="#FFFFFF" style="font-size:4px; font-family:Arial" x="120" y="280">STATISTICS</text><text fill="#FFFFFF" style="font-size:3px; font-family:Arial" x="120" y="285">Runs: 139</text><text fill="#FFFFFF" style="font-size:3px; font-family:Arial" x="120" y="290">Weekly: 2.7</text><text fill="#FFFFFF" style="font-size:3px; font-family:Arial" x="139" y="285">Total: 1642.2 km</text><text fill="#FFFFFF" style="font-size:3px; font-family:Arial" x="139" y="290">Avg: 11.8 km</text><text fill="#FFFFFF" style="font-size:3px; font-family:Arial" x="167" y="285">Min: 5.8 km</text><text fill="#FFFFFF" style="font-size:3px; font-family:Arial" x="167" y="290">Max: 21.4 km</text><line stroke="white" stroke-width="0.3" x1="100.0" x2="100.0" y1="65.0" y2="60.0" /><path d="M 100.0 64.0 a86.0,86.0 0 0,1 42.46469731375804,11.215312516191453" fill="none" id="id1" stroke="none" /><text fill="white" style="font-size:4px; font-family:Arial" text-anchor="middle"><textPath startOffset="22.20632615414155" xlink:href="#id1">January</textPath></text><path d="M 101.44485096284872 129.0497635885617 l 1.84881398428607 -26.807671550565235 a47.871348442374014,47.871348442374014 0 0,0 0.8215858870040668,0.0637708772076224 l -2.309990060652478 26.771875411169148" fill="#4DD2FF" stroke="none" /><path d="M 102.16513564639614 129.11191278185805 l 2.448053548451721 -23.617529977789562 a44.74406638358046,44.74406638358046 0 0,0 0.7654075459692045,0.08600245606768415 l -2.8542277979306507 23.571891568251274" fill="#4DD2FF" stroke="none" /><path d="M 103.59715602781102 129.31037775812274 l 7.5859536298947505 -43.63183407488412 a65.28638207409962,65.28638207409962 0 0,0 1.1055312376709494,0.2020287673065303 l -8.335879988668601 43.49478982622685" fill="#4DD2FF" stroke="none" /><path d="M 104.307194497241 129.44645832069477 l 7.085889649600475 -33.813223048392956 a55.547704483028795,55.547704483028795 0 0,0 0.9341464759405387,0.20416823799282488 l -7.666878849694541 33.68624131230426" fill="#4DD2FF" stroke="none" /><path d="M 105.01212808612495 129.60689891045803 l 7.078522420189298 -28.80074507256135 a50.65785555949367,50.65785555949367 0 0,0 0.8449998343223104,0.2154092724749069 l -7.573231143196634 28.67463280391758" fill="#4DD2FF" stroke="none" /><path d="M 105.71112130821622 129.79150937346287 l 11.242458356569966 -39.78082447506941 a62.338926761776136,62.338926761776136 0 0,0 1.0301055906171028,0.3007160692563085 l -11.925554164910494 39.5814100768944" fill="#4DD2FF" stroke="none" /><path d="M 107.08798089147638 130.2323363322302 l 11.279684039172972 -31.457900885880996 a54.41901853988961,54.41901853988961 0 0,0 0.879042519182876,0.32375877836003997 l -11.819508884128425 31.25907883971463" fill="#4DD2FF" stroke="none" /><path d="M 108.43124777332544 130.76684994638697 l 13.55889378664121 -30.930206983659247 a54.77160500730489,54.77160500730489 0 0,0 0.8602216538896948,0.38595638124095616 l -14.089297558997686 30.69223027190176" fill="#4DD2FF" stroke="none" /><path d="M 109.41281617654863 131.22770947309562 l 11.159895952504995 -22.25654948966229 a45.89773629984309,45.89773629984309 0 0,0 0.7031959665662566,0.3602042863547579 l -11.541352406660007 22.061152677995036" fill="#4DD2FF" stroke="none" /><path d="M 110.36928655335952 131.73862282372116 l 27.084676901847434 -47.69889404223647 a75.85220338081206,75.85220338081206 0 0,0 1.129848431772499,0.6544811383527417 l -27.901722066085263 47.22560874649368" fill="#4DD2FF" stroke="none" /><line stroke="white" stroke-width="0.3" x1="143.23703022742887" x2="145.7803849466894" y1="76.81831364943548" y2="72.5135085699905" /><path d="M 143.74570117128098 75.95735263354649 a86.0,86.0 0 0,1 28.547481713284135,27.462654790039103" fill="none" id="id2" stroke="none" /><text fill="white" style="font-size:4px; font-family:Arial" text-anchor="middle"><textPath startOffset="19.985693538727396" xlink:href="#id2">February</textPath></text><path d="M 111.2981086023043 132.29822771554956 l 19.538513135211872 -30.61276205343996 a57.31658981891582,57.31658981891582 0 0,0 0.8270865087965956,0.5379600722293024 l -20.062566669792748 30.271903057051126" fill="#4DD2FF" stroke="none" /><path d="M 111.90073688211348 132.69761687909136 l 12.312359433606238 -17.90083775087681 a42.72634776039288,42.72634776039288 0 0,0 0.6023781471986738,0.42200438756403136 l -12.618668720388563 17.686248520548844" fill="#4DD2FF" stroke="none" /><path d="M 112.77801427241765 133.3349962120049 l 24.117634480484377 -31.45406331579472 a60.63607437686371,60.63607437686371 0 0,0 0.8228241514446472,0.6422273016229721 l -24.655491187088455 31.034257624948523" fill="#4DD2FF" stroke="none" /><path d="M 113.34407831869373 133.78471172551755 l 28.43591868700474 -34.55439992536419 a65.7505086649968,65.7505086649968 0 0,0 0.8677265675051481,0.7266960458054004 l -29.026502791469007 34.05980272216497" fill="#4DD2FF" stroke="none" /><path d="M 113.6212207817346 134.01681056812373 l 21.144238078851302 -24.810724972621358 a53.598326300627804,53.598326300627804 0 0,0 0.6970492997550329,0.6044742839097045 l -21.5681811772531 24.443085695291984" fill="#4DD2FF" stroke="none" /><path d="M 114.42810811169701 134.74124197986012 l 18.40505979443044 -19.46466935063656 a47.78842247998508,47.78842247998508 0 0,0 0.5928421341602432,0.5703136633539467 l -18.7373851722031 19.14497260052031" fill="#4DD2FF" stroke="none" /><path d="M 115.19652480421416 135.5063588468976 l 25.943069110330466 -24.743126401570063 a56.85059468108523,56.85059468108523 0 0,0 0.6693011795512599,0.7139638326700934 l -26.36513761185219 24.292893152021914" fill="#4DD2FF" stroke="none" /><path d="M 115.9244219780498 136.31012108654704 l 24.68753299177625 -21.22333468650531 a53.55617023600074,53.55617023600074 0 0,0 0.5949564808731488,0.7042408144196011 l -25.049200086136516 20.795234922456604" fill="#4DD2FF" stroke="none" /><path d="M 116.38621287248628 136.86637796730983 l 23.772409143028092 -19.0536909852573 a51.46589202083538,51.46589202083538 0 0,0 0.5481017494786428,0.6960335612337563 l -24.0968649731007 18.641665030070506" fill="#4DD2FF" stroke="none" /><path d="M 116.82858285166822 137.43820079747576 l 27.614487555886832 -20.613004126088256 a55.45948145396794,55.45948145396794 0 0,0 0.5644649846342903,0.7699296046826632 l -27.965215153034748 20.1346120777341" fill="#4DD2FF" stroke="none" /><line stroke="white" stroke-width="0.3" x1="172.23445277983987" x2="176.4835382374775" y1="105.19839476539836" y2="102.56300622218649" /><path d="M 173.08426987136738 104.67131705675598 a86.0,86.0 0 0,1 12.851231095245387,41.99856678651699" fill="none" id="id3" stroke="none" /><text fill="white" style="font-size:4px; font-family:Arial" text-anchor="middle"><textPath startOffset="22.20632615414155" xlink:href="#id3">March</textPath></text><path d="M 117.84615892207809 138.9313681185102 l 41.702685176805446 -25.865043156187014 a70.07254230654007,70.07254230654007 0 0,0 0.6269296987294801,1.0305075846461793 l -42.14173067382115 25.143367798333752" fill="#FFFF00" stroke="none" /><path d="M 118.21658344932153 139.5522209329492 l 25.74643414425697 -14.766383413877112 a50.68037988756522,50.68037988756522 0 0,0 0.4275067634989925,0.7604868297781342 l -25.996798549048396 14.321013074164183" fill="#4DD2FF" stroke="none" /><path d="M 118.73160827565052 140.50648371742162 l 20.57140648038019 -10.425959132985643 a44.06259717429316,44.06259717429316 0 0,0 0.33705785901512614,0.679488076225148 l -20.747824352348726 10.070311468261545" fill="#4DD2FF" stroke="none" /><path d="M 119.04729006885535 141.15688171328213 l 53.468261779593426 -24.82380232531188 a79.94977675629731,79.94977675629731 0 0,0 0.5687767336518321,1.2532241383887377 l -53.88764083020861 23.89975617808108" fill="#4DD2FF" stroke="none" /><path d="M 119.34039704204932 141.81776055985344 l 31.494979326996866 -13.324414253527022 a55.19756918272926,55.19756918272926 0 0,0 0.36266988018168567,0.8782338815768063 l -31.719670894064752 12.780305801496914" fill="#4DD2FF" stroke="none" /><path d="M 119.47837535516314 142.15188598940014 l 42.56401468998949 -17.149645899360827 a66.88905861970917,66.88905861970917 0 0,0 0.42110309485079034,1.0716614444850172 l -42.85291133472199 16.414435449980026" fill="#4DD2FF" stroke="none" /><path d="M 119.97218684219823 143.5106431181261 l 44.49378699970236 -14.45690775619493 a67.78353624349074,67.78353624349074 0 0,0 0.35100418367993635,1.112779182808201 l -44.736046667150504 13.68887840696031" fill="#4DD2FF" stroke="none" /><path d="M 120.18372546131832 144.20196356495316 l 36.44345024438887 -10.468852875587137 a58.917304047702764,58.917304047702764 0 0,0 0.2716178321134091,0.9771538587068431 l -36.61825484706864 9.83998771346134" fill="#4DD2FF" stroke="none" /><path d="M 120.6074358757038 145.95851677861256 l 32.77141140291753 -6.42705429850343 a54.395694816775176,54.395694816775176 0 0,0 0.1722900125313343,0.9203801361931554 l -32.87718713935872 5.8619960848477115" fill="#4DD2FF" stroke="none" /><path d="M 120.94382443527127 148.46500227214037 l 62.831473305813795 -4.6049931835789 a84.0,84.0 0 0,0 0.09327763598233796,1.442963742987859 l -62.90143153280055 3.5227703763380056" fill="#4DD2FF" stroke="none" /><line stroke="white" stroke-width="0.3" x1="184.98032266829074" x2="189.97916517819016" y1="148.1711317179211" y2="148.06355123074" /><path d="M 185.9800911702706 148.1496156204849 a86.0,86.0 0 0,1 -9.607161424134198,41.387399972396054" fill="none" id="id4" stroke="none" /><text fill="white" style="font-size:4px; font-family:Arial" text-anchor="middle"><textPath startOffset="21.466115282336823" xlink:href="#id4">April</textPath></text><path d="M 120.9904718944345 150.63252640178507 l 33.65630521565025 1.014198334487176 a54.671582662991696,54.671582662991696 0 0,0 -0.03644216909195335,0.9404104571251044 l -33.633860913707096 -1.5933860386262866" fill="#4DD2FF" stroke="none" /><path d="M 120.95626037817324 151.35467743843563 l 23.818341102848084 1.5396911820488286 a44.86805442066239,44.86805442066239 0 0,0 -0.05645563827760368,0.7702923300844587 l -23.788308905906142 -1.9494566486300575" fill="#4DD2FF" stroke="none" /><path d="M 120.89721153311464 152.0752229133903 l 45.980686948148424 4.56616783425946 a67.20685512902011,67.20685512902011 0 0,0 -0.12422930664098988,1.1502090918059904 l -45.89527534000638 -5.356973247950242" fill="#4DD2FF" stroke="none" /><path d="M 120.70491114924044 153.5080841355445 l 36.94225502668146 6.259217335259829 a58.468760429274795,58.468760429274795 0 0,0 -0.1766690886311976,0.990854071650023 l -36.82903949571107 -6.894190157643071" fill="#4DD2FF" stroke="none" /><path d="M 120.5718875245553 154.21870165774334 l 36.633475572055985 7.512470790065407 a58.39583867036556,58.39583867036556 0 0,0 -0.2104084413088357,0.9829581892179572 l -36.498733092022704 -8.141942798699533" fill="#4DD2FF" stroke="none" /><path d="M 120.13307415673323 155.9715429329011 l 33.01106087080954 9.791200574539364 a55.43251005237859,55.43251005237859 0 0,0 -0.2792035950631584,0.9124535032782968 l -32.83763050324025 -10.357981050369718" fill="#4DD2FF" stroke="none" /><path d="M 120.02730092923936 156.31721596034902 l 28.236497037760103 8.90664450399611 a50.607905722695065,50.607905722695065 0 0,0 -0.2692045347173456,0.8285263646325045 l -28.07900025202651 -9.39136976860641" fill="#4DD2FF" stroke="none" /><path d="M 119.79798401119884 157.00284435728193 l 29.07356850338908 10.283757933375517 a51.83874288542776,51.83874288542776 0 0,0 -0.3048012898256304,0.8386822426550872 l -28.892242952558224 -10.782687973036737" fill="#4DD2FF" stroke="none" /><path d="M 119.26925614724726 158.34839909993366 l 35.98917792159826 15.592299893265215 a60.22168715690306,60.22168715690306 0 0,0 -0.420286911684207,0.9476360333435981 l -35.71544992518279 -16.2094842631015" fill="#4DD2FF" stroke="none" /><path d="M 119.12269723197855 158.67885076344098 l 31.659564001872234 14.368717334935727 a55.76762906267735,55.76762906267735 0 0,0 -0.4042499381904865,0.8707184030995133 l -31.407539446841916 -14.911555805314071" fill="#4DD2FF" stroke="none" /><line stroke="white" stroke-width="0.3" x1="174.80103733775053" x2="179.2010983576182" y1="190.37084112569926" y2="192.7455964860345" /><path d="M 175.68104954172406 190.8457921977663 a86.0,86.0 0 0,1 -30.038265399797805,32.042727171017184" fill="none" id="id5" stroke="none" /><text fill="white" style="font-size:4px; font-family:Arial" text-anchor="middle"><textPath startOffset="22.206326154141568" xlink:href="#id5">May</textPath></text><path d="M 118.30583269289576 160.29060199501023 l 30.485163324285967 17.13719816989571 a55.97182786219026,55.97182786219026 0 0,0 -0.4793534053675021,0.8357930670770226 l -30.185657922766087 -17.65941108283105" fill="#4DD2FF" stroke="none" /><path d="M 117.94076556474637 160.91462005526583 l 25.35667633795177 15.426236249189035 a50.68046158204817,50.68046158204817 0 0,0 -0.45982952425378626,0.7413916060050719 l -25.087382174030022 -15.860424186559381" fill="#4DD2FF" stroke="none" /><path d="M 116.71984013943494 162.70617746262582 l 42.94501066027809 32.635893766523346 a74.93862718452516,74.93862718452516 0 0,0 -0.7893292123930333,1.0203144096665984 l -42.37687463066699 -33.370286170303196" fill="#4DD2FF" stroke="none" /><path d="M 116.27256486870786 163.27417163493433 l 21.638363308926557 17.651264614965676 a48.92464698427965,48.92464698427965 0 0,0 -0.5379474615460219,0.6479923718266715 l -21.33131984748699 -18.021118243906116" fill="#4DD2FF" stroke="none" /><path d="M 115.80600337817218 163.826433278659 l 18.182337160029828 15.905151073193483 a45.15721869880946,45.15721869880946 0 0,0 -0.5168160899406397,0.5806483557780616 l -17.90586222044085 -16.21577359871241" fill="#4DD2FF" stroke="none" /><path d="M 115.07121518719521 164.6239007375343 l 38.44946890876219 37.308286674214244 a74.57490003659571,74.57490003659571 0 0,0 -0.9018569047542744,0.9135762830883773 l -37.80157137895238 -37.96460345128329" fill="#4DD2FF" stroke="none" /><path d="M 114.81725581225074 164.88116024355367 l 14.715839413502032 14.779306452256087 a41.856265937450985,41.856265937450985 0 0,0 -0.5149318237291374,0.5039691683014256 l -14.459257637397101 -15.030425723480084" fill="#4DD2FF" stroke="none" /><path d="M 114.29624159901734 165.38237550388516 l 24.794353007570287 26.678064000019834 a57.4208599548825,57.4208599548825 0 0,0 -0.7297930186646786,0.6666486193247223 l -24.331460439438743 -27.10090538593114" fill="#4DD2FF" stroke="none" /><path d="M 112.63410532772338 166.77436683061367 l 20.960060462320666 27.828780421459758 a55.83913251402738,55.83913251402738 0 0,0 -0.7727471974936084,0.5716599029294084 l -20.477928294408493 -28.185450273128936" fill="#4DD2FF" stroke="none" /><path d="M 112.04921762599082 167.19931262002967 l 10.1770424606085 14.526929487085933 a38.737076240682825,38.737076240682825 0 0,0 -0.5494081651488505,0.3778879457604976 l -9.925477410836768 -14.699958222211526" fill="#4DD2FF" stroke="none" /><path d="M 111.45004920935366 167.60387380957326 l 18.487236254715732 28.42319436059038 a54.906575792869035,54.906575792869035 0 0,0 -0.7967158491131754,0.5085017502097602 l -17.995238603555627 -28.73721053962395" fill="#4DD2FF" stroke="none" /><path d="M 111.1453310114006 167.79835938074945 l 17.446751240557294 27.861312354773435 a53.87311751234036,53.87311751234036 0 0,0 -0.7901924170615156,0.48540072196404144 l -16.96457962356347 -28.157501543565854" fill="#4DD2FF" stroke="none" /><line stroke="white" stroke-width="0.3" x1="143.8653032363475" x2="146.44561519142675" y1="222.8068346515853" y2="227.08958963109032" /><path d="M 144.38136562736335 223.6633856474863 a86.0,86.0 0 0,1 -40.68145358897372,12.25698825130547" fill="none" id="id6" stroke="none" /><text fill="white" style="font-size:4px; font-family:Arial" text-anchor="middle"><textPath startOffset="21.466115282336833" xlink:href="#id6">June</textPath></text><path d="M 110.5260780823613 168.17145234162732 l 17.09828485954089 29.517230065902815 a55.11184861454217,55.11184861454217 0 0,0 -0.8249751223444541,0.46844240499530804 l -16.587660970275238 -29.80717563669275" fill="#4DD2FF" stroke="none" /><path d="M 109.89434966115114 168.52300852407294 l 12.550155666804194 23.494888330802166 a47.6367450139442,47.6367450139442 0 0,0 -0.7265944191424727,0.3801198591223331 l -12.143870345135227 -23.707437608869213" fill="#4DD2FF" stroke="none" /><path d="M 108.92500713936063 169.00905698771936 l 19.898270873313386 42.380623240037785 a67.81942342619976,67.81942342619976 0 0,0 -1.0609929097194015,0.4870498064361473 l -19.165809967826565 -42.71686011680801" fill="#4DD2FF" stroke="none" /><path d="M 107.93186726928326 169.44442032107085 l 13.46066149646832 32.9978744034928 a56.63774856905512,56.63774856905512 0 0,0 -0.9058774307040744,0.36046732485666055 l -12.89066298972238 -33.22468857275553" fill="#4DD2FF" stroke="none" /><path d="M 107.59598834532513 169.57807347666477 l 6.174997201055414 15.915578516502796 a38.071503447207206,38.071503447207206 0 0,0 -0.6130051931394576,0.2317861112760417 l -5.9001217871556815 -16.019512877885468" fill="#4DD2FF" stroke="none" /><path d="M 106.57524785965236 169.94407469862006 l 11.14645569484141 33.80948517042359 a56.59950508147768,56.59950508147768 0 0,0 -0.9279048322842677,0.2970858250286075 l -10.562829517466202 -33.996343842111905" fill="#FFFF00" stroke="none" /><path d="M 105.53697534728816 170.2568976895161 l 6.464600656911778 23.650593672008533 a45.518190037027495,45.518190037027495 0 0,0 -0.75757344970779,0.20008203354576454 l -6.056536764392491 -23.75836705485788" fill="#4DD2FF" stroke="none" /><path d="M 104.13013068566511 170.58985236759426 l 11.795253321244253 58.80262466408741 a80.97396658799437,80.97396658799437 0 0,0 -1.3689705007298452,0.26236645464212716 l -10.781315205942704 -58.99694831707801" fill="#4DD2FF" stroke="none" /><path d="M 103.41894727170886 170.7198165907248 l 5.1781695880153755 31.381216384106875 a52.80556841228254,52.80556841228254 0 0,0 -0.8981073923159172,0.1402659041683488 l -4.6372263320909415 -31.465700595622327" fill="#4DD2FF" stroke="none" /><path d="M 103.06178313531738 170.7755982833777 l 5.805295939797894 39.3915868730731 a60.81706389636859,60.81706389636859 0 0,0 -1.036992940440631,0.1437177724438783 l -5.126374408170432 -39.48567921100958" fill="#4DD2FF" stroke="none" /><path d="M 101.62511606390274 170.93702456842533 l 3.674017211606794 47.33384299918714 a68.47621610388596,68.47621610388596 0 0,0 -1.1759558822862277,0.08110080265544084 l -2.858698568541636 -47.39007214635887" fill="#FFFF00" stroke="none" /><path d="M 101.26447882468166 170.96189622390904 l 1.2650478599820372 20.971329405929453 a42.0094503293172,42.0094503293172 0 0,0 -0.7221863242035613,0.037328783855178106 l -0.9038734673649964 -20.989997996546833" fill="#4DD2FF" stroke="none" /><line stroke="white" stroke-width="0.3" x1="102.19456741930631" x2="102.32365962044197" y1="234.97166512339345" y2="239.96999836594603" /><path d="M 102.22038585953345 235.97133177190398 a86.0,86.0 0 0,1 -42.740103519485714,-10.115201625700543" fill="none" id="id7" stroke="none" /><text fill="white" style="font-size:4px; font-family:Arial" text-anchor="middle"><textPath startOffset="22.20632615414155" xlink:href="#id7">July</textPath></text><path d="M 100.54218724476979 170.99299961872075 l 0.7486448812716685 28.98685252871689 a49.996518561369314,49.996518561369314 0 0,0 -0.8605122463384909,0.014814498700525541 l -0.24957294504050975 -28.99544450469658" fill="#4DD2FF" stroke="none" /><path d="M 99.09653310690486 170.98055641714683 l -1.5289694155367928 35.50614784883295 a56.53905292121375,56.53905292121375 0 0,0 -0.9719653669123499,-0.050239507285330574 l 2.139922850862632 -35.47456853478542" fill="#4DD2FF" stroke="none" /><path d="M 98.37488393609728 170.93702456842533 l -2.6315951416548984 33.90389976372515 a55.005877612234976,55.005877612234976 0 0,0 -0.9433656847457021,-0.0813975607556443 l 3.2148051441421424 -33.85357795069084" fill="#4DD2FF" stroke="none" /><path d="M 98.01472825383883 170.90594882070397 l -3.4358156386299608 36.18093393887489 a57.343703853513375,57.343703853513375 0 0,0 -0.9818536521726493,-0.10177314560506048 l 4.0581018874082035 -36.11643142481407" fill="#4DD2FF" stroke="none" /><path d="M 97.65516085044442 170.86867818915974 l -3.155549242477966 28.083863093040055 a49.260588409485045,49.260588409485045 0 0,0 -0.8418225859293695,-0.10193299161963781 l 3.638499251458725 -28.025384572695067" fill="#4DD2FF" stroke="none" /><path d="M 96.58105272829116 170.7198165907248 l -6.028631972695093 36.535266220934915 a58.02931381077415,58.02931381077415 0 0,0 -0.9841523713561138,-0.17110750469589253 l 6.656633315523257 -36.42608013771802" fill="#4DD2FF" stroke="none" /><path d="M 95.86986931433489 170.5898523675943 l -4.967880658698593 24.76626943003353 a46.2596108386508,46.2596108386508 0 0,0 -0.7793831097937305,-0.1633273084573157 l 5.39345522992171 -24.677086140849674" fill="#4DD2FF" stroke="none" /><path d="M 95.51606077576429 170.5157083483208 l -9.191060609323536 42.05255902074847 a64.0452473023189,64.0452473023189 0 0,0 -1.0749837714865969,-0.2446628065436604 l 9.913564530202995 -41.888119480627125" fill="#4DD2FF" stroke="none" /><path d="M 95.16358092515715 170.4354850818985 l -8.723339752331635 36.85902247395666 a58.87722527021021,58.87722527021021 0 0,0 -0.9842217397400634,-0.2418977576321493 l 9.356514776814908 -36.70340345801048" fill="#4DD2FF" stroke="none" /><path d="M 94.11515582081647 170.15858648285464 l -11.386964804625437 39.00615000193783 a61.634255320301534,61.634255320301534 0 0,0 -1.0158646760997991,-0.3060716936438626 l 12.056704455165482 -38.804362939188245" fill="#4DD2FF" stroke="none" /><path d="M 93.42475214034765 169.94407469862006 l -11.572292302319369 35.101134898346835 a57.959540314812664,57.959540314812664 0 0,0 -0.9448240435621641,-0.32053561394857927 l 12.174786078818759 -34.896736297500134" fill="#4DD2FF" stroke="none" /><path d="M 92.7421414339146 169.70592522655815 l -7.446504426206593 20.21812054973776 a42.545830843419395,42.545830843419395 0 0,0 -0.685048209078845,-0.2590266154284927 l 7.793422856045721 -20.086945684202632" fill="#4DD2FF" stroke="none" /><path d="M 92.40401165467489 169.57807347666477 l -10.431274336479532 26.885804207497497 a49.838480406685555,49.838480406685555 0 0,0 -0.7971283414622135,-0.3171938179219022 l 10.892523753983605 -26.70226354516953" fill="#4DD2FF" stroke="none" /><path d="M 91.7346041902142 169.30500536409082 l -13.457334276654173 31.431514760562308 a55.19122644739521,55.19122644739521 0 0,0 -0.8701273341435867,-0.38143825260332126 l 13.996382285455503 -31.195211954664536" fill="#4DD2FF" stroke="none" /><path d="M 90.42595943632237 168.69057910512822 l -18.712633875644173 36.53107184911295 a62.04487637950635,62.04487637950635 0 0,0 -0.9463589693321347,-0.49509028506748076 l 19.338683747502802 -36.20355214510075" fill="#4DD2FF" stroke="none" /><line stroke="white" stroke-width="0.3" x1="58.666819895761336" x2="56.23545636021788" y1="224.27360380694188" y2="228.64263932499728" /><path d="M 58.180547188652646 225.14741091055294 a86.0,86.0 0 0,1 -31.652253787137756,-30.449443065178592" fill="none" id="id8" stroke="none" /><text fill="white" style="font-size:4px; font-family:Arial" text-anchor="middle"><textPath startOffset="22.20632615414155" xlink:href="#id8">August</textPath></text><path d="M 89.7882731507175 168.3499491758327 l -14.107089309754656 25.349715642963876 a50.01065411142123,50.01065411142123 0 0,0 -0.74861479938106,-0.4250830207346812 l 14.541352876056923 -25.103129456434562" fill="#4DD2FF" stroke="none" /><path d="M 89.4739219176387 168.17145234162734 l -23.886366682370266 41.2356787007566 a68.65437767085706,68.65437767085706 0 0,0 -1.0174975297963023,-0.6011554754476819 l 24.59263208319495 -40.818404653015165" fill="#4DD2FF" stroke="none" /><path d="M 89.1626897886671 167.98757091392108 l -10.512497451531377 17.448452586887623 a41.37059401061538,41.37059401061538 0 0,0 -0.6068096888773993,-0.3727520724271073 l 10.811286340341086 -17.264912047632137" fill="#4DD2FF" stroke="none" /><path d="M 88.8546689885994 167.79835938074945 l -20.86765992834146 33.324278162754354 a60.31878362759375,60.31878362759375 0 0,0 -0.8752490976058049,-0.5586253850698066 l 21.438190827994188 -32.96013834886074" fill="#4DD2FF" stroke="none" /><path d="M 88.24862548938628 167.40417183066458 l -21.831341039351607 32.332933513398146 a60.0131521561422,60.0131521561422 0 0,0 -0.8511668667517096,-0.5854403323056843 l 22.38466479072621 -31.952352391727363" fill="#4DD2FF" stroke="none" /><path d="M 87.95078237400918 167.19931262002967 l -15.606479671478862 22.277025040107574 a48.19978037363285,48.19978037363285 0 0,0 -0.6754227698878912,-0.4818962127282189 l 15.987629769215639 -22.005084565535135" fill="#4DD2FF" stroke="none" /><path d="M 87.07902340077011 166.55440617244102 l -24.129193764461014 30.914418203824226 a60.216313500937886,60.216313500937886 0 0,0 -0.8116083977439552,-0.644790796666472 l 24.65775965492233 -30.49449349315262" fill="#4DD2FF" stroke="none" /><path d="M 86.79598089348748 166.32954008644617 l -23.34859559710404 28.875437447457102 a58.134186461253115,58.134186461253115 0 0,0 -0.7727137140042226,-0.6358907805436496 l 23.842179439652952 -28.46925154805627" fill="#4DD2FF" stroke="none" /><path d="M 85.18274418774928 164.88116024355367 l -23.286124620514453 23.386553915248836 a54.002643892163704,54.002643892163704 0 0,0 -0.6530703661048819,-0.6615568329255291 l 23.68523561167487 -22.98225658834264" fill="#4DD2FF" stroke="none" /><path d="M 84.9287848128048 164.6239007375343 l -21.720376030035013 21.07571414115448 a51.26483869849265,51.26483869849265 0 0,0 -0.6090591142804004,-0.6385960463367488 l 22.07994169569437 -20.698710978235233" fill="#4DD2FF" stroke="none" /><path d="M 84.43433777217949 164.09645910891817 l -32.67475215474885 29.5906657167612 a65.08227450955056,65.08227450955056 0 0,0 -0.7448547011013339,-0.8368521528378278 l 33.17926570549852 -29.023839394182506" fill="#4DD2FF" stroke="none" /><path d="M 83.95833913139862 163.55231037782056 l -29.66578363497226 25.062237053604186 a59.835221704118524,59.835221704118524 0 0,0 -0.6579139066065742,-0.7924996831001391 l 30.09279354147237 -24.547876113390284" fill="#4DD2FF" stroke="none" /><path d="M 83.72743513129214 163.27417163493433 l -36.27373326923474 29.589911924799342 a67.81182129553356,67.81182129553356 0 0,0 -0.730049435516994,-0.9108489210397648 l 36.7777006168066 -28.96113517018132" fill="#4DD2FF" stroke="none" /><path d="M 83.28015986056508 162.70617746262585 l -30.188899595591877 22.94193679270116 a58.917042640388274,58.917042640388274 0 0,0 -0.6066736509823439,-0.8127384966819713 l 30.579334513269306 -22.41888541650988" fill="#4DD2FF" stroke="none" /><path d="M 82.85270091963577 162.1231239475863 l -31.672189120785955 22.392207227689298 a59.78838109834713,59.78838109834713 0 0,0 -0.5868915543741857,-0.8454610565165257 l 32.052941582322276 -21.84370490898576" fill="#4DD2FF" stroke="none" /><line stroke="white" stroke-width="0.3" x1="26.63291911575756" x2="22.317208475507996" y1="192.92168965132927" y2="195.44649492493687" /><path d="M 25.769776987707644 193.4266507060508 a86.0,86.0 0 0,1 -11.730757126820373,-40.83630448921669" fill="none" id="id9" stroke="none" /><text fill="white" style="font-size:4px; font-family:Arial" text-anchor="middle"><textPath startOffset="21.46611528233685" xlink:href="#id9">September</textPath></text><path d="M 80.73074385275274 158.3483990999337 l -33.10232520353297 14.341571870918614 a57.07554043405557,57.07554043405557 0 0,0 -0.3828111365740742,-0.904852446279442 l 33.34428732129935 -13.769644898973015" fill="#4DD2FF" stroke="none" /><path d="M 80.45479744820244 157.68017299344265 l -39.30869851180097 15.446123104513326 a63.23454152292226,63.23454152292226 0 0,0 -0.38936133077122026,-1.016499570488032 l 39.5687541221657 -14.767199967192136" fill="#4DD2FF" stroke="none" /><path d="M 80.0844068197444 156.66101706037122 l -26.665436537361668 8.918585858326548 a49.117373267081774,49.117373267081774 0 0,0 -0.26127577160287413,-0.8041241409249308 l 26.815004559980792 -8.458262817423813" fill="#4DD2FF" stroke="none" /><path d="M 79.86692584326677 155.9715429329011 l -29.496697644328567 8.748827674833864 a51.76681910118232,51.76681910118232 0 0,0 -0.24603379577538417,-0.8564759196957946 l 29.642924076990056 -8.239794279633472" fill="#4DD2FF" stroke="none" /><path d="M 79.67330655649465 155.2749913415812 l -41.67323599396656 10.814644283135063 a64.05363084781092,64.05363084781092 0 0,0 -0.26777066984565795,-1.0696107201830347 l 41.853217978107274 -10.095705723554637" fill="#4DD2FF" stroke="none" /><path d="M 79.50377843672027 154.57218783832718 l -38.08041159680875 8.494775207414452 a60.01639339055917,60.01639339055917 0 0,0 -0.21624752848518,-1.0102364605736074 l 38.22099316401837 -7.838024927424682" fill="#4DD2FF" stroke="none" /><path d="M 79.35854240842038 153.8639653848113 l -21.23188990944071 3.9744910116071384 a42.600688135519114,42.600688135519114 0 0,0 -0.12872215338082865,-0.7219421958711097 l 21.29715850516073 -3.608430065002815" fill="#4DD2FF" stroke="none" /><path d="M 79.29508885075956 153.50808413554452 l -28.254822302993926 4.787284193557064 a49.65751338346794,49.65751338346794 0 0,0 -0.13553721666290988,-0.84399037754033 l 28.333041274018125 -4.300214586323521" fill="#4DD2FF" stroke="none" /><path d="M 79.18660465613746 152.79330883721812 l -44.11040637843215 5.919936940345996 a65.50588280495177,65.50588280495177 0 0,0 -0.1403650410321749,-1.1188474834221869 l 44.20577292871118 -5.1597717026364" fill="#4DD2FF" stroke="none" /><path d="M 79.10278846688536 152.07522291339032 l -47.11379390395216 4.67869239354242 a68.34553557134475,68.34553557134475 0 0,0 -0.10618098527022053,-1.1716983245381007 l 47.18734948549945 -3.867012680455753" fill="#4DD2FF" stroke="none" /><path d="M 79.0235259727143 150.99374915477108 l -24.39785186838492 1.1558350865307356 a45.42521505614452,45.42521505614452 0 0,0 -0.03027886312197816,-0.7813629160743699 l 24.4141328643581 -0.735694923442369" fill="#FFFF00" stroke="none" /><line stroke="white" stroke-width="0.3" x1="15.007084014347285" x2="10.007500721073583" y1="151.09737516637583" y2="151.16192664675089" /><path d="M 14.007167355692545 151.11028546245083 a86.0,86.0 0 0,1 10.666146001902534,-42.60595125391555" fill="none" id="id10" stroke="none" /><text fill="white" style="font-size:4px; font-family:Arial" text-anchor="middle"><textPath startOffset="22.20632615414155" xlink:href="#id10">October</textPath></text><path d="M 79.00175016825051 150.2711162175752 l -20.07922930092106 0.25925040151012313 a41.080902870380356,41.080902870380356 0 0,0 -0.003043317711672103,-0.7071598578322821 l 20.080716915922235 0.08641893452583434" fill="#4DD2FF" stroke="none" /><path d="M 79.00486145842228 149.54816195383935 l -23.51734066061036 -0.5061185585387448 a44.522786139028995,44.522786139028995 0 0,0 0.02308465234131993,-0.7660672262782785 l 23.505144313813393 0.9108559322420177" fill="#4DD2FF" stroke="none" /><path d="M 79.01574976396665 149.18683210126434 l -41.31926791743675 -1.6011771634338297 a62.35028016279478,62.35028016279478 0 0,0 0.05078991996266073,-1.0720949364632817 l 41.28558438924059 2.3121832065201207" fill="#4DD2FF" stroke="none" /><path d="M 79.46518482838121 145.604392434776 l -43.17458876682857 -9.241794845623952 a65.15264303700698,65.15264303700698 0 0,0 0.244184700412622,-1.0946321321416623 l 43.00910967941391 9.983605147315574" fill="#4DD2FF" stroke="none" /><path d="M 79.71946130924805 144.5502522615342 l -18.60304173930157 -4.998973951987485 a40.26299308328915,40.26299308328915 0 0,0 0.18561858985988106,-0.6677688276871862 l 18.514236378875328 5.318454083093614" fill="#4DD2FF" stroke="none" /><path d="M 79.91906864156998 143.85539295169968 l -36.51076021526344 -11.17200544900672 a59.181793007258044,59.181793007258044 0 0,0 0.30646168810974156,-0.9715672995161238 l 36.31304304338549 11.798822914949259" fill="#4DD2FF" stroke="none" /><path d="M 80.02781315780177 143.5106431181261 l -27.960674986498976 -9.084974023080264 a50.399593512507494,50.399593512507494 0 0,0 0.27518827547365393,-0.8227779170413907 l 27.80014941725355 9.564925043043976" fill="#4DD2FF" stroke="none" /><path d="M 80.52162464483688 142.15188598940014 l -45.58711108515739 -18.367694362936735 a70.14831526411396,70.14831526411396 0 0,0 0.46090220037702334,-1.1161112366475532 l 45.26418719789417 19.1496801700376" fill="#4DD2FF" stroke="none" /><path d="M 80.803312248108 141.48605970444007 l -32.48225681305693 -14.406235010211862 a56.53359839417952,56.53359839417952 0 0,0 0.40218993399118114,-0.886172207253578 l 32.22946456210239 14.963229226307512" fill="#4DD2FF" stroke="none" /><line stroke="white" stroke-width="0.3" x1="26.266209847984243" x2="21.928928074336255" y1="107.71137044288967" y2="105.22380399835377" /><path d="M 25.398753493254645 107.2138571539825 a86.0,86.0 0 0,1 29.58750427330803,-30.492523968695096" fill="none" id="id11" stroke="none" /><text fill="white" style="font-size:4px; font-family:Arial" text-anchor="middle"><textPath startOffset="21.46611528233685" xlink:href="#id11">November</textPath></text><path d="M 81.78341655067845 139.5522209329492 l -41.31327340509857 -23.694451502057625 a68.62576604557438,68.62576604557438 0 0,0 0.5965223654134508,-1.0196500880573551 l 40.8992913652148 24.40208100246887" fill="#4DD2FF" stroke="none" /><path d="M 81.96595687620814 139.2402003453031 l -17.549884170045797 -10.470931911197786 a41.436214166791366,41.436214166791366 0 0,0 0.37072428670328306,-0.6093732519523212 l 17.367044085056296 10.771472936357181" fill="#4DD2FF" stroke="none" /><path d="M 82.15384107792192 138.9313681185102 l -30.314678764396916 -18.80191817823699 a56.672004089617616,56.672004089617616 0 0,0 0.5213079645500033,-0.8245840075396315 l 29.98654320360095 19.320949833490836" fill="#4DD2FF" stroke="none" /><path d="M 82.54541684631803 138.32363383020206 l -39.08210591131784 -26.144249638589013 a68.02055711737502,68.02055711737502 0 0,0 0.6593962505085517,-0.9675826323976122 l 38.62628519514055 26.81311029425704" fill="#4DD2FF" stroke="none" /><path d="M 82.95767976084542 137.72973835380427 l -49.19178472604961 -35.41748194856748 a81.61542470453466,81.61542470453466 0 0,0 0.8306794121398811,-1.133045784622508 l 48.57484270139609 36.25899017686149" fill="#4DD2FF" stroke="none" /><path d="M 83.17141714833178 137.43820079747576 l -23.665469407488985 -17.665235234046303 a50.53159288204732,50.53159288204732 0 0,0 0.5263083401001863,-0.6925600824016749 l 23.357885127164693 18.069980092329004" fill="#4DD2FF" stroke="none" /><path d="M 83.39014120810768 137.1503855733568 l -23.950801948460445 -18.52866867217655 a51.281223171095206,51.281223171095206 0 0,0 0.5461350621126354,-0.6935360679991547 l 23.628312805753836 18.938197134128753" fill="#4DD2FF" stroke="none" /><path d="M 84.5562425177563 135.77008943001954 l -27.055322975135773 -24.928831394870294 a57.78908990451898,57.78908990451898 0 0,0 0.6803500694278246,-0.725750018028837 l 26.622205583737493 25.390850829777182" fill="#4DD2FF" stroke="none" /><path d="M 84.80347519578584 135.5063588468976 l -34.738113408914955 -33.13137421688462 a69.0044214704217,69.0044214704217 0 0,0 0.8271847069808074,-0.8524865521322464 l 34.16266443823103 33.72442496456699" fill="#4DD2FF" stroke="none" /><path d="M 85.83668400450813 134.4951465659348 l -19.280585804967142 -21.106826757525297 a49.58739450798002,49.58739450798002 0 0,0 0.6351649655424046,-0.5702573774393331 l 18.914409851828765 21.435583143733908" fill="#4DD2FF" stroke="none" /><path d="M 86.37877921826538 134.01681056812373 l -20.939064748245144 -24.569973848915545 a53.28200810773079,53.28200810773079 0 0,0 0.7031765220352935,-0.5888901149303725 l 20.51303068925074 24.92676512123973" fill="#4DD2FF" stroke="none" /><path d="M 88.39885842347998 132.49532879139005 l -16.18860166968985 -24.426574547509215 a50.30406743346237,50.30406743346237 0 0,0 0.7258948175957087,-0.4721421814422253 l 15.765739826309852 24.701615653110977" fill="#4DD2FF" stroke="none" /><path d="M 89.00827224532344 132.10637205687252 l -10.647558854780389 -17.333349306157313 a41.34245579410894,41.34245579410894 0 0,0 0.6095805995036224,-0.367265490557056 l 10.347616189059117 17.51406140617299" fill="#4DD2FF" stroke="none" /><line stroke="white" stroke-width="0.3" x1="56.762969772571076" x2="54.21961505331055" y1="76.8183136494355" y2="72.51350856999053" /><path d="M 56.25429882871897 75.9573526335465 a86.0,86.0 0 0,1 42.265352541879196,-11.944610805530505" fill="none" id="id12" stroke="none" /><text fill="white" style="font-size:4px; font-family:Arial" text-anchor="middle"><textPath startOffset="22.20632615414155" xlink:href="#id12">December</textPath></text><path d="M 91.56875222667455 130.76684994638697 l -13.74740144005503 -31.36022589448197 a55.24112752972607,55.24112752972607 0 0,0 0.8741678055288057,-0.3742730333713026 l 13.205549876735917 31.59221845581606" fill="#4DD2FF" stroke="none" /><path d="M 91.90106846888425 130.62456947434976 l -11.010276539114331 -26.34036938480168 a49.54892727924412,49.54892727924412 0 0,0 0.7897535811883488,-0.3221603152982086 l 10.555239088337602 26.525990586283466" fill="#4DD2FF" stroke="none" /><path d="M 92.23578459929587 130.48803036053334 l -14.969803425091738 -37.62007297127336 a61.48907142612461,61.48907142612461 0 0,0 0.9868024875781597,-0.3828640342838479 l 14.320017772513904 37.87217970944776" fill="#4DD2FF" stroke="none" /><path d="M 93.25333710446033 130.11325718540243 l -12.750675513369579 -37.58441893019536 a60.68838964190497,60.68838964190497 0 0,0 0.992160316881515,-0.3270996573462719 l 12.101832374245655 37.79833231180086" fill="#4DD2FF" stroke="none" /><path d="M 94.28887869178378 129.79150937346287 l -9.001801647639907 -31.852383166256864 a54.09995085001632,54.09995085001632 0 0,0 0.8983222406806457,-0.24554540269725836 l 8.45218151773554 32.00261510978042" fill="#4DD2FF" stroke="none" /><path d="M 95.33964822691252 129.5236448225989 l -5.2907893939510044 -23.24633162350205 a44.84081345845766,44.84081345845766 0 0,0 0.7540885489394782,-0.16481454920924096 l 4.889858120858006 23.33395967080716" fill="#4DD2FF" stroke="none" /><path d="M 96.04723909329186 129.375362276772 l -5.692542782017531 -29.70243720125848 a51.24301273054329,51.24301273054329 0 0,0 0.8677269207794164,-0.1585715484015454 l 5.180420740135221 29.79602423101076" fill="#4DD2FF" stroke="none" /><path d="M 97.11714578562143 129.19881850522333 l -3.706965893104865 -26.747544136234783 a48.00319820785069,48.00319820785069 0 0,0 0.8194495020015462,-0.10638806371798472 l 3.246001662595461 26.807390523116904" fill="#4DD2FF" stroke="none" /><path d="M 97.47563105711357 129.15227682838747 l -3.5494449805683845 -29.313403881109533 a50.5275160954512,50.5275160954512 0 0,0 0.864341246211177,-0.09711881003294646 l 3.0443370308474895 29.370158644613078" fill="#4DD2FF" stroke="none" /><path d="M 98.19473922651362 129.07773832637324 l -2.3040116358233154 -26.702587820972187 a47.80180340862796,47.80180340862796 0 0,0 0.820392329268692,-0.06367823415595436 l 1.8440291171922893 26.7382913173166" fill="#4DD2FF" stroke="none" /><path d="M 98.91598698831166 129.02799685794201 l -2.166472827869631 -41.91395717889055 a62.96991078031699,62.96991078031699 0 0,0 1.0829600267589432,-0.04663453681917584 l 1.4446719687213636 41.94503944223391" fill="#FFFF00" stroke="none" /></svg>