<?xml version="1.0" encoding="utf-8"?>
<!-- Generator: Adobe Illustrator 20.1.0, SVG Export Plug-In . SVG Version: 6.00 Build 0)  -->
<svg version="1.1" id="Ebene_1" xmlns="http://www.w3.org/2000/svg" xmlns:xlink="http://www.w3.org/1999/xlink" x="0px" y="0px"
	 width="2500px" height="304.8px" viewBox="0 0 2500 304.8" style="enable-background:new 0 0 2500 304.8;" xml:space="preserve">
<style type="text/css">
	.st0{fill:#59B044;}
	.st1{fill:#3E9035;}
	.st2{opacity:0.9;fill:#2F9E37;}
	.st3{opacity:0.9;fill:#6BB54E;}
	.st4{opacity:0.9;fill:#6FC4C8;}
	.st5{opacity:0.9;fill:#479195;}
	.st6{opacity:0.9;fill:#2CB1AE;}
	.st7{opacity:0.9;fill:#328492;}
	.st8{opacity:0.9;fill:#38B7BE;}
	.st9{opacity:0.9;fill:#1B646C;}
	.st10{opacity:0.9;fill:#44A2A3;}
	.st11{opacity:0.9;fill:#147671;}
	.st12{opacity:0.9;fill:#32A29A;}
	.st13{opacity:0.9;fill:#39B8C2;}
	.st14{opacity:0.9;fill:#3BA7AA;}
	.st15{opacity:0.9;fill:#64C2D0;}
	.st16{opacity:0.9;fill:#59B044;}
	.st17{opacity:0.9;fill:#3E9035;}
	.st18{fill:#6BB54E;}
	.st19{fill:#FFFFFF;}
</style>
<g>
	<ellipse transform="matrix(0.1915 -0.9815 0.9815 0.1915 20.947 275.7978)" class="st0" cx="177.9" cy="125.2" rx="9.4" ry="9.4"/>
	<ellipse transform="matrix(0.1915 -0.9815 0.9815 0.1915 30.4701 295.053)" class="st1" cx="194.3" cy="129" rx="17.5" ry="17.5"/>
	
		<ellipse transform="matrix(0.1915 -0.9815 0.9815 0.1915 70.639 294.096)" class="st2" cx="213.8" cy="104.2" rx="14.4" ry="14.4"/>
	
		<ellipse transform="matrix(3.045424e-02 -0.9995 0.9995 3.045424e-02 14.8305 305.5266)" class="st3" cx="164.9" cy="145.1" rx="11.3" ry="11.3"/>
	
		<ellipse transform="matrix(0.3761 -0.9266 0.9266 0.3761 247.4901 611.9863)" class="st4" cx="578.2" cy="122.2" rx="13.1" ry="13.1"/>
	
		<ellipse transform="matrix(0.1915 -0.9815 0.9815 0.1915 270.1905 548.627)" class="st5" cx="468.1" cy="110.3" rx="17.8" ry="17.8"/>
	
		<ellipse transform="matrix(0.1915 -0.9815 0.9815 0.1915 47.8121 487.7675)" class="st6" cx="320" cy="214.9" rx="16.9" ry="16.9"/>
	
		<ellipse transform="matrix(0.1915 -0.9815 0.9815 0.1915 101.4678 213.6844)" class="st7" cx="180.4" cy="45.3" rx="6.9" ry="6.9"/>
	<ellipse transform="matrix(0.1915 -0.9815 0.9815 0.1915 52.9627 264.3636)" class="st7" cx="187" cy="100" rx="18.1" ry="18.1"/>
	
		<ellipse transform="matrix(0.1915 -0.9815 0.9815 0.1915 1.2732 402.6623)" class="st7" cx="245.1" cy="200.6" rx="34.4" ry="34.4"/>
	
		<ellipse transform="matrix(0.1915 -0.9815 0.9815 0.1915 146.9348 516.3681)" class="st7" cx="386.9" cy="169" rx="16.3" ry="16.3"/>
	
		<ellipse transform="matrix(0.3761 -0.9266 0.9266 0.3761 113.7236 455.9529)" class="st7" cx="395.4" cy="143.5" rx="9.4" ry="9.4"/>
	<ellipse transform="matrix(0.3761 -0.9266 0.9266 0.3761 2.1277 385.8287)" class="st8" cx="287.6" cy="191.3" rx="15" ry="15"/>
	
		<ellipse transform="matrix(0.3761 -0.9266 0.9266 0.3761 161.3551 487.3414)" class="st7" cx="442.6" cy="123.9" rx="14.4" ry="14.4"/>
	
		<ellipse transform="matrix(0.3761 -0.9266 0.9266 0.3761 254.8427 579.0391)" class="st7" cx="557.4" cy="100.3" rx="23.1" ry="23.1"/>
	
		<ellipse transform="matrix(0.1915 -0.9815 0.9815 0.1915 9.5234 339.4242)" class="st9" cx="210.8" cy="163.9" rx="26.3" ry="26.3"/>
	
		<ellipse transform="matrix(0.1915 -0.9815 0.9815 0.1915 61.6218 464.0143)" class="st9" cx="312.5" cy="194.6" rx="16.9" ry="16.9"/>
	
		<ellipse transform="matrix(0.1915 -0.9815 0.9815 0.1915 350.7516 583.3463)" class="st9" cx="529.5" cy="78.8" rx="16.9" ry="16.9"/>
	
		<ellipse transform="matrix(0.1915 -0.9815 0.9815 0.1915 342.9759 681.0449)" class="st9" cx="584.9" cy="132.3" rx="5.6" ry="5.6"/>
	
		<ellipse transform="matrix(0.3761 -0.9266 0.9266 0.3761 125.625 468.4405)" class="st9" cx="410.7" cy="140.9" rx="16.3" ry="16.3"/>
	
		<ellipse transform="matrix(0.1915 -0.9815 0.9815 0.1915 20.2139 455.6964)" class="st5" cx="286.7" cy="215.6" rx="18.1" ry="18.1"/>
	
		<ellipse transform="matrix(0.1915 -0.9815 0.9815 0.1915 87.5432 495.185)" class="st5" cx="344.4" cy="194.5" rx="18.1" ry="18.1"/>
	<ellipse transform="matrix(0.1915 -0.9815 0.9815 0.1915 13.0818 295.9059)" class="st5" cx="186.2" cy="140" rx="25" ry="25"/>
	
		<ellipse transform="matrix(0.3761 -0.9266 0.9266 0.3761 213.1624 511.4293)" class="st5" cx="486.3" cy="97.4" rx="11.3" ry="11.3"/>
	
		<ellipse transform="matrix(0.1915 -0.9815 0.9815 0.1915 179.7919 520.2749)" class="st4" cx="405.7" cy="151" rx="11.3" ry="11.3"/>
	
		<ellipse transform="matrix(0.1915 -0.9815 0.9815 0.1915 205.5693 536.153)" class="st10" cx="428.2" cy="143.3" rx="16.9" ry="16.9"/>
	<ellipse transform="matrix(0.1915 -0.9815 0.9815 0.1915 54.6072 412.6592)" class="st4" cx="277.8" cy="173.2" rx="10" ry="10"/>
	
		<ellipse transform="matrix(0.1915 -0.9815 0.9815 0.1915 -14.2147 320.6335)" class="st4" cx="187.5" cy="168.9" rx="11.9" ry="11.9"/>
	<ellipse transform="matrix(0.1915 -0.9815 0.9815 0.1915 50.863 287.2004)" class="st4" cx="199.8" cy="112.7" rx="8.1" ry="8.1"/>
	
		<ellipse transform="matrix(0.1915 -0.9815 0.9815 0.1915 239.2695 554.9738)" class="st4" cx="456.5" cy="132.2" rx="14.4" ry="14.4"/>
	<ellipse transform="matrix(0.3761 -0.9266 0.9266 0.3761 151.8318 465.7899)" class="st6" cx="421.8" cy="120.2" rx="10" ry="10"/>
	
		<ellipse transform="matrix(0.1915 -0.9815 0.9815 0.1915 -28.3036 357.5006)" class="st6" cx="202.9" cy="195.9" rx="12.5" ry="12.5"/>
	
		<ellipse transform="matrix(0.1915 -0.9815 0.9815 0.1915 115.6526 495.3337)" class="st6" cx="358.5" cy="177.5" rx="23.8" ry="23.8"/>
	
		<ellipse transform="matrix(0.3761 -0.9266 0.9266 0.3761 221.3414 519.3283)" class="st6" cx="496.3" cy="95.3" rx="12.4" ry="12.4"/>
	
		<ellipse transform="matrix(0.3761 -0.9266 0.9266 0.3761 236.9047 517.3553)" class="st6" cx="502.6" cy="82.8" rx="15.1" ry="15.1"/>
	
		<ellipse transform="matrix(0.1915 -0.9815 0.9815 0.1915 80.4636 235.0045)" class="st11" cx="182.9" cy="68.7" rx="11.9" ry="11.9"/>
	
		<ellipse transform="matrix(0.1915 -0.9815 0.9815 0.1915 -37.675 371.7986)" class="st11" cx="206.8" cy="208.8" rx="6.9" ry="6.9"/>
	
		<ellipse transform="matrix(0.3761 -0.9266 0.9266 0.3761 229.7408 646.4039)" class="st12" cx="594.9" cy="152.6" rx="6.9" ry="6.9"/>
	
		<ellipse transform="matrix(0.1915 -0.9815 0.9815 0.1915 259.4004 528.7017)" class="st11" cx="450.6" cy="106.9" rx="9.9" ry="9.9"/>
	
		<ellipse transform="matrix(0.3761 -0.9266 0.9266 0.3761 226.4372 499.0353)" class="st11" cx="483.8" cy="81.4" rx="5.2" ry="5.2"/>
	
		<ellipse transform="matrix(0.1915 -0.9815 0.9815 0.1915 324.3797 726.2391)" class="st11" cx="603" cy="166.2" rx="3.1" ry="3.1"/>
	<ellipse transform="matrix(0.1915 -0.9815 0.9815 0.1915 64.2874 514.017)" class="st13" cx="344.2" cy="218" rx="4.4" ry="4.4"/>
	
		<ellipse transform="matrix(0.1915 -0.9815 0.9815 0.1915 207.0558 527.2105)" class="st14" cx="423.5" cy="137.9" rx="3.8" ry="3.8"/>
	
		<ellipse transform="matrix(0.3761 -0.9266 0.9266 0.3761 243.6405 555.7123)" class="st13" cx="534.5" cy="96.9" rx="4.6" ry="4.6"/>
	
		<ellipse transform="matrix(0.3761 -0.9266 0.9266 0.3761 212.529 513.4563)" class="st15" cx="487.5" cy="98.9" rx="5.2" ry="5.2"/>
	
		<ellipse transform="matrix(0.1915 -0.9815 0.9815 0.1915 41.4746 370.0421)" class="st13" cx="245.4" cy="159.8" rx="4.4" ry="4.4"/>
	
		<ellipse transform="matrix(0.1915 -0.9815 0.9815 0.1915 36.6155 319.3281)" class="st13" cx="212.1" cy="137.4" rx="6.9" ry="6.9"/>
	
		<ellipse transform="matrix(0.1915 -0.9815 0.9815 0.1915 118.9043 197.6151)" class="st13" cx="179.4" cy="26.6" rx="4.1" ry="4.1"/>
	
		<ellipse transform="matrix(0.1915 -0.9815 0.9815 0.1915 54.1008 244.7599)" class="st13" cx="175.6" cy="89.5" rx="7.5" ry="7.5"/>
	
		<ellipse transform="matrix(0.1915 -0.9815 0.9815 0.1915 153.3455 494.8134)" class="st9" cx="377" cy="154.3" rx="13.8" ry="13.8"/>
	
		<ellipse transform="matrix(0.1915 -0.9815 0.9815 0.1915 66.9367 322.3216)" class="st16" cx="229.1" cy="120.5" rx="12.5" ry="12.5"/>
	
		<ellipse transform="matrix(0.1915 -0.9815 0.9815 0.1915 -121.3165 255.1884)" class="st16" cx="94.2" cy="201.2" rx="12.5" ry="12.5"/>
	
		<ellipse transform="matrix(0.1915 -0.9815 0.9815 0.1915 206.3642 441.2117)" class="st16" cx="371" cy="95.3" rx="35.6" ry="35.6"/>
	
		<ellipse transform="matrix(0.1915 -0.9815 0.9815 0.1915 216.9604 504.1896)" class="st17" cx="414.5" cy="120.4" rx="27.9" ry="27.9"/>
	<ellipse transform="matrix(0.1915 -0.9815 0.9815 0.1915 136.669 344.234)" class="st17" cx="277.3" cy="89.2" rx="30" ry="30"/>
	
		<ellipse transform="matrix(0.1915 -0.9815 0.9815 0.1915 97.557 334.7637)" class="st17" cx="252" cy="108.2" rx="14.4" ry="14.4"/>
	
		<ellipse transform="matrix(0.1915 -0.9815 0.9815 0.1915 147.1058 388.0064)" class="st17" cx="309.1" cy="104.7" rx="6.3" ry="6.3"/>
	
		<ellipse transform="matrix(0.1915 -0.9815 0.9815 0.1915 -31.8063 283.5695)" class="st18" cx="156.2" cy="161.1" rx="5.6" ry="5.6"/>
	
		<ellipse transform="matrix(0.1915 -0.9815 0.9815 0.1915 105.3589 311.4606)" class="st3" cx="241.7" cy="91.8" rx="18.1" ry="18.1"/>
	
		<ellipse transform="matrix(0.1915 -0.9815 0.9815 0.1915 188.5025 493.3798)" class="st3" cx="393.7" cy="132.3" rx="16.3" ry="16.3"/>
	
		<ellipse transform="matrix(0.1915 -0.9815 0.9815 0.1915 -29.7635 267.7542)" class="st18" cx="147.6" cy="151.9" rx="6.3" ry="6.3"/>
	
		<ellipse transform="matrix(3.045424e-02 -0.9995 0.9995 3.045424e-02 411.3836 773.1634)" class="st2" cx="604.2" cy="174.5" rx="3.2" ry="3.2"/>
	
		<ellipse transform="matrix(0.1915 -0.9815 0.9815 0.1915 183.3881 384.0338)" class="st2" cx="324.8" cy="80.7" rx="27.5" ry="27.5"/>
	<ellipse transform="matrix(0.1915 -0.9815 0.9815 0.1915 -100.8674 249.5395)" class="st16" cx="101" cy="186" rx="5.6" ry="5.6"/>
	
		<ellipse transform="matrix(0.1915 -0.9815 0.9815 0.1915 -249.4534 242.2997)" class="st16" cx="22.3" cy="272.6" rx="3.8" ry="3.8"/>
	
		<ellipse transform="matrix(0.1915 -0.9815 0.9815 0.1915 -51.3217 274.2462)" class="st17" cx="140.8" cy="168.3" rx="11.3" ry="11.3"/>
	
		<ellipse transform="matrix(0.1915 -0.9815 0.9815 0.1915 -150.9984 250.4663)" class="st17" cx="76.5" cy="216.9" rx="8.8" ry="8.8"/>
	
		<ellipse transform="matrix(0.1915 -0.9815 0.9815 0.1915 251.8289 493.4448)" class="st3" cx="425.4" cy="93.9" rx="7.5" ry="7.5"/>
	
		<ellipse transform="matrix(0.1915 -0.9815 0.9815 0.1915 -183.8554 246.5595)" class="st3" cx="57.7" cy="234.9" rx="7.5" ry="7.5"/>
	
		<ellipse transform="matrix(0.1915 -0.9815 0.9815 0.1915 -87.412 269.3778)" class="st2" cx="119.8" cy="187.7" rx="6.9" ry="6.9"/>
	
		<ellipse transform="matrix(0.1915 -0.9815 0.9815 0.1915 -217.033 243.7305)" class="st2" cx="39.4" cy="253.6" rx="5.6" ry="5.6"/>
	
		<ellipse transform="matrix(3.045424e-02 -0.9995 0.9995 3.045424e-02 279.2665 586.5627)" class="st16" cx="442" cy="149.3" rx="22.5" ry="22.5"/>
	
		<ellipse transform="matrix(3.045424e-02 -0.9995 0.9995 3.045424e-02 246.2953 591.6092)" class="st3" cx="428.1" cy="168.8" rx="11.3" ry="11.3"/>
	
		<ellipse transform="matrix(0.1915 -0.9815 0.9815 0.1915 221.4394 681.3864)" class="st3" cx="524.3" cy="206.3" rx="18.1" ry="18.1"/>
	
		<ellipse transform="matrix(3.045424e-02 -0.9995 0.9995 3.045424e-02 394.6363 770.956)" class="st16" cx="594.7" cy="182.1" rx="6.9" ry="6.9"/>
	<ellipse transform="matrix(0.1915 -0.9815 0.9815 0.1915 190.894 670.991)" class="st1" cx="502.7" cy="219.6" rx="5.6" ry="5.6"/>
	
		<ellipse transform="matrix(3.045424e-02 -0.9995 0.9995 3.045424e-02 289.0437 681.0786)" class="st17" cx="495.6" cy="191.5" rx="21.3" ry="21.3"/>
	
		<ellipse transform="matrix(3.045424e-02 -0.9995 0.9995 3.045424e-02 328.9456 751.9288)" class="st17" cx="552.1" cy="206.4" rx="12.5" ry="12.5"/>
	
		<ellipse transform="matrix(3.045424e-02 -0.9995 0.9995 3.045424e-02 310.397 699.3113)" class="st3" cx="515.7" cy="189.7" rx="6.9" ry="6.9"/>
	
		<ellipse transform="matrix(3.045424e-02 -0.9995 0.9995 3.045424e-02 372.6981 768.7787)" class="st3" cx="582.6" cy="192.3" rx="6.4" ry="6.4"/>
	
		<ellipse transform="matrix(3.045424e-02 -0.9995 0.9995 3.045424e-02 351.8663 762.8375)" class="st3" cx="569.2" cy="200" rx="8.1" ry="8.1"/>
	
		<ellipse transform="matrix(3.045424e-02 -0.9995 0.9995 3.045424e-02 263.8244 693.4842)" class="st3" cx="489.4" cy="210.7" rx="11.3" ry="11.3"/>
	
		<ellipse transform="matrix(3.045424e-02 -0.9995 0.9995 3.045424e-02 328.784 728.5019)" class="st2" cx="539.9" cy="194.8" rx="12.5" ry="12.5"/>
	
		<ellipse transform="matrix(3.045424e-02 -0.9995 0.9995 3.045424e-02 283.7443 635.2299)" class="st2" cx="469.3" cy="171.4" rx="25" ry="25"/>
</g>
<g>
	<path class="st19" d="M654.8,169.4l-4.5,36.9h-22l12.1-98.7h29.9c6.1,0,11.2,0.6,15.5,1.9c4.3,1.3,7.8,3.1,10.5,5.3s4.7,4.9,5.9,8
		c1.2,3.1,1.9,6.4,1.9,10.1c0,3.7-0.5,7.1-1.5,10.4c-1,3.3-2.4,6.2-4.2,9c-1.9,2.7-4.1,5.1-6.8,7.2c-2.7,2.1-5.7,3.8-9.2,5.2
		c1.4,0.8,2.6,1.7,3.8,2.8c1.2,1.1,2.1,2.4,2.8,4.1l14.4,34.8h-19.9c-1.9,0-3.4-0.4-4.7-1.1c-1.3-0.7-2.1-1.8-2.6-3.1l-10.7-29.2
		c-0.5-1.3-1.2-2.2-2-2.7c-0.8-0.5-2.1-0.8-3.7-0.8H654.8z M660.5,124l-3.7,30.1h8.1c3.2,0,5.8-0.5,8.1-1.5c2.2-1,4-2.3,5.4-3.9
		c1.4-1.6,2.4-3.5,3-5.7c0.6-2.2,0.9-4.4,0.9-6.8c0-1.9-0.3-3.5-0.8-5c-0.5-1.5-1.4-2.8-2.5-3.9c-1.2-1.1-2.6-1.9-4.3-2.5
		c-1.7-0.6-3.8-0.9-6.1-0.9H660.5z"/>
	<path class="st19" d="M747.9,188.9c2.8,0,5.3-0.5,7.5-1.6c2.3-1.1,4.2-2.6,6-4.5c1.7-2,3.1-4.3,4.3-7.1c1.1-2.8,1.9-5.9,2.3-9.4
		l7.2-58.7h22.1l-7.2,58.7c-0.8,6-2.4,11.5-4.8,16.6c-2.4,5-5.6,9.4-9.4,13c-3.9,3.6-8.3,6.5-13.4,8.5c-5.1,2-10.7,3-16.8,3
		c-5.5,0-10.4-0.8-14.7-2.5c-4.3-1.7-7.9-4-10.9-7.1c-3-3-5.2-6.7-6.7-10.9c-1.5-4.2-2.3-8.9-2.3-14c0-2.1,0.1-4.3,0.4-6.6l7-58.7
		h22.1l-7.2,58.7c-0.1,0.8-0.2,1.6-0.2,2.4c0,0.8-0.1,1.6-0.1,2.3c0,5.6,1.3,10,3.8,13.2C739.3,187.3,743,188.9,747.9,188.9z"/>
	<path class="st19" d="M824.1,107.7c0.7,0.1,1.2,0.2,1.8,0.5c0.5,0.2,1,0.6,1.4,1c0.4,0.5,0.8,1,1.2,1.8l34.6,61
		c0.1-1.6,0.2-3.1,0.4-4.5c0.2-1.4,0.3-2.8,0.5-4.1l6.6-55.8h19.5l-12.2,98.7h-11.5c-1.7,0-3.1-0.2-4.3-0.7
		c-1.1-0.5-2.1-1.5-2.9-2.9l-34.5-60.9c-0.1,1.3-0.2,2.5-0.3,3.7c-0.1,1.2-0.2,2.3-0.3,3.3l-6.8,57.6h-19.5l12.2-98.7h11.7
		C822.7,107.6,823.5,107.6,824.1,107.7z"/>
	<path class="st19" d="M976.4,206.3h-17.1c-1.9,0-3.4-0.4-4.6-1.3c-1.2-0.9-1.8-2-2.1-3.5l-3-17.8h-33.5l-7.3,17.8
		c-0.5,1.3-1.5,2.4-2.9,3.4c-1.4,1-3,1.5-4.8,1.5h-17.3l47.2-98.7h22.6L976.4,206.3z M922.3,168.7h24.8l-4.8-28.2
		c-0.4-2.3-0.8-4.7-1.3-7.1c-0.5-2.4-0.9-4.6-1.2-6.6c-0.4,1.1-0.8,2.3-1.4,3.7c-0.6,1.4-1.2,2.7-1.7,4c-0.6,1.3-1.1,2.5-1.6,3.7
		c-0.5,1.1-0.9,2-1.1,2.5L922.3,168.7z"/>
	<path class="st19" d="M1006.3,188.6h33.2l-2.2,17.6H982l12.2-98.7h22.1L1006.3,188.6z"/>
	<path class="st19" d="M1081.7,168.5l-4.7,37.8h-22.1l4.7-37.6l-25.4-61.1h19.6c1.9,0,3.4,0.4,4.4,1.3c1.1,0.9,1.8,2,2.3,3.5
		l9.5,29.9c0.6,2,1.2,3.9,1.7,5.8c0.5,1.9,1,3.6,1.3,5.4c0.9-1.7,1.8-3.5,2.8-5.3c1-1.8,2.1-3.8,3.3-5.8l16.8-29.9
		c0.7-1.2,1.7-2.3,3-3.3c1.3-1,2.9-1.5,4.7-1.5h18.3L1081.7,168.5z"/>
	<path class="st19" d="M1194.7,107.6l-0.9,6.6c-0.1,0.9-0.4,1.8-0.8,2.6c-0.4,0.8-0.9,1.6-1.5,2.4l-49.9,70.1h41.7l-2.2,17h-70.5
		l0.8-6.5c0.1-0.9,0.4-1.8,0.8-2.6c0.4-0.8,0.9-1.6,1.5-2.4l49.9-70.3h-39.5l2.2-17H1194.7z"/>
	<path class="st19" d="M1260.3,124.6h-36.5l-3,23.8h28l-2.2,16.4h-27.8l-3,24.5h36.8l-2.2,17h-58.9l12.2-98.7h58.8L1260.3,124.6z"/>
	<path class="st17" d="M1314.7,170.8l-4.3,35.5h-15.2l11.9-97.6h28.3c5.3,0,9.9,0.6,13.9,1.9c3.9,1.3,7.1,3.1,9.7,5.4
		c2.6,2.3,4.4,5.1,5.7,8.3c1.2,3.2,1.8,6.8,1.8,10.7c0,5.2-0.8,10-2.5,14.3c-1.6,4.4-4.1,8.1-7.4,11.3s-7.3,5.6-12.1,7.4
		c-4.8,1.8-10.4,2.7-16.7,2.7H1314.7z M1320.9,120.7l-4.7,38h13.1c3.6,0,6.8-0.6,9.5-1.7c2.7-1.1,5-2.6,6.8-4.6c1.8-2,3.2-4.3,4.1-7
		c0.9-2.7,1.4-5.7,1.4-9c0-4.8-1.4-8.6-4.2-11.4c-2.8-2.8-7.1-4.3-12.9-4.3H1320.9z"/>
	<path class="st17" d="M1464.2,150.8c0,5.4-0.6,10.6-1.8,15.5c-1.2,4.9-2.9,9.5-5,13.7c-2.2,4.2-4.8,8-8,11.3
		c-3.1,3.4-6.6,6.2-10.4,8.6c-3.8,2.4-8,4.2-12.5,5.5c-4.5,1.3-9.2,1.9-14.2,1.9c-6.1,0-11.6-1.1-16.5-3.3c-4.9-2.2-9.1-5.2-12.5-9
		c-3.4-3.8-6-8.3-7.9-13.6s-2.7-11-2.7-17.1c0-5.5,0.6-10.7,1.8-15.6c1.2-4.9,2.9-9.5,5-13.7s4.8-8,7.9-11.4s6.6-6.3,10.4-8.6
		c3.8-2.4,8-4.2,12.5-5.5s9.2-1.9,14.2-1.9c6.1,0,11.6,1.1,16.5,3.3s9,5.2,12.5,9c3.4,3.9,6.1,8.4,7.9,13.7
		C1463.3,138.9,1464.2,144.6,1464.2,150.8z M1448.5,151.1c0-4.7-0.6-8.9-1.8-12.6c-1.2-3.8-2.9-7-5.1-9.7c-2.2-2.7-4.9-4.8-8.1-6.2
		c-3.2-1.4-6.8-2.2-10.7-2.2c-5.1,0-9.8,1-14,3.1c-4.2,2.1-7.8,5-10.8,8.8c-3,3.8-5.3,8.4-7,13.7c-1.7,5.4-2.5,11.3-2.5,17.9
		c0,4.7,0.6,8.9,1.8,12.6c1.2,3.8,2.9,7,5,9.7c2.2,2.7,4.9,4.8,8,6.2c3.2,1.4,6.8,2.2,10.8,2.2c5.1,0,9.8-1,14.1-3.1
		c4.2-2.1,7.8-5,10.9-8.7c3-3.8,5.4-8.3,7-13.7C1447.7,163.7,1448.5,157.7,1448.5,151.1z"/>
	<path class="st17" d="M1474.7,108.7h12c1.3,0,2.4,0.3,3.2,1c0.8,0.7,1.3,1.5,1.4,2.6l9.5,63.9c0.1,1.4,0.2,2.8,0.3,4.3
		c0.1,1.5,0.2,3.1,0.3,4.7c0.5-1.7,1-3.3,1.6-4.8c0.5-1.5,1.1-3,1.7-4.3l26.6-63.9c0.4-0.9,1.1-1.7,2.1-2.5c1-0.7,2.1-1.1,3.4-1.1
		h3.5c1.3,0,2.4,0.3,3.2,1c0.8,0.7,1.3,1.5,1.6,2.6l10.9,63.9c0.2,1.3,0.4,2.7,0.6,4.2c0.2,1.5,0.3,3,0.4,4.7c0.5-1.6,1-3.2,1.4-4.7
		c0.5-1.5,0.9-2.9,1.4-4.2l25.1-63.9c0.3-0.9,1-1.8,2.1-2.5c1.1-0.7,2.2-1.1,3.6-1.1h12l-39.9,97.6h-13.8l-12.1-70.9
		c-0.1-0.8-0.3-1.6-0.4-2.6s-0.2-1.9-0.3-3c-0.4,1-0.7,2-1,3s-0.7,1.8-1,2.6l-29.5,70.9h-13.8L1474.7,108.7z"/>
	<path class="st17" d="M1671.2,108.7l-1.6,12.4h-40.9l-3.7,30h32.7l-1.6,11.9h-32.5l-3.9,30.8h41.1l-1.6,12.4H1603l12-97.6H1671.2z"
		/>
	<path class="st17" d="M1695.8,166.7l-4.9,39.6h-15.2l11.9-97.6h26.7c5.4,0,10.1,0.6,14,1.7c3.9,1.2,7.1,2.8,9.7,4.8
		c2.5,2.1,4.4,4.6,5.6,7.5c1.2,2.9,1.8,6.2,1.8,9.7c0,3.8-0.6,7.4-1.7,10.8c-1.1,3.4-2.7,6.4-4.8,9.1s-4.6,5-7.6,7
		c-3,2-6.4,3.5-10.2,4.5c1.8,1.2,3.2,2.8,4.3,4.8l19.1,37.5H1731c-2.7,0-4.5-1.1-5.4-3.2l-16.2-33.2c-0.6-1.1-1.3-1.9-2.1-2.4
		c-0.8-0.5-2-0.7-3.6-0.7H1695.8z M1701.4,120.7l-4.3,35h11.2c3.7,0,6.9-0.5,9.6-1.6c2.8-1.1,5-2.5,6.8-4.4c1.8-1.9,3.2-4,4.1-6.6
		c0.9-2.5,1.4-5.3,1.4-8.2c0-4.6-1.4-8.1-4.3-10.5c-2.8-2.5-7.2-3.7-12.9-3.7H1701.4z"/>
	<path class="st17" d="M1824.2,108.7l-1.6,12.4h-40.9l-3.7,30h32.7l-1.6,11.9h-32.5l-3.9,30.8h41.1l-1.6,12.4H1756l12-97.6H1824.2z"
		/>
	<path class="st17" d="M1914.4,150.8c0,5.5-0.6,10.6-1.8,15.5c-1.2,4.9-2.8,9.3-5,13.4c-2.2,4.1-4.8,7.8-7.9,11.1
		c-3.1,3.3-6.5,6.1-10.4,8.4c-3.8,2.3-8,4-12.5,5.3c-4.5,1.2-9.2,1.8-14.2,1.8h-34l12-97.6h34.1c6.1,0,11.6,1,16.5,3.1
		c4.9,2.1,9.1,5,12.5,8.7c3.4,3.7,6,8.2,7.9,13.3C1913.5,139,1914.4,144.6,1914.4,150.8z M1898.8,151.2c0-4.6-0.6-8.8-1.7-12.5
		c-1.2-3.7-2.8-6.9-5-9.5c-2.2-2.6-4.9-4.6-8-6c-3.2-1.4-6.7-2.1-10.7-2.1h-18.7l-9.1,72.9h18.7c5.1,0,9.8-1,14.1-2.9
		c4.2-2,7.9-4.8,10.9-8.5c3-3.7,5.4-8.2,7-13.4C1897.9,163.8,1898.8,157.8,1898.8,151.2z"/>
	<path class="st17" d="M2027.2,206.3h-11.8c-1.4,0-2.4-0.3-3.2-1c-0.7-0.7-1.3-1.5-1.6-2.6l-4.7-21.9h-37.9l-10,21.9
		c-0.5,0.9-1.2,1.8-2.1,2.5c-1,0.7-2.1,1.1-3.4,1.1h-11.9l47.5-97.6h15.5L2027.2,206.3z M1973.1,169.8h30.6l-7.7-36.5
		c-0.3-1.4-0.6-3-0.9-4.8c-0.3-1.8-0.6-3.8-0.9-5.9c-0.8,2.1-1.5,4.1-2.3,5.9c-0.8,1.8-1.5,3.5-2.1,4.9L1973.1,169.8z"/>
	<path class="st17" d="M2102.8,108.7l-1.6,12.7h-27.6l-10.4,84.8H2048l10.4-84.8h-27.8l1.5-12.7H2102.8z"/>
	<path class="st17" d="M2178.6,206.3h-15.3l5.4-43.6h-44.2l-5.4,43.6h-15.3l12-97.6h15.4l-5.4,43h44.2l5.3-43h15.4L2178.6,206.3z"/>
	<path class="st17" d="M2217.4,193.5h36.9l-1.6,12.8h-52.2l12-97.6h15.2L2217.4,193.5z"/>
	<path class="st17" d="M2333.8,108.7l-1.6,12.4h-40.9l-3.7,30h32.7l-1.6,11.9h-32.5l-3.9,30.8h41.1l-1.6,12.4h-56.3l12-97.6H2333.8z
		"/>
	<path class="st17" d="M2412,108.7l-1.6,12.7h-27.6l-10.4,84.8h-15.2l10.4-84.8h-27.8l1.5-12.7H2412z"/>
	<path class="st17" d="M2481.3,108.7l-1.6,12.4h-40.9l-3.7,30h32.7l-1.6,11.9h-32.5l-3.9,30.8h41.1l-1.6,12.4h-56.3l12-97.6H2481.3z
		"/>
</g>
</svg>
