<?xml version="1.0" encoding="utf-8"?>
<!-- Generator: Adobe Illustrator 20.1.0, SVG Export Plug-In . SVG Version: 6.00 Build 0)  -->
<svg version="1.1" id="Ebene_1" xmlns="http://www.w3.org/2000/svg" xmlns:xlink="http://www.w3.org/1999/xlink" x="0px" y="0px"
	 width="800px" height="130px" viewBox="0 0 800 130" style="enable-background:new 0 0 800 130;" xml:space="preserve">
<style type="text/css">
	.st0{fill:#59B044;}
	.st1{fill:#3E9035;}
	.st2{opacity:0.9;fill:#2F9E37;}
	.st3{opacity:0.9;fill:#6BB54E;}
	.st4{opacity:0.9;fill:#6FC4C8;}
	.st5{opacity:0.9;fill:#479195;}
	.st6{opacity:0.9;fill:#2CB1AE;}
	.st7{opacity:0.9;fill:#328492;}
	.st8{opacity:0.9;fill:#38B7BE;}
	.st9{opacity:0.9;fill:#1B646C;}
	.st10{opacity:0.9;fill:#44A2A3;}
	.st11{opacity:0.9;fill:#147671;}
	.st12{opacity:0.9;fill:#32A29A;}
	.st13{opacity:0.9;fill:#39B8C2;}
	.st14{opacity:0.9;fill:#3BA7AA;}
	.st15{opacity:0.9;fill:#64C2D0;}
	.st16{opacity:0.9;fill:#59B044;}
	.st17{opacity:0.9;fill:#3E9035;}
	.st18{fill:#6BB54E;}
	.st19{fill:#FFFFFF;}
	.st20{fill:#CCCCCC;}
</style>
<g>
	<path class="st0" d="M97.2,54.7c-0.5,2.5-2.9,4.2-5.4,3.7c-2.5-0.5-4.1-2.9-3.7-5.4c0.5-2.5,2.9-4.2,5.4-3.7
		C96.1,49.7,97.7,52.1,97.2,54.7z"/>
	<path class="st1" d="M109.3,57.3c-0.9,4.7-5.5,7.8-10.1,6.8c-4.7-0.9-7.7-5.5-6.8-10.2s5.5-7.8,10.1-6.8
		C107.2,48.1,110.2,52.6,109.3,57.3z"/>
	<path class="st2" d="M117.4,44.7c-0.8,3.9-4.5,6.4-8.3,5.6c-3.8-0.8-6.4-4.5-5.6-8.4s4.5-6.4,8.3-5.6
		C115.7,37.1,118.2,40.9,117.4,44.7z"/>
	
		<ellipse transform="matrix(3.056115e-02 -0.9995 0.9995 3.056115e-02 20.0524 147.9528)" class="st3" cx="86.3" cy="63.6" rx="5.6" ry="5.6"/>
	<path class="st4" d="M296.2,54.7c-1.3,3.3-5.1,4.9-8.4,3.6c-3.3-1.4-4.9-5.1-3.6-8.5c1.3-3.3,5.1-4.9,8.4-3.6
		C296,47.6,297.6,51.4,296.2,54.7z"/>
	<path class="st5" d="M244.6,48.1c-0.9,4.8-5.5,7.9-10.3,7c-4.8-0.9-7.9-5.6-6.9-10.4s5.5-7.9,10.3-7
		C242.4,38.7,245.5,43.3,244.6,48.1z"/>
	<path class="st6" d="M171,99.8c-0.9,4.5-5.3,7.5-9.8,6.6c-4.5-0.9-7.5-5.3-6.6-9.8c0.9-4.5,5.3-7.5,9.8-6.6
		C168.9,90.9,171.9,95.2,171,99.8z"/>
	<ellipse transform="matrix(0.1922 -0.9814 0.9814 0.1922 61.9882 103.6727)" class="st7" cx="94" cy="14.2" rx="3.4" ry="3.4"/>
	<path class="st7" d="M106,43c-0.9,4.9-5.6,8-10.5,7.1s-8-5.7-7.1-10.5s5.6-8,10.5-7.1C103.7,33.4,106.9,38.2,106,43z"/>
	<path class="st7" d="M142.5,94.4c-1.8,9.2-10.7,15.3-19.9,13.5c-9.2-1.8-15.2-10.7-13.4-20s10.7-15.3,19.9-13.5
		C138.3,76.2,144.3,85.1,142.5,94.4z"/>
	<path class="st7" d="M203.7,77c-0.8,4.4-5.1,7.2-9.4,6.4c-4.3-0.9-7.2-5.1-6.3-9.4c0.8-4.4,5.1-7.2,9.4-6.4
		C201.7,68.4,204.6,72.6,203.7,77z"/>
	<path class="st7" d="M204.3,64.6c-1,2.4-3.7,3.5-6,2.6s-3.5-3.7-2.5-6.1c1-2.4,3.7-3.5,6-2.6C204.2,59.5,205.3,62.2,204.3,64.6z"/>
	<path class="st8" d="M153.7,89.3c-1.5,3.8-5.9,5.6-9.6,4.1c-3.8-1.5-5.6-5.9-4.1-9.7s5.9-5.6,9.6-4.1S155.2,85.5,153.7,89.3z"/>
	<path class="st7" d="M229.9,55.8c-1.5,3.6-5.6,5.4-9.2,3.9s-5.4-5.6-3.9-9.3c1.5-3.6,5.6-5.4,9.2-3.9
		C229.6,48,231.4,52.1,229.9,55.8z"/>
	<path class="st7" d="M290.6,45.7c-2.4,5.9-9,8.7-14.9,6.3c-5.8-2.4-8.7-9.1-6.3-14.9c2.4-5.9,9-8.7,14.9-6.3S292.9,39.9,290.6,45.7
		z"/>
	<path class="st9" d="M121.7,75.4c-1.4,7-8.2,11.6-15.2,10.3c-7-1.4-11.6-8.2-10.2-15.3s8.2-11.6,15.2-10.3
		C118.5,61.6,123,68.4,121.7,75.4z"/>
	<path class="st9" d="M167.3,89.7c-0.9,4.5-5.3,7.5-9.8,6.6c-4.5-0.9-7.5-5.3-6.6-9.8c0.9-4.5,5.3-7.5,9.8-6.6
		C165.2,80.8,168.2,85.2,167.3,89.7z"/>
	<path class="st9" d="M274.4,32.4c-0.9,4.5-5.3,7.5-9.8,6.6c-4.5-0.9-7.5-5.3-6.6-9.8c0.9-4.5,5.3-7.5,9.8-6.6
		C272.3,23.5,275.3,27.9,274.4,32.4z"/>
	
		<ellipse transform="matrix(0.1922 -0.9814 0.9814 0.1922 180.8932 334.3702)" class="st9" cx="293.5" cy="57.3" rx="2.8" ry="2.8"/>
	<path class="st9" d="M215,64.6c-1.7,4.1-6.3,6.1-10.5,4.4c-4.1-1.7-6.1-6.4-4.4-10.5s6.3-6.1,10.5-4.4
		C214.7,55.8,216.7,60.5,215,64.6z"/>
	<path class="st5" d="M155.2,100.3c-0.9,4.9-5.6,8-10.5,7.1c-4.9-0.9-8-5.7-7.1-10.5c0.9-4.9,5.6-8,10.5-7.1
		C153,90.7,156.1,95.4,155.2,100.3z"/>
	<path class="st5" d="M183.6,89.8c-0.9,4.9-5.6,8-10.5,7.1s-8-5.7-7.1-10.5c0.9-4.9,5.6-8,10.5-7.1
		C181.4,80.2,184.6,84.9,183.6,89.8z"/>
	<path class="st5" d="M108.9,63.5c-1.3,6.7-7.8,11.1-14.5,9.8c-6.7-1.3-11.1-7.8-9.7-14.5C86,52,92.5,47.6,99.2,49
		C105.8,50.3,110.2,56.8,108.9,63.5z"/>
	<path class="st5" d="M250.1,42.1c-1.2,2.9-4.4,4.2-7.2,3.1c-2.8-1.2-4.2-4.4-3.1-7.3c1.2-2.9,4.4-4.2,7.2-3.1
		C249.9,36,251.2,39.3,250.1,42.1z"/>
	<path class="st4" d="M210.6,67.6c-0.6,3-3.5,5-6.5,4.4c-3-0.6-5-3.5-4.4-6.5c0.6-3,3.5-5,6.5-4.4C209.2,61.7,211.2,64.6,210.6,67.6
		z"/>
	<path class="st10" d="M224.4,64.3c-0.9,4.5-5.3,7.5-9.8,6.6c-4.5-0.9-7.5-5.3-6.6-9.8c0.9-4.5,5.3-7.5,9.8-6.6
		C222.4,55.4,225.3,59.8,224.4,64.3z"/>
	<path class="st4" d="M146.8,78.5c-0.5,2.7-3.1,4.4-5.8,3.9c-2.7-0.5-4.4-3.1-3.9-5.8s3.1-4.4,5.8-3.9
		C145.6,73.2,147.4,75.8,146.8,78.5z"/>
	<path class="st4" d="M103.2,76.6c-0.6,3.2-3.7,5.3-6.9,4.6c-3.2-0.6-5.3-3.7-4.6-6.9c0.6-3.2,3.7-5.3,6.9-4.6
		C101.8,70.3,103.8,73.4,103.2,76.6z"/>
	<ellipse transform="matrix(0.1922 -0.9814 0.9814 0.1922 36.8994 140.0224)" class="st4" cx="103.5" cy="47.6" rx="4" ry="4"/>
	<path class="st4" d="M237.2,58.6c-0.8,3.9-4.5,6.4-8.3,5.6c-3.8-0.8-6.4-4.5-5.6-8.4c0.8-3.9,4.5-6.4,8.3-5.6
		S237.9,54.8,237.2,58.6z"/>
	<path class="st6" d="M217.6,53.1c-1,2.5-3.9,3.8-6.4,2.7c-2.5-1-3.7-3.9-2.7-6.5c1-2.5,3.9-3.8,6.4-2.7
		C217.4,47.7,218.7,50.6,217.6,53.1z"/>
	<path class="st6" d="M111.1,90c-0.7,3.4-3.9,5.5-7.2,4.9c-3.3-0.7-5.5-3.9-4.9-7.3c0.7-3.4,3.9-5.5,7.2-4.9
		C109.6,83.4,111.7,86.6,111.1,90z"/>
	<path class="st6" d="M193.3,81.9c-1.2,6.4-7.4,10.5-13.8,9.3s-10.5-7.4-9.3-13.8c1.2-6.4,7.4-10.5,13.8-9.3
		C190.4,69.4,194.6,75.5,193.3,81.9z"/>
	<path class="st6" d="M255.5,41.3c-1.3,3.1-4.8,4.7-8,3.4s-4.6-4.9-3.4-8c1.3-3.1,4.8-4.7,8-3.4S256.8,38.1,255.5,41.3z"/>
	<path class="st6" d="M259.8,35.6c-1.5,3.8-5.9,5.7-9.7,4.1c-3.8-1.6-5.6-5.9-4.1-9.7s5.9-5.7,9.7-4.1
		C259.6,27.4,261.4,31.7,259.8,35.6z"/>
	<path class="st11" d="M100.9,26.9c-0.6,3.2-3.7,5.3-6.9,4.6c-3.2-0.6-5.3-3.7-4.6-6.9s3.7-5.3,6.9-4.6
		C99.5,20.6,101.5,23.7,100.9,26.9z"/>
	<ellipse transform="matrix(0.1922 -0.9814 0.9814 0.1922 -6.9512 181.8725)" class="st11" cx="107" cy="95.2" rx="3.4" ry="3.4"/>
	<path class="st12" d="M301.6,68.6c-0.7,1.7-2.7,2.6-4.4,1.9s-2.6-2.7-1.9-4.4c0.7-1.7,2.7-2.6,4.4-1.9S302.3,66.9,301.6,68.6z"/>
	<path class="st11" d="M232.1,45.6c-0.5,2.6-3.1,4.4-5.7,3.9c-2.6-0.5-4.4-3.1-3.8-5.7c0.5-2.6,3.1-4.4,5.7-3.9
		C230.9,40.4,232.6,43,232.1,45.6z"/>
	<path class="st11" d="M246,33c-0.5,1.3-2,2-3.4,1.4s-2-2-1.4-3.4c0.5-1.3,2-2,3.4-1.4C245.9,30.2,246.6,31.7,246,33z"/>
	
		<ellipse transform="matrix(0.1922 -0.9814 0.9814 0.1922 171.6552 356.7077)" class="st11" cx="302.5" cy="74.1" rx="1.5" ry="1.5"/>
	
		<ellipse transform="matrix(0.1922 -0.9814 0.9814 0.1922 43.3052 252.0545)" class="st13" cx="174.8" cy="99.7" rx="2.2" ry="2.2"/>
	
		<ellipse transform="matrix(0.1922 -0.9814 0.9814 0.1922 113.8631 258.4736)" class="st14" cx="213.9" cy="60.1" rx="1.9" ry="1.9"/>
	<path class="st13" d="M270.8,40.6c-0.5,1.2-1.8,1.7-3,1.3s-1.7-1.8-1.3-3c0.5-1.2,1.8-1.7,3-1.3C270.7,38.1,271.3,39.5,270.8,40.6z
		"/>
	<path class="st15" d="M243.1,39.8c-0.5,1.3,0.1,2.8,1.4,3.4c1.3,0.5,2.8-0.1,3.4-1.4c0.5-1.3-0.1-2.8-1.4-3.4
		C245.2,37.8,243.7,38.5,243.1,39.8z"/>
	<ellipse transform="matrix(0.1922 -0.9814 0.9814 0.1922 32.1747 180.9505)" class="st13" cx="126" cy="70.9" rx="2.2" ry="2.2"/>
	
		<ellipse transform="matrix(0.1922 -0.9814 0.9814 0.1922 29.8242 155.9024)" class="st13" cx="109.6" cy="59.8" rx="3.4" ry="3.4"/>
	<ellipse transform="matrix(0.1922 -0.9814 0.9814 0.1922 70.6234 95.7229)" class="st13" cx="93.5" cy="5" rx="2" ry="2"/>
	<ellipse transform="matrix(0.1922 -0.9814 0.9814 0.1922 38.5429 119.0557)" class="st13" cx="91.6" cy="36.1" rx="3.7" ry="3.7"/>
	<path class="st9" d="M197.6,69.5c-0.7,3.7-4.3,6.1-8,5.4c-3.7-0.7-6.1-4.3-5.4-8c0.7-3.7,4.3-6.1,8-5.4
		C196,62.2,198.4,65.8,197.6,69.5z"/>
	<path class="st16" d="M124,52.6c-0.7,3.4-3.9,5.5-7.2,4.9c-3.3-0.7-5.5-3.9-4.9-7.3c0.7-3.4,3.9-5.5,7.2-4.9
		C122.5,46,124.7,49.3,124,52.6z"/>
	<path class="st16" d="M57.5,92.6c-0.7,3.4-3.9,5.5-7.2,4.9s-5.5-3.9-4.9-7.3c0.7-3.4,3.9-5.5,7.2-4.9C56,86,58.1,89.3,57.5,92.6z"
		/>
	<path class="st16" d="M205.3,42.4c-1.9,9.6-11.1,15.8-20.6,13.9c-9.5-1.9-15.8-11.1-13.9-20.7s11.1-15.8,20.6-13.9
		S207.1,32.8,205.3,42.4z"/>
	<path class="st17" d="M223,54c-1.5,7.5-8.7,12.4-16.2,10.9c-7.5-1.5-12.3-8.7-10.9-16.2s8.7-12.4,16.2-10.9
		C219.6,39.3,224.5,46.5,223,54z"/>
	<path class="st17" d="M156.3,38.8c-1.6,8.1-9.3,13.3-17.4,11.7c-8-1.6-13.3-9.4-11.7-17.4s9.3-13.3,17.4-11.7
		C152.6,22.9,157.9,30.7,156.3,38.8z"/>
	<path class="st17" d="M136.2,46.7c-0.8,3.9-4.5,6.4-8.3,5.6s-6.4-4.5-5.6-8.4c0.8-3.9,4.5-6.4,8.3-5.6S137,42.8,136.2,46.7z"/>
	
		<ellipse transform="matrix(0.1922 -0.9814 0.9814 0.1922 84.3706 189.7517)" class="st17" cx="157.4" cy="43.6" rx="3.1" ry="3.1"/>
	<ellipse transform="matrix(0.1922 -0.9814 0.9814 0.1922 -3.9608 138.2857)" class="st18" cx="82" cy="71.5" rx="2.8" ry="2.8"/>
	<path class="st3" d="M133,38.9c-0.9,4.9-5.6,8-10.5,7.1c-4.9-0.9-8-5.7-7.1-10.5c0.9-4.9,5.6-8,10.5-7.1
		C130.8,29.4,133.9,34.1,133,38.9z"/>
	<path class="st3" d="M207.1,58.8c-0.8,4.4-5.1,7.2-9.4,6.4c-4.3-0.9-7.2-5.1-6.3-9.4c0.8-4.4,5.1-7.2,9.4-6.4
		C205.1,50.2,207.9,54.5,207.1,58.8z"/>
	<ellipse transform="matrix(0.1922 -0.9814 0.9814 0.1922 -2.935 130.4719)" class="st18" cx="77.8" cy="67" rx="3.1" ry="3.1"/>
	
		<ellipse transform="matrix(3.056115e-02 -0.9995 0.9995 3.056115e-02 215.6655 378.765)" class="st2" cx="303.1" cy="78.2" rx="1.6" ry="1.6"/>
	<path class="st2" d="M178.5,34.3c-1.4,7.4-8.6,12.2-15.9,10.8c-7.4-1.4-12.2-8.6-10.7-16c1.4-7.4,8.6-12.2,15.9-10.8
		S180,27,178.5,34.3z"/>
	
		<ellipse transform="matrix(0.1922 -0.9814 0.9814 0.1922 -38.0636 121.5233)" class="st16" cx="54.8" cy="83.9" rx="2.8" ry="2.8"/>
	
		<ellipse transform="matrix(0.1922 -0.9814 0.9814 0.1922 -111.5031 118.0491)" class="st16" cx="16" cy="126.8" rx="1.9" ry="1.9"/>
	<path class="st17" d="M79.9,76.2c-0.6,3-3.5,5-6.5,4.4c-3-0.6-5-3.5-4.4-6.5c0.6-3,3.5-5,6.5-4.4C78.5,70.2,80.4,73.2,79.9,76.2z"
		/>
	<path class="st17" d="M46.9,100c-0.5,2.3-2.7,3.9-5.1,3.4c-2.3-0.5-3.9-2.7-3.4-5.1c0.5-2.3,2.7-3.9,5.1-3.4
		C45.9,95.4,47.4,97.7,46.9,100z"/>
	
		<ellipse transform="matrix(0.1922 -0.9814 0.9814 0.1922 136.0289 241.7634)" class="st3" cx="214.9" cy="38.3" rx="3.7" ry="3.7"/>
	<ellipse transform="matrix(0.1922 -0.9814 0.9814 0.1922 -79.082 120.1082)" class="st3" cx="33.4" cy="108.1" rx="3.7" ry="3.7"/>
	<ellipse transform="matrix(0.1922 -0.9814 0.9814 0.1922 -31.4326 131.3136)" class="st2" cx="64" cy="84.7" rx="3.4" ry="3.4"/>
	<ellipse transform="matrix(0.1922 -0.9814 0.9814 0.1922 -95.479 118.7336)" class="st2" cx="24.4" cy="117.4" rx="2.8" ry="2.8"/>
	
		<ellipse transform="matrix(3.056115e-02 -0.9995 0.9995 3.056115e-02 150.5218 286.6422)" class="st16" cx="223" cy="65.7" rx="11.1" ry="11.1"/>
	
		<ellipse transform="matrix(3.056115e-02 -0.9995 0.9995 3.056115e-02 134.2184 289.1643)" class="st3" cx="216.2" cy="75.4" rx="5.6" ry="5.6"/>
	<path class="st3" d="M272.4,95.6c-0.9,4.9-5.6,8-10.5,7.1c-4.9-0.9-8-5.7-7.1-10.5c0.9-4.9,5.6-8,10.5-7.1
		C270.2,86.1,273.4,90.8,272.4,95.6z"/>
	
		<ellipse transform="matrix(3.056115e-02 -0.9995 0.9995 3.056115e-02 207.3887 377.688)" class="st16" cx="298.4" cy="81.9" rx="3.4" ry="3.4"/>
	<ellipse transform="matrix(0.1922 -0.9814 0.9814 0.1922 105.7285 329.5084)" class="st1" cx="253" cy="100.5" rx="2.8" ry="2.8"/>
	
		<ellipse transform="matrix(3.056115e-02 -0.9995 0.9995 3.056115e-02 155.2707 333.3517)" class="st17" cx="249.5" cy="86.6" rx="10.5" ry="10.5"/>
	
		<ellipse transform="matrix(3.056115e-02 -0.9995 0.9995 3.056115e-02 174.9323 368.3383)" class="st17" cx="277.4" cy="94" rx="6.2" ry="6.2"/>
	
		<ellipse transform="matrix(3.056115e-02 -0.9995 0.9995 3.056115e-02 165.8101 342.3459)" class="st3" cx="259.4" cy="85.7" rx="3.4" ry="3.4"/>
	
		<ellipse transform="matrix(3.056115e-02 -0.9995 0.9995 3.056115e-02 196.5458 376.6302)" class="st3" cx="292.4" cy="87" rx="3.2" ry="3.2"/>
	
		<ellipse transform="matrix(3.056115e-02 -0.9995 0.9995 3.056115e-02 186.2532 373.7111)" class="st3" cx="285.8" cy="90.8" rx="4" ry="4"/>
	
		<ellipse transform="matrix(3.056115e-02 -0.9995 0.9995 3.056115e-02 142.7928 339.5048)" class="st3" cx="246.4" cy="96.1" rx="5.6" ry="5.6"/>
	
		<ellipse transform="matrix(3.056115e-02 -0.9995 0.9995 3.056115e-02 174.8734 356.7589)" class="st2" cx="271.4" cy="88.2" rx="6.2" ry="6.2"/>
	
		<ellipse transform="matrix(3.056115e-02 -0.9995 0.9995 3.056115e-02 152.6919 310.6939)" class="st2" cx="236.5" cy="76.6" rx="12.4" ry="12.3"/>
</g>
<g>
	<path class="st19" d="M328.1,75.7l-2.2,18.3H315l6-48.9h14.8c3,0,5.5,0.3,7.6,1c2.1,0.6,3.8,1.5,5.2,2.6s2.3,2.4,2.9,4
		c0.6,1.5,0.9,3.2,0.9,5c0,1.8-0.2,3.5-0.7,5.1c-0.5,1.6-1.2,3.1-2.1,4.4c-0.9,1.4-2,2.6-3.4,3.6c-1.3,1-2.8,1.9-4.5,2.6
		c0.7,0.4,1.3,0.8,1.9,1.4c0.6,0.5,1.1,1.2,1.4,2l7.1,17.2h-9.8c-0.9,0-1.7-0.2-2.3-0.5c-0.6-0.4-1.1-0.9-1.3-1.5l-5.3-14.5
		c-0.2-0.6-0.6-1.1-1-1.3c-0.4-0.3-1-0.4-1.8-0.4H328.1z M330.8,53.2L329,68.1h4c1.6,0,2.9-0.2,4-0.7c1.1-0.5,2-1.1,2.7-1.9
		c0.7-0.8,1.2-1.7,1.5-2.8c0.3-1.1,0.5-2.2,0.5-3.4c0-0.9-0.1-1.8-0.4-2.5c-0.3-0.7-0.7-1.4-1.3-1.9c-0.6-0.5-1.3-0.9-2.1-1.2
		c-0.9-0.3-1.9-0.4-3-0.4H330.8z"/>
	<path class="st19" d="M374,85.3c1.4,0,2.6-0.3,3.7-0.8c1.1-0.5,2.1-1.3,2.9-2.2c0.8-1,1.5-2.2,2.1-3.5c0.6-1.4,0.9-2.9,1.1-4.7
		l3.5-29.1h10.9l-3.5,29.1c-0.4,3-1.2,5.7-2.4,8.2c-1.2,2.5-2.7,4.6-4.6,6.4c-1.9,1.8-4.1,3.2-6.6,4.2c-2.5,1-5.3,1.5-8.3,1.5
		c-2.7,0-5.1-0.4-7.3-1.2c-2.1-0.8-3.9-2-5.4-3.5c-1.5-1.5-2.6-3.3-3.3-5.4c-0.8-2.1-1.1-4.4-1.1-6.9c0-1.1,0.1-2.1,0.2-3.3
		l3.5-29.1h10.9l-3.5,29.1c0,0.4-0.1,0.8-0.1,1.2c0,0.4,0,0.8,0,1.2c0,2.8,0.6,4.9,1.9,6.5C369.8,84.5,371.6,85.3,374,85.3z"/>
	<path class="st19" d="M411.6,45.1c0.3,0,0.6,0.1,0.9,0.2c0.3,0.1,0.5,0.3,0.7,0.5c0.2,0.2,0.4,0.5,0.6,0.9l17.1,30.2
		c0-0.8,0.1-1.5,0.2-2.2c0.1-0.7,0.2-1.4,0.2-2l3.3-27.6h9.6l-6,48.9h-5.7c-0.8,0-1.5-0.1-2.1-0.4c-0.6-0.2-1-0.7-1.4-1.4l-17-30.2
		c0,0.6-0.1,1.2-0.2,1.8c-0.1,0.6-0.1,1.1-0.2,1.6l-3.3,28.5h-9.6l6-48.9h5.8C410.9,45,411.3,45.1,411.6,45.1z"/>
	<path class="st19" d="M486.8,93.9h-8.4c-0.9,0-1.7-0.2-2.3-0.7c-0.6-0.4-0.9-1-1-1.7l-1.5-8.8H457l-3.6,8.8
		c-0.2,0.6-0.7,1.2-1.4,1.7c-0.7,0.5-1.5,0.7-2.4,0.7H441L464.3,45h11.2L486.8,93.9z M460.1,75.3h12.2l-2.4-14
		c-0.2-1.2-0.4-2.3-0.7-3.5c-0.2-1.2-0.4-2.3-0.6-3.3c-0.2,0.5-0.4,1.1-0.7,1.8c-0.3,0.7-0.6,1.3-0.9,2c-0.3,0.6-0.5,1.3-0.8,1.8
		s-0.4,1-0.6,1.2L460.1,75.3z"/>
	<path class="st19" d="M501.5,85.2h16.4l-1.1,8.7h-27.3l6-48.9h10.9L501.5,85.2z"/>
	<path class="st19" d="M538.7,75.2l-2.3,18.7h-10.9l2.3-18.6L515.3,45h9.7c0.9,0,1.7,0.2,2.2,0.7c0.5,0.4,0.9,1,1.2,1.7l4.7,14.8
		c0.3,1,0.6,1.9,0.9,2.9c0.3,0.9,0.5,1.8,0.7,2.7c0.4-0.9,0.9-1.7,1.4-2.6c0.5-0.9,1.1-1.9,1.6-2.9l8.3-14.8
		c0.3-0.6,0.8-1.2,1.5-1.6c0.6-0.5,1.4-0.7,2.3-0.7h9L538.7,75.2z"/>
	<path class="st19" d="M594.5,45l-0.5,3.3c-0.1,0.4-0.2,0.9-0.4,1.3c-0.2,0.4-0.5,0.8-0.7,1.2l-24.6,34.7h20.6l-1.1,8.4H553l0.4-3.2
		c0.1-0.4,0.2-0.9,0.4-1.3s0.5-0.8,0.7-1.2l24.6-34.8h-19.5l1.1-8.4H594.5z"/>
	<path class="st19" d="M626.9,53.5h-18l-1.5,11.8h13.8l-1.1,8.1h-13.7l-1.5,12.1H623l-1.1,8.4h-29.1l6-48.9h29L626.9,53.5z"/>
	<path class="st20" d="M626.9,88.7c0-0.8,0.2-1.6,0.5-2.2c0.3-0.7,0.7-1.3,1.2-1.8c0.5-0.5,1.1-0.9,1.9-1.2c0.7-0.3,1.5-0.5,2.3-0.5
		c0.8,0,1.6,0.2,2.3,0.5c0.7,0.3,1.3,0.7,1.9,1.2c0.5,0.5,1,1.1,1.3,1.8c0.3,0.7,0.5,1.4,0.5,2.2c0,0.8-0.2,1.6-0.5,2.3
		c-0.3,0.7-0.7,1.3-1.3,1.8c-0.5,0.5-1.2,0.9-1.9,1.2c-0.7,0.3-1.5,0.4-2.3,0.4c-0.8,0-1.6-0.1-2.3-0.4c-0.7-0.3-1.3-0.7-1.9-1.2
		c-0.5-0.5-0.9-1.1-1.2-1.8C627,90.2,626.9,89.5,626.9,88.7z"/>
	<path class="st20" d="M662.8,85.5c1.2,0,2.3-0.1,3.2-0.3c0.9-0.2,1.7-0.4,2.3-0.7c0.6-0.3,1.2-0.6,1.6-1c0.4-0.3,0.8-0.7,1.2-1
		c0.4-0.3,0.7-0.5,1-0.7c0.3-0.2,0.6-0.3,1-0.3c0.4,0,0.7,0.1,0.9,0.2c0.2,0.1,0.4,0.3,0.5,0.4l3.8,4.6c-2.1,2.5-4.6,4.4-7.5,5.8
		c-2.9,1.3-6.2,2-9.9,2c-3.1,0-5.8-0.5-8.2-1.6c-2.4-1.1-4.4-2.6-6-4.5c-1.6-1.9-2.9-4.2-3.7-6.8c-0.8-2.6-1.3-5.4-1.3-8.4
		c0-2.8,0.3-5.4,0.9-8c0.6-2.5,1.5-4.8,2.6-6.9c1.1-2.1,2.5-4,4.1-5.7c1.6-1.7,3.4-3.1,5.3-4.3c1.9-1.2,4-2.1,6.3-2.7
		c2.2-0.6,4.6-1,7-1c1.8,0,3.5,0.2,5,0.5s2.9,0.8,4.1,1.4c1.2,0.6,2.3,1.3,3.3,2.2c1,0.9,1.8,1.8,2.5,2.8l-3.8,4.4
		c-0.3,0.3-0.6,0.6-0.9,0.8c-0.4,0.2-0.8,0.4-1.4,0.4c-0.4,0-0.7-0.1-1-0.3c-0.3-0.2-0.6-0.4-1-0.7c-0.3-0.3-0.7-0.5-1.1-0.9
		c-0.4-0.3-0.9-0.6-1.4-0.9c-0.6-0.3-1.2-0.5-2-0.7s-1.7-0.3-2.7-0.3c-2.1,0-4,0.4-5.7,1.3c-1.8,0.9-3.3,2.1-4.6,3.7
		c-1.3,1.6-2.3,3.6-3.1,5.9c-0.7,2.3-1.1,4.9-1.1,7.8c0,2.1,0.3,3.9,0.8,5.6c0.5,1.6,1.2,3,2.1,4.1c0.9,1.1,1.9,2,3.1,2.6
		C660.1,85.2,661.4,85.5,662.8,85.5z"/>
	<path class="st20" d="M728.8,66.3c0,2.6-0.3,5.2-0.9,7.6c-0.6,2.4-1.5,4.7-2.6,6.7s-2.5,4-4.1,5.7c-1.6,1.7-3.4,3.1-5.4,4.3
		c-2,1.2-4.1,2.1-6.5,2.8c-2.3,0.7-4.8,1-7.3,1c-3.2,0-6.1-0.6-8.6-1.7c-2.6-1.1-4.7-2.7-6.5-4.6c-1.8-2-3.1-4.3-4.1-6.9
		c-0.9-2.6-1.4-5.5-1.4-8.6c0-2.6,0.3-5.2,0.9-7.6c0.6-2.4,1.5-4.7,2.6-6.8c1.1-2.1,2.5-4,4.1-5.7c1.6-1.7,3.4-3.1,5.4-4.3
		c2-1.2,4.1-2.1,6.5-2.8c2.3-0.7,4.8-1,7.4-1c3.2,0,6.1,0.6,8.6,1.7c2.6,1.1,4.7,2.7,6.5,4.6c1.8,2,3.1,4.3,4.1,6.9
		C728.3,60.4,728.8,63.3,728.8,66.3z M717.6,66.6c0-2-0.2-3.8-0.7-5.5c-0.5-1.6-1.2-3.1-2.1-4.2c-0.9-1.2-2.1-2.1-3.4-2.7
		c-1.3-0.6-2.9-1-4.5-1c-2.2,0-4.2,0.5-6,1.4c-1.8,0.9-3.3,2.2-4.5,3.9c-1.2,1.7-2.2,3.7-2.8,6.1c-0.7,2.4-1,5-1,7.8
		c0,2,0.2,3.8,0.7,5.5c0.5,1.6,1.2,3,2.1,4.2c0.9,1.2,2,2.1,3.4,2.7c1.3,0.6,2.9,1,4.6,1c2.2,0,4.2-0.5,6-1.4
		c1.8-0.9,3.3-2.2,4.5-3.9c1.2-1.7,2.2-3.7,2.9-6C717.3,72.1,717.6,69.5,717.6,66.6z"/>
	<path class="st20" d="M757.6,76.8c0.4-0.7,0.7-1.5,1.1-2.2c0.4-0.7,0.8-1.4,1.2-2.1l14.9-25.7c0.4-0.8,1-1.2,1.7-1.4
		c0.7-0.2,1.3-0.3,1.9-0.3h8.6l-6,48.9h-9.6l3.4-28.5c0.1-0.6,0.2-1.3,0.3-2c0.1-0.7,0.3-1.5,0.5-2.3L761,86.4
		c-0.4,0.8-1,1.3-1.7,1.7c-0.7,0.4-1.5,0.6-2.3,0.6h-1.5c-0.8,0-1.6-0.2-2.2-0.6c-0.6-0.4-1.1-0.9-1.3-1.7l-8.6-25.3
		c0,0.8-0.1,1.5-0.1,2.2c0,0.7-0.1,1.4-0.2,1.9l-3.3,28.6h-9.6l6-48.8h8.3c0.5,0,0.9,0,1.2,0c0.4,0,0.7,0.1,1,0.2
		c0.3,0.1,0.5,0.3,0.7,0.5c0.2,0.2,0.4,0.5,0.5,1l8.6,25.8C756.8,73.9,757.2,75.3,757.6,76.8z"/>
</g>
</svg>
